SplineFontDB: 3.0
FontName: JuraBook
FullName: Jura Book
FamilyName: Jura
Weight: Normal
Copyright: Copyright 2009, 2010, 2011 by Daniel Johnson.  Released under the terms of the Open Font License.
Version: 2.6.1
ItalicAngle: 0
UnderlinePosition: -102
UnderlineWidth: 51
Ascent: 819
Descent: 205
LayerCount: 2
Layer: 0 0 "Back"  1
Layer: 1 1 "Fore"  0
XUID: [1021 338 342 28766]
FSType: 0
OS2Version: 2
OS2_WeightWidthSlopeOnly: 0
OS2_UseTypoMetrics: 1
CreationTime: 1232036477
ModificationTime: 1315626892
PfmFamily: 17
TTFWeight: 400
TTFWidth: 5
LineGap: 0
VLineGap: 0
Panose: 2 0 5 3 0 0 0 0 0 0
OS2TypoAscent: 838
OS2TypoAOffset: 0
OS2TypoDescent: -233
OS2TypoDOffset: 0
OS2TypoLinegap: 0
OS2WinAscent: 838
OS2WinAOffset: 0
OS2WinDescent: 233
OS2WinDOffset: 0
HheadAscent: 838
HheadAOffset: 0
HheadDescent: -233
HheadDOffset: 0
OS2SubXSize: 665
OS2SubYSize: 716
OS2SubXOff: 0
OS2SubYOff: 143
OS2SupXSize: 665
OS2SupYSize: 716
OS2SupXOff: 0
OS2SupYOff: 491
OS2StrikeYSize: 51
OS2StrikeYPos: 265
OS2Vendor: 'PfEd'
OS2CodePages: 2000009f.00000000
OS2UnicodeRanges: a00002ef.5000204b.00000020.00000000
Lookup: 260 0 0 "'abvm' Above Base Mark lookup 1"  {"'abvm' Above Base Mark lookup 1-1"  } ['abvm' ('DFLT' <'dflt' > 'cyrl' <'dflt' > 'grek' <'dflt' > 'latn' <'dflt' > ) ]
Lookup: 260 0 0 "'blwm' Below Base Mark lookup 2"  {"'blwm' Below Base Mark lookup 2-1"  } ['blwm' ('DFLT' <'dflt' > 'cyrl' <'dflt' > 'grek' <'dflt' > 'latn' <'dflt' > ) ]
Lookup: 258 0 0 "'kern' Horizontal Kerning in Latin lookup 0"  {"'kern' Horizontal Kerning in Latin lookup 0 per glyph data 0"  "'kern' Horizontal Kerning in Latin lookup 0 kerning class 1"  } ['kern' ('latn' <'dflt' > ) ]
MarkAttachClasses: 1
DEI: 91125
KernClass2: 159+ 125 "'kern' Horizontal Kerning in Latin lookup 0 kerning class 1" 
 5 space
 2 Xi
 29 Alphatonos Alpha Delta Lambda
 5 Gamma
 20 Epsilontonos Epsilon
 4 Zeta
 49 Etatonos Iotatonos Eta Iota Mu Nu Pi Iotadieresis
 5 Kappa
 26 Omicrontonos Theta Omicron
 3 Rho
 5 Sigma
 3 Tau

StartChar: .notdef
Encoding: 65536 -1 0
Width: 538
Flags: W
HStem: 0 71<167.864 370.136> 606 72<167.864 370.136>
VStem: 85 71<84.9264 591.558> 382 71<84.9264 591.558>
LayerCount: 2
Fore
SplineSet
156 546 m 2,0,-1
 156 130 l 2,1,2
 156 98 156 98 167.5 84.5 c 128,-1,3
 179 71 179 71 210 71 c 2,4,-1
 328 71 l 2,5,6
 359 71 359 71 370.5 84.5 c 128,-1,7
 382 98 382 98 382 130 c 2,8,-1
 382 546 l 2,9,10
 382 578 382 578 370.5 592 c 128,-1,11
 359 606 359 606 328 606 c 2,12,-1
 210 606 l 2,13,14
 179 606 179 606 167.5 592 c 128,-1,15
 156 578 156 578 156 546 c 2,0,-1
85 0 m 1,16,-1
 85 678 l 1,17,-1
 453 678 l 1,18,-1
 453 0 l 1,19,-1
 85 0 l 1,16,-1
EndSplineSet
Validated: 1
EndChar

StartChar: exclam
Encoding: 33 33 2
Width: 244
Flags: W
HStem: -12 82<77.4984 167.502>
VStem: 71 103<-3.1377 61.1377> 96 52<164.201 648.799>
LayerCount: 2
Fore
SplineSet
157 0 m 128,-1,1
 140 -12 140 -12 123 -12 c 128,-1,2
 106 -12 106 -12 88.5 0 c 128,-1,3
 71 12 71 12 71 29 c 128,-1,4
 71 46 71 46 88.5 58 c 128,-1,5
 106 70 106 70 122.5 70 c 128,-1,6
 139 70 139 70 156.5 58 c 128,-1,7
 174 46 174 46 174 29 c 128,-1,0
 174 12 174 12 157 0 c 128,-1,1
122 649 m 128,-1,9
 148 649 148 649 148 616 c 2,10,-1
 148 197 l 2,11,12
 148 164 148 164 122 164 c 128,-1,13
 96 164 96 164 96 197 c 2,14,-1
 96 616 l 2,15,8
 96 649 96 649 122 649 c 128,-1,9
EndSplineSet
Validated: 1
EndChar

StartChar: quotedbl
Encoding: 34 34 3
Width: 295
Flags: W
HStem: 433 215<71.8965 121.104 172.914 223.086>
VStem: 71 51<433.129 647.871> 172 52<433.201 647.799>
LayerCount: 2
Fore
SplineSet
224 466 m 2,0,1
 224 433 224 433 198 433 c 128,-1,2
 172 433 172 433 172 466 c 2,3,-1
 172 615 l 2,4,5
 172 648 172 648 198 648 c 128,-1,6
 224 648 224 648 224 615 c 2,7,-1
 224 466 l 2,0,1
122 466 m 2,8,9
 122 433 122 433 96.5 433 c 128,-1,10
 71 433 71 433 71 466 c 2,11,-1
 71 615 l 2,12,13
 71 648 71 648 96.5 648 c 128,-1,14
 122 648 122 648 122 615 c 2,15,-1
 122 466 l 2,8,9
EndSplineSet
Validated: 1
EndChar

StartChar: numbersign
Encoding: 35 35 4
Width: 603
Flags: W
HStem: 200 52<44.2014 143 217 322 396 527.799> 384 52<75.1953 210 283 388 463 558.799>
VStem: 84 52<6.39062 30> 262 53<6.40625 30> 291 52<606 629.625> 469 53<606 629.525>
LayerCount: 2
Fore
SplineSet
496 630 m 0,0,1
 522 630 522 630 522 604 c 0,2,3
 522 597 522 597 519 588 c 2,4,-1
 463 436 l 1,5,-1
 526 436 l 2,6,7
 559 436 559 436 559 410 c 128,-1,8
 559 384 559 384 526 384 c 2,9,-1
 444 384 l 1,10,-1
 396 252 l 1,11,-1
 495 252 l 2,12,13
 528 252 528 252 528 226 c 128,-1,14
 528 200 528 200 495 200 c 2,15,-1
 377 200 l 1,16,-1
 315 30 l 2,17,18
 307 6 307 6 288 6 c 0,19,20
 262 6 262 6 262 32 c 0,21,22
 262 39 262 39 265 48 c 2,23,-1
 322 200 l 1,24,-1
 197 200 l 1,25,-1
 136 30 l 2,26,27
 128 6 128 6 109 6 c 0,28,29
 84 6 84 6 84 31 c 0,30,31
 84 36 84 36 87 48 c 1,32,-1
 143 200 l 1,33,-1
 77 200 l 2,34,35
 44 200 44 200 44 226 c 128,-1,36
 44 252 44 252 77 252 c 2,37,-1
 162 252 l 1,38,-1
 210 384 l 1,39,-1
 107 384 l 2,40,41
 75 384 75 384 75 410 c 128,-1,42
 75 436 75 436 107 436 c 2,43,-1
 229 436 l 1,44,-1
 291 606 l 1,45,46
 301 630 301 630 317 630 c 0,47,48
 343 630 343 630 343 605 c 0,49,50
 343 600 343 600 340 588 c 1,51,-1
 283 436 l 1,52,-1
 407 436 l 1,53,-1
 469 606 l 2,54,55
 478 630 478 630 496 630 c 0,0,1
265 384 m 1,56,-1
 217 252 l 1,57,-1
 340 252 l 1,58,-1
 388 384 l 1,59,-1
 265 384 l 1,56,-1
EndSplineSet
Validated: 1
EndChar

StartChar: dollar
Encoding: 36 36 5
Width: 587
Flags: W
HStem: -7 21G<285 311> 89 52<125.38 272 324 460.875> 301 52<130.571 272 324 455> 501 52<124.776 272 324 460.62> 623 20G<285 311>
VStem: 61 52<154.411 233.796 371.668 490.634> 272 52<-6.80469 89 141 301 353 501 554 642.799> 475 52<152.147 278.906 409.453 488.104>
LayerCount: 2
Fore
SplineSet
399 353 m 2,0,1
 527 353 527 353 527 221.5 c 128,-1,2
 527 90 527 90 399 90 c 2,3,-1
 324 90 l 1,4,-1
 324 25 l 2,5,6
 324 -7 324 -7 298 -7 c 128,-1,7
 272 -7 272 -7 272 24 c 2,8,-1
 272 89 l 1,9,-1
 161 89 l 2,10,11
 76 89 76 89 64 159 c 0,12,13
 61 176 61 176 61 205 c 128,-1,14
 61 234 61 234 87 234 c 128,-1,15
 113 234 113 234 113 200.5 c 128,-1,16
 113 167 113 167 125 154 c 128,-1,17
 137 141 137 141 168 141 c 2,18,-1
 272 141 l 1,19,-1
 272 301 l 1,20,-1
 190 301 l 2,21,22
 61 301 61 301 61 432 c 0,23,24
 61 553 61 553 190 553 c 2,25,-1
 272 553 l 1,26,-1
 272 610 l 2,27,28
 272 643 272 643 298 643 c 128,-1,29
 324 643 324 643 324 611 c 2,30,-1
 324 554 l 1,31,-1
 425 554 l 2,32,33
 510 554 510 554 522 484 c 0,34,35
 525 467 525 467 525 438 c 128,-1,36
 525 409 525 409 499 409 c 128,-1,37
 473 409 473 409 473 442.5 c 128,-1,38
 473 476 473 476 461 488.5 c 128,-1,39
 449 501 449 501 418 501 c 2,40,-1
 324 501 l 1,41,-1
 324 353 l 1,42,-1
 399 353 l 2,0,1
416 301 m 2,43,-1
 324 301 l 1,44,-1
 324 141 l 1,45,-1
 416 141 l 2,46,47
 475 141 475 141 475 214 c 0,48,49
 475 252 475 252 458.5 276.5 c 128,-1,50
 442 301 442 301 416 301 c 2,43,-1
172 353 m 2,51,-1
 272 353 l 1,52,-1
 272 501 l 1,53,-1
 172 501 l 2,54,55
 113 501 113 501 113 434 c 0,56,57
 113 395 113 395 129.5 374 c 128,-1,58
 146 353 146 353 172 353 c 2,51,-1
EndSplineSet
Validated: 1
EndChar

StartChar: percent
Encoding: 37 37 6
Width: 559
Flags: W
HStem: 101 52<372.206 421.922> 213 52<372.206 421.664> 384 52<135.128 192.923> 496 52<135.128 192.923>
VStem: 81 53<437.105 494.895> 194 54<437.169 494.831> 312 55<158.261 207.996> 427 52<158.261 207.996>
LayerCount: 2
Fore
SplineSet
376 204.5 m 128,-1,1
 367 196 367 196 367 183.5 c 128,-1,2
 367 171 367 171 376 162 c 128,-1,3
 385 153 385 153 397.5 153 c 128,-1,4
 410 153 410 153 418.5 162 c 128,-1,5
 427 171 427 171 427 183.5 c 128,-1,6
 427 196 427 196 418 204.5 c 128,-1,7
 409 213 409 213 397 213 c 128,-1,0
 385 213 385 213 376 204.5 c 128,-1,1
312 183 m 128,-1,9
 312 217 312 217 337 241 c 128,-1,10
 362 265 362 265 396.5 265 c 128,-1,11
 431 265 431 265 455 241 c 128,-1,12
 479 217 479 217 479 183 c 128,-1,13
 479 149 479 149 455 125 c 128,-1,14
 431 101 431 101 396.5 101 c 128,-1,15
 362 101 362 101 337 125 c 128,-1,8
 312 149 312 149 312 183 c 128,-1,9
134 466 m 128,-1,17
 134 454 134 454 143 445 c 128,-1,18
 152 436 152 436 163.5 436 c 128,-1,19
 175 436 175 436 184.5 444.5 c 128,-1,20
 194 453 194 453 194 466 c 128,-1,21
 194 479 194 479 184.5 487.5 c 128,-1,22
 175 496 175 496 163.5 496 c 128,-1,23
 152 496 152 496 143 487 c 128,-1,16
 134 478 134 478 134 466 c 128,-1,17
81 466 m 128,-1,25
 81 500 81 500 105.5 524 c 128,-1,26
 130 548 130 548 164.5 548 c 128,-1,27
 199 548 199 548 223.5 524 c 128,-1,28
 248 500 248 500 248 466 c 128,-1,29
 248 432 248 432 223.5 408 c 128,-1,30
 199 384 199 384 164.5 384 c 128,-1,31
 130 384 130 384 105.5 408 c 128,-1,24
 81 432 81 432 81 466 c 128,-1,25
442 516 m 2,32,33
 455 528 455 528 464.5 528 c 128,-1,34
 474 528 474 528 482.5 520.5 c 128,-1,35
 491 513 491 513 491 502.5 c 128,-1,36
 491 492 491 492 479 479 c 1,37,-1
 119 133 l 2,38,39
 106 121 106 121 96 121 c 128,-1,40
 86 121 86 121 77.5 128.5 c 128,-1,41
 69 136 69 136 69 147 c 128,-1,42
 69 158 69 158 81 170 c 2,43,-1
 442 516 l 2,32,33
EndSplineSet
Validated: 1
EndChar

StartChar: ampersand
Encoding: 38 38 7
Width: 508
Flags: W
HStem: -14 52<159.014 325.616> 600 52<171.514 295.748>
VStem: 39 52<100.624 275.12> 64 54<418.109 548.562> 421 51<136.047 262.78>
LayerCount: 2
Fore
SplineSet
123 357 m 1,0,1
 64 427 64 427 64 489.5 c 128,-1,2
 64 552 64 552 120.5 602 c 128,-1,3
 177 652 177 652 243 652 c 0,4,5
 324 652 324 652 376 554 c 0,6,7
 386 535 386 535 386 526.5 c 128,-1,8
 386 518 386 518 378.5 510.5 c 128,-1,9
 371 503 371 503 359.5 503 c 128,-1,10
 348 503 348 503 336 518 c 0,11,12
 326 534 326 534 316 552 c 0,13,14
 289 600 289 600 243 600 c 0,15,16
 195 600 195 600 156.5 566 c 128,-1,17
 118 532 118 532 118 486 c 128,-1,18
 118 440 118 440 156 397 c 2,19,-1
 392 125 l 1,20,21
 421 169 421 169 421 216 c 128,-1,22
 421 263 421 263 446.5 263 c 128,-1,23
 472 263 472 263 472 227 c 0,24,25
 472 147 472 147 427 84 c 1,26,-1
 473 32 l 2,27,28
 480 24 480 24 480 11 c 0,29,30
 480 -12 480 -12 458 -12 c 0,31,32
 443 -12 443 -12 428 4 c 1,33,-1
 393 45 l 1,34,35
 326 -14 326 -14 248 -14 c 0,36,37
 177 -14 177 -14 128 18 c 0,38,39
 39 77 39 77 39 187.5 c 128,-1,40
 39 298 39 298 123 357 c 1,0,1
359 84 m 1,41,-1
 157 319 l 1,42,43
 91 277 91 277 91 192 c 128,-1,44
 91 107 91 107 139 72.5 c 128,-1,45
 187 38 187 38 247 38 c 128,-1,46
 307 38 307 38 359 84 c 1,41,-1
EndSplineSet
Validated: 1
EndChar

StartChar: quotesingle
Encoding: 39 39 8
Width: 194
Flags: W
HStem: 433 215<71.8965 121.104>
VStem: 71 51<433.129 647.871>
LayerCount: 2
Fore
SplineSet
122 466 m 2,0,1
 122 433 122 433 96.5 433 c 128,-1,2
 71 433 71 433 71 466 c 2,3,-1
 71 615 l 2,4,5
 71 648 71 648 96.5 648 c 128,-1,6
 122 648 122 648 122 615 c 2,7,-1
 122 466 l 2,0,1
EndSplineSet
Validated: 1
EndChar

StartChar: parenleft
Encoding: 40 40 9
Width: 248
Flags: W
HStem: -47 52<151.443 203> 631 52<134.692 203>
VStem: 73 52<29.4561 621.506>
LayerCount: 2
Fore
SplineSet
125 503 m 2,0,-1
 125 133 l 2,1,2
 125 43 125 43 132 29 c 0,3,4
 140 14 140 14 151 10 c 0,5,6
 165 5 165 5 203 5 c 1,7,-1
 203 -47 l 1,8,9
 137 -47 137 -47 112.5 -24.5 c 128,-1,10
 88 -2 88 -2 80.5 35 c 128,-1,11
 73 72 73 72 73 133 c 2,12,-1
 73 503 l 2,13,14
 73 624 73 624 107 656 c 0,15,16
 136 683 136 683 198 683 c 0,17,18
 200 683 200 683 203 683 c 1,19,-1
 203 631 l 1,20,21
 144 630 144 630 136 614 c 0,22,23
 125 594 125 594 125 516 c 0,24,25
 125 510 125 510 125 503 c 2,0,-1
EndSplineSet
Validated: 1
EndChar

StartChar: parenright
Encoding: 41 41 10
Width: 248
Flags: W
HStem: -47 52<45 113.438> 631 52<45 96.5591>
VStem: 123 52<14.4944 606.544>
LayerCount: 2
Fore
SplineSet
123 503 m 2,0,1
 123 593 123 593 116 607 c 0,2,3
 108 622 108 622 97 626 c 0,4,5
 83 631 83 631 55 631 c 0,6,7
 50 631 50 631 45 631 c 1,8,-1
 45 683 l 1,9,10
 111 683 111 683 135.5 660.5 c 128,-1,11
 160 638 160 638 167.5 601 c 128,-1,12
 175 564 175 564 175 503 c 2,13,-1
 175 133 l 2,14,15
 175 12 175 12 141 -20 c 0,16,17
 111 -47 111 -47 45 -47 c 1,18,-1
 45 5 l 1,19,20
 104 6 104 6 112 22 c 0,21,22
 123 41 123 41 123 120 c 0,23,24
 123 127 123 127 123 133 c 2,25,-1
 123 503 l 2,0,1
EndSplineSet
Validated: 1
EndChar

StartChar: asterisk
Encoding: 42 42 11
Width: 397
Flags: W
HStem: 341 300<172.914 223.086>
VStem: 172 52<341.201 446 536 640.799>
LayerCount: 2
Fore
SplineSet
325.5 413 m 128,-1,1
 319 404 319 404 309 404 c 128,-1,2
 299 404 299 404 287 410 c 2,3,-1
 224 446 l 1,4,-1
 224 374 l 2,5,6
 224 341 224 341 198 341 c 128,-1,7
 172 341 172 341 172 374 c 2,8,-1
 172 446 l 1,9,-1
 109 410 l 2,10,11
 97 404 97 404 88 404 c 128,-1,12
 79 404 79 404 72 412 c 128,-1,13
 65 420 65 420 65 432 c 128,-1,14
 65 444 65 444 83 455 c 2,15,-1
 146 492 l 1,16,-1
 83 527 l 2,17,18
 65 538 65 538 65 549 c 0,19,20
 65 578 65 578 89 578 c 0,21,22
 97 578 97 578 109 572 c 2,23,-1
 172 536 l 1,24,-1
 172 608 l 2,25,26
 172 641 172 641 198 641 c 128,-1,27
 224 641 224 641 224 608 c 2,28,-1
 224 536 l 1,29,-1
 287 572 l 2,30,31
 299 578 299 578 308.5 578 c 128,-1,32
 318 578 318 578 325 570 c 128,-1,33
 332 562 332 562 332 550.5 c 128,-1,34
 332 539 332 539 313 527 c 1,35,-1
 251 492 l 1,36,-1
 313 455 l 2,37,38
 332 443 332 443 332 432.5 c 128,-1,0
 332 422 332 422 325.5 413 c 128,-1,1
EndSplineSet
Validated: 1
EndChar

StartChar: plus
Encoding: 43 43 12
Width: 518
Flags: W
HStem: 204 53<38.1892 233 285 480.792> 453 20G<246 272>
VStem: 233 52<-11.8047 204 257 472.799>
LayerCount: 2
Fore
SplineSet
447 257 m 2,0,1
 481 257 481 257 481 230.5 c 128,-1,2
 481 204 481 204 447 204 c 2,3,-1
 285 204 l 1,4,-1
 285 20 l 2,5,6
 285 -12 285 -12 259 -12 c 128,-1,7
 233 -12 233 -12 233 20 c 2,8,-1
 233 204 l 1,9,-1
 69 204 l 2,10,11
 38 204 38 204 38 230.5 c 128,-1,12
 38 257 38 257 69 257 c 2,13,-1
 233 257 l 1,14,-1
 233 440 l 2,15,16
 233 473 233 473 259 473 c 128,-1,17
 285 473 285 473 285 440 c 2,18,-1
 285 257 l 1,19,-1
 447 257 l 2,0,1
EndSplineSet
Validated: 1
EndChar

StartChar: comma
Encoding: 44 44 13
Width: 210
Flags: W
HStem: -85 151<76.2214 95.3701>
VStem: 49 93<-60 42.5> 49 47<-84.7803 -61>
LayerCount: 2
Fore
SplineSet
127 60 m 128,-1,1
 142 54 142 54 142 42.5 c 128,-1,2
 142 31 142 31 137 22 c 2,3,-1
 96 -61 l 1,4,5
 86 -85 86 -85 71 -85 c 0,6,7
 49 -85 49 -85 49 -60 c 0,8,9
 49 -56 49 -56 52 -44 c 2,10,-1
 76 43 l 2,11,12
 83 66 83 66 101 66 c 0,13,0
 112 66 112 66 127 60 c 128,-1,1
EndSplineSet
Validated: 1
EndChar

StartChar: hyphen
Encoding: 45 45 14
Width: 456
Flags: W
HStem: 204 53<73.1892 382.792>
VStem: 73 310<204.932 256.068>
LayerCount: 2
Fore
SplineSet
349 257 m 2,0,1
 383 257 383 257 383 230.5 c 128,-1,2
 383 204 383 204 349 204 c 2,3,-1
 104 204 l 2,4,5
 73 204 73 204 73 230.5 c 128,-1,6
 73 257 73 257 104 257 c 2,7,-1
 349 257 l 2,0,1
EndSplineSet
Validated: 1
EndChar

StartChar: period
Encoding: 46 46 15
Width: 232
Flags: W
HStem: -12 82<71.3127 160.502>
VStem: 65 102<-3.1377 61.1377>
LayerCount: 2
Fore
SplineSet
82 58 m 128,-1,1
 99 70 99 70 115.5 70 c 128,-1,2
 132 70 132 70 149.5 58 c 128,-1,3
 167 46 167 46 167 29 c 128,-1,4
 167 12 167 12 149.5 0 c 128,-1,5
 132 -12 132 -12 115.5 -12 c 128,-1,6
 99 -12 99 -12 82 0 c 128,-1,7
 65 12 65 12 65 29 c 128,-1,0
 65 46 65 46 82 58 c 128,-1,1
EndSplineSet
Validated: 1
EndChar

StartChar: slash
Encoding: 47 47 16
Width: 359
Flags: W
VStem: 43 52<-12.7129 10> 264 52<627 649.789>
LayerCount: 2
Fore
SplineSet
289 650 m 0,0,1
 316 650 316 650 316 626 c 0,2,3
 316 618 316 618 313 608 c 2,4,-1
 95 10 l 2,5,6
 87 -13 87 -13 69 -13 c 0,7,8
 43 -13 43 -13 43 11 c 0,9,10
 43 17 43 17 46 29 c 1,11,-1
 264 627 l 2,12,13
 272 650 272 650 289 650 c 0,0,1
EndSplineSet
Validated: 1
EndChar

StartChar: zero
Encoding: 48 48 17
Width: 592
Flags: W
HStem: -5 52<158.133 433.867> 588 53<158.133 433.867>
VStem: 64 52<86.8218 547.408> 476 52<86.8218 547.408>
LayerCount: 2
Fore
SplineSet
116 497 m 2,0,-1
 116 138 l 2,1,2
 116 104 116 104 149.5 75.5 c 128,-1,3
 183 47 183 47 233 47 c 2,4,-1
 359 47 l 2,5,6
 409 47 409 47 442.5 75.5 c 128,-1,7
 476 104 476 104 476 138 c 2,8,-1
 476 497 l 2,9,10
 476 531 476 531 442.5 559.5 c 128,-1,11
 409 588 409 588 359 588 c 2,12,-1
 233 588 l 2,13,14
 183 588 183 588 149.5 559.5 c 128,-1,15
 116 531 116 531 116 497 c 2,0,-1
528 154 m 2,16,17
 528 84 528 84 477.5 39.5 c 128,-1,18
 427 -5 427 -5 350 -5 c 2,19,-1
 242 -5 l 2,20,21
 165 -5 165 -5 114.5 39.5 c 128,-1,22
 64 84 64 84 64 154 c 2,23,-1
 64 482 l 2,24,25
 64 552 64 552 114.5 596.5 c 128,-1,26
 165 641 165 641 242 641 c 2,27,-1
 350 641 l 2,28,29
 427 641 427 641 477.5 596.5 c 128,-1,30
 528 552 528 552 528 482 c 2,31,-1
 528 154 l 2,16,17
EndSplineSet
Validated: 1
EndChar

StartChar: one
Encoding: 49 49 18
Width: 592
Flags: W
HStem: -7 21G<292 318>
VStem: 279 52<-6.80469 600>
LayerCount: 2
Fore
SplineSet
225 562 m 0,0,1
 201 562 201 562 201 584 c 0,2,3
 201 597 201 597 215 610 c 2,4,-1
 276 672 l 1,5,6
 291 685 291 685 302 685 c 0,7,8
 331 685 331 685 331 657 c 2,9,-1
 331 25 l 2,10,11
 331 -7 331 -7 305 -7 c 128,-1,12
 279 -7 279 -7 279 25 c 2,13,-1
 279 600 l 1,14,-1
 254 576 l 2,15,16
 240 562 240 562 225 562 c 0,0,1
EndSplineSet
Validated: 1
EndChar

StartChar: two
Encoding: 50 50 19
Width: 592
Flags: W
HStem: -5 52<117 527.786> 589 52<128.349 439.172>
VStem: 65 52<47 123.828 494.299 575.073> 476 52<407.369 554.5>
LayerCount: 2
Fore
SplineSet
528 460 m 0,0,1
 528 370 528 370 385 298 c 0,2,3
 325 268 325 268 265 235.5 c 128,-1,4
 205 203 205 203 162 155 c 128,-1,5
 119 107 119 107 117 47 c 1,6,-1
 493 47 l 2,7,8
 528 47 528 47 528 21 c 128,-1,9
 528 -5 528 -5 493 -5 c 2,10,-1
 65 -5 l 1,11,-1
 65 44 l 2,12,13
 65 115 65 115 107.5 169.5 c 128,-1,14
 150 224 150 224 210 258 c 128,-1,15
 270 292 270 292 330 320 c 0,16,17
 476 388 476 388 476 466 c 0,18,19
 476 543 476 543 441 566 c 128,-1,20
 406 589 406 589 312 589 c 2,21,-1
 171 589 l 2,22,23
 139 589 139 589 128 575.5 c 128,-1,24
 117 562 117 562 117 528 c 128,-1,25
 117 494 117 494 91 494 c 128,-1,26
 65 494 65 494 65 542 c 0,27,28
 65 641 65 641 162 641 c 0,29,30
 163 641 163 641 164 641 c 2,31,-1
 312 641 l 2,32,33
 423 641 423 641 475.5 604.5 c 128,-1,34
 528 568 528 568 528 460 c 0,0,1
EndSplineSet
Validated: 1
EndChar

StartChar: three
Encoding: 51 51 20
Width: 592
Flags: W
HStem: -5 52<151.608 436.449> 299 53<252.439 381.562> 589 52<149.972 436.449>
VStem: 64 52<76.4498 141.736 494.264 559.55> 477 51<86.6164 223.91 415.408 549.393>
LayerCount: 2
Fore
SplineSet
338 589 m 2,0,-1
 254 589 l 2,1,2
 207 589 207 589 162 572 c 0,3,4
 116 554 116 554 116 524 c 128,-1,5
 116 494 116 494 90 494 c 128,-1,6
 64 494 64 494 64 534 c 128,-1,7
 64 574 64 574 113.5 607.5 c 128,-1,8
 163 641 163 641 247 641 c 2,9,-1
 327 641 l 2,10,11
 436 641 436 641 482 598.5 c 128,-1,12
 528 556 528 556 528 451 c 0,13,14
 528 418 528 418 484 379 c 128,-1,15
 440 340 440 340 401 326 c 1,16,17
 438 315 438 315 483 267.5 c 128,-1,18
 528 220 528 220 528 185 c 0,19,20
 528 80 528 80 482 37.5 c 128,-1,21
 436 -5 436 -5 327 -5 c 2,22,-1
 247 -5 l 2,23,24
 163 -5 163 -5 113.5 28.5 c 128,-1,25
 64 62 64 62 64 102 c 128,-1,26
 64 142 64 142 90 142 c 128,-1,27
 116 142 116 142 116 112 c 128,-1,28
 116 82 116 82 161.5 64.5 c 128,-1,29
 207 47 207 47 254 47 c 2,30,-1
 338 47 l 2,31,32
 417 47 417 47 447 77.5 c 128,-1,33
 477 108 477 108 477 164 c 128,-1,34
 477 220 477 220 413 260 c 0,35,36
 348 299 348 299 300 299 c 128,-1,37
 252 299 252 299 252 326 c 0,38,39
 252 352 252 352 302 352 c 128,-1,40
 352 352 352 352 414.5 385 c 128,-1,41
 477 418 477 418 477 473 c 128,-1,42
 477 528 477 528 447 558.5 c 128,-1,43
 417 589 417 589 338 589 c 2,0,-1
EndSplineSet
Validated: 1
EndChar

StartChar: four
Encoding: 52 52 21
Width: 592
Flags: W
HStem: -7 21G<403 429> 170 52<114 389 442 529.805> 621 20G<360.608 442>
VStem: 389 53<-6.72754 170 222 579>
LayerCount: 2
Fore
SplineSet
498 170 m 2,0,-1
 442 170 l 1,1,-1
 442 24 l 2,2,3
 442 -7 442 -7 416 -7 c 128,-1,4
 390 -7 390 -7 389 24 c 2,5,-1
 389 170 l 1,6,-1
 62 170 l 1,7,-1
 62 233 l 1,8,-1
 376 641 l 1,9,-1
 442 641 l 1,10,-1
 442 222 l 1,11,-1
 498 222 l 2,12,13
 530 222 530 222 530 196 c 128,-1,14
 530 170 530 170 498 170 c 2,0,-1
114 222 m 1,15,-1
 389 222 l 1,16,-1
 389 579 l 1,17,-1
 114 222 l 1,15,-1
EndSplineSet
Validated: 1
EndChar

StartChar: five
Encoding: 53 53 22
Width: 592
Flags: W
HStem: -9 53<189.892 389.572> 387 52<132 398.942> 589 52<154.409 480.805>
VStem: 471 52<128 317.887>
LayerCount: 2
Fore
SplineSet
77 113 m 128,-1,1
 85 121 85 121 92 121 c 0,2,3
 93 121 l 0,4,5
 100 121 100 121 126 102 c 0,6,7
 207 44 207 44 292 44 c 0,8,9
 294 44 294 44 295 44 c 0,10,11
 378 44 378 44 424 92 c 0,12,13
 471 141 471 141 471 229 c 0,14,15
 471 230 471 230 471 231 c 0,16,17
 471 345 471 345 366 379 c 0,18,19
 342 387 342 387 317 387 c 2,20,-1
 75 387 l 1,21,-1
 84 512 l 2,22,23
 89 584 89 584 115 612.5 c 128,-1,24
 141 641 141 641 198 641 c 2,25,-1
 449 641 l 2,26,27
 481 641 481 641 481 615 c 128,-1,28
 481 589 481 589 449 589 c 2,29,-1
 192 589 l 2,30,31
 167 589 167 589 154 576 c 128,-1,32
 141 563 141 563 138 529 c 2,33,-1
 132 439 l 1,34,-1
 308 439 l 2,35,36
 392 439 392 439 457.5 382 c 128,-1,37
 523 325 523 325 523 221.5 c 128,-1,38
 523 118 523 118 458.5 54.5 c 128,-1,39
 394 -9 394 -9 291 -9 c 0,40,41
 228 -9 228 -9 148.5 26 c 128,-1,42
 69 61 69 61 69 95 c 0,43,0
 69 105 69 105 77 113 c 128,-1,1
EndSplineSet
Validated: 1
EndChar

StartChar: six
Encoding: 54 54 23
Width: 592
Flags: W
HStem: -9 52<195.859 395.716> 376 52<196.018 396.126> 624 20G<285.75 317.25>
VStem: 64 52<121.107 297.448> 476 52<122.045 296.955>
LayerCount: 2
Fore
SplineSet
129.5 52 m 128,-1,1
 64 113 64 113 64 204.5 c 128,-1,2
 64 296 64 296 86 372.5 c 128,-1,3
 108 449 108 449 139 497 c 0,4,5
 170 546 170 546 205 580 c 0,6,7
 270 644 270 644 301.5 644 c 128,-1,8
 333 644 333 644 333 621 c 0,9,10
 333 605 333 605 296 586 c 128,-1,11
 259 567 259 567 211.5 511.5 c 128,-1,12
 164 456 164 456 139 375 c 1,13,14
 203 428 203 428 299.5 428 c 128,-1,15
 396 428 396 428 462 366.5 c 128,-1,16
 528 305 528 305 528 209.5 c 128,-1,17
 528 114 528 114 462 52.5 c 128,-1,18
 396 -9 396 -9 295.5 -9 c 128,-1,0
 195 -9 195 -9 129.5 52 c 128,-1,1
164 330.5 m 128,-1,20
 116 285 116 285 116 209.5 c 128,-1,21
 116 134 116 134 164 88.5 c 128,-1,22
 212 43 212 43 296 43 c 128,-1,23
 380 43 380 43 428 88.5 c 128,-1,24
 476 134 476 134 476 209.5 c 128,-1,25
 476 285 476 285 428 330.5 c 128,-1,26
 380 376 380 376 296 376 c 128,-1,19
 212 376 212 376 164 330.5 c 128,-1,20
EndSplineSet
Validated: 1
EndChar

StartChar: seven
Encoding: 55 55 24
Width: 592
Flags: W
HStem: -10 21G<255.5 278.5> 594 52<137.38 457>
VStem: 73 52<499.208 580.073>
LayerCount: 2
Fore
SplineSet
270 -10 m 0,0,1
 241 -10 241 -10 241 14 c 0,2,3
 241 24 241 24 246 35 c 2,4,-1
 457 594 l 1,5,-1
 181 594 l 2,6,7
 149 594 149 594 137 580.5 c 128,-1,8
 125 567 125 567 125 533 c 128,-1,9
 125 499 125 499 99 499 c 0,10,11
 98 499 l 0,12,13
 73 499 73 499 73 546 c 0,14,15
 73 646 73 646 173 646 c 2,16,-1
 493 646 l 2,17,18
 519 646 519 646 519 623 c 0,19,20
 519 614 519 614 515 602 c 2,21,-1
 297 16 l 2,22,23
 287 -10 287 -10 270 -10 c 0,0,1
EndSplineSet
Validated: 1
EndChar

StartChar: eight
Encoding: 56 56 25
Width: 592
Flags: W
HStem: -5 52<157.136 428.564> 302 52<162.921 432.509> 589 52<144.709 447.531>
VStem: 64 52<79.8417 266.596 382.193 561.946> 476 52<81.875 267.763 383.415 561.891>
LayerCount: 2
Fore
SplineSet
116 174 m 128,-1,1
 116 131 116 131 124 105 c 0,2,3
 133 78 133 78 156 66 c 0,4,5
 192 47 192 47 273 47 c 0,6,7
 277 47 277 47 281 47 c 2,8,-1
 312 47 l 2,9,10
 400 47 400 47 429.5 63 c 128,-1,11
 459 79 459 79 467.5 105 c 128,-1,12
 476 131 476 131 476 193.5 c 128,-1,13
 476 256 476 256 441 279 c 128,-1,14
 406 302 406 302 312 302 c 2,15,-1
 281 302 l 2,16,17
 191 302 191 302 162 285.5 c 128,-1,18
 133 269 133 269 124.5 243 c 128,-1,0
 116 217 116 217 116 174 c 128,-1,1
312 -5 m 2,19,-1
 281 -5 l 2,20,21
 148 -5 148 -5 102 44 c 0,22,23
 64 86 64 86 64 186 c 128,-1,24
 64 286 64 286 128 326 c 1,25,26
 64 361 64 361 64 472 c 0,27,28
 64 600 64 600 150 626 c 0,29,30
 197 640 197 640 281 641 c 2,31,-1
 312 641 l 2,32,33
 315 641 315 641 318 641 c 0,34,35
 451 641 451 641 490 600 c 0,36,37
 528 559 528 559 528 460 c 128,-1,38
 528 361 528 361 465 326 c 1,39,40
 528 285 528 285 528 174 c 128,-1,41
 528 63 528 63 472.5 29 c 128,-1,42
 417 -5 417 -5 312 -5 c 2,19,-1
472.5 422.5 m 128,-1,44
 476 443 476 443 476 470 c 128,-1,45
 476 497 476 497 472.5 515 c 128,-1,46
 469 533 469 533 464.5 546 c 128,-1,47
 460 559 460 559 448 567 c 128,-1,48
 436 575 436 575 426 580 c 0,49,50
 418 584 418 584 396 586 c 0,51,52
 363 589 363 589 312 589 c 2,53,-1
 281 589 l 2,54,55
 277 589 277 589 272 589 c 0,56,57
 159 589 159 589 140 564 c 0,58,59
 116 533 116 533 116 485 c 128,-1,60
 116 437 116 437 123 415 c 128,-1,61
 130 393 130 393 140 380 c 0,62,63
 150 368 150 368 174 362 c 0,64,65
 206 354 206 354 281 354 c 2,66,-1
 312 354 l 2,67,68
 418 354 418 354 433 365 c 128,-1,69
 448 376 448 376 458.5 389 c 128,-1,43
 469 402 469 402 472.5 422.5 c 128,-1,44
EndSplineSet
Validated: 1
EndChar

StartChar: nine
Encoding: 57 57 26
Width: 592
Flags: W
HStem: -16 53<139.272 256.898> 302 52<174.446 423.128> 589 52<181.364 422.661>
VStem: 64 52<400.855 534.549> 476 52<402.03 540.77>
LayerCount: 2
Fore
SplineSet
312 641 m 0,0,1
 528 641 528 641 528 470 c 0,2,3
 528 364 528 364 496 271 c 128,-1,4
 464 178 464 178 414 116 c 0,5,6
 308 -16 308 -16 170 -16 c 0,7,8
 139 -16 139 -16 139 10.5 c 128,-1,9
 139 37 139 37 172 37 c 128,-1,10
 205 37 205 37 246.5 54.5 c 128,-1,11
 288 72 288 72 331 106 c 0,12,13
 428 182 428 182 463 334 c 1,14,15
 412 302 412 302 312 302 c 0,16,17
 64 302 64 302 64 471.5 c 128,-1,18
 64 641 64 641 312 641 c 0,0,1
312 354 m 0,19,20
 476 354 476 354 476 471.5 c 128,-1,21
 476 589 476 589 312 589 c 0,22,23
 116 589 116 589 116 471 c 0,24,25
 116 394 116 394 183 372 c 0,26,27
 236 354 236 354 312 354 c 0,19,20
EndSplineSet
Validated: 1
EndChar

StartChar: colon
Encoding: 58 58 27
Width: 248
Flags: W
HStem: 39 82<79.3127 168.502> 392 82<79.3127 168.502>
VStem: 73 102<47.8623 112.138 400.862 465.138>
LayerCount: 2
Fore
SplineSet
90 109 m 128,-1,1
 107 121 107 121 123.5 121 c 128,-1,2
 140 121 140 121 157.5 109 c 128,-1,3
 175 97 175 97 175 80 c 128,-1,4
 175 63 175 63 157.5 51 c 128,-1,5
 140 39 140 39 123.5 39 c 128,-1,6
 107 39 107 39 90 51 c 128,-1,7
 73 63 73 63 73 80 c 128,-1,0
 73 97 73 97 90 109 c 128,-1,1
90 462 m 128,-1,9
 107 474 107 474 123.5 474 c 128,-1,10
 140 474 140 474 157.5 462 c 128,-1,11
 175 450 175 450 175 433 c 128,-1,12
 175 416 175 416 157.5 404 c 128,-1,13
 140 392 140 392 123.5 392 c 128,-1,14
 107 392 107 392 90 404 c 128,-1,15
 73 416 73 416 73 433 c 128,-1,8
 73 450 73 450 90 462 c 128,-1,9
EndSplineSet
Validated: 1
EndChar

StartChar: semicolon
Encoding: 59 59 28
Width: 251
Flags: W
HStem: 392 82<79.3127 168.502>
VStem: 80 93<-9 93.5 399.922 466.078> 80 47<-33.7803 -10>
LayerCount: 2
Fore
SplineSet
158 111 m 128,-1,1
 173 105 173 105 173 93.5 c 128,-1,2
 173 82 173 82 168 73 c 2,3,-1
 127 -10 l 1,4,5
 117 -34 117 -34 102 -34 c 0,6,7
 80 -34 80 -34 80 -9 c 0,8,9
 80 -5 80 -5 83 7 c 2,10,-1
 107 94 l 2,11,12
 114 117 114 117 132 117 c 0,13,0
 143 117 143 117 158 111 c 128,-1,1
90 462 m 128,-1,15
 107 474 107 474 123.5 474 c 128,-1,16
 140 474 140 474 157.5 462 c 128,-1,17
 175 450 175 450 175 433 c 128,-1,18
 175 416 175 416 157.5 404 c 128,-1,19
 140 392 140 392 123.5 392 c 128,-1,20
 107 392 107 392 90 404 c 128,-1,21
 73 416 73 416 73 433 c 128,-1,14
 73 450 73 450 90 462 c 128,-1,15
EndSplineSet
Validated: 1
EndChar

StartChar: less
Encoding: 60 60 29
Width: 530
Flags: W
LayerCount: 2
Fore
SplineSet
435 574 m 0,0,1
 460 574 460 574 460 551 c 0,2,3
 460 531 460 531 441 523 c 1,4,-1
 110 333 l 1,5,-1
 440 141 l 1,6,7
 460 131 460 131 460 120 c 0,8,9
 460 89 460 89 436 89 c 0,10,11
 426 89 426 89 415 96 c 2,12,-1
 51 306 l 2,13,14
 33 317 33 317 33 332.5 c 128,-1,15
 33 348 33 348 51 358 c 2,16,-1
 415 568 l 1,17,18
 423 574 423 574 435 574 c 0,0,1
EndSplineSet
Validated: 1
EndChar

StartChar: equal
Encoding: 61 61 30
Width: 468
Flags: W
HStem: 254 53<79.1892 388.792> 357 53<79.1892 388.792>
VStem: 79 310<254.932 306.068 357.932 409.068>
LayerCount: 2
Fore
SplineSet
355 410 m 2,0,1
 389 410 389 410 389 383.5 c 128,-1,2
 389 357 389 357 355 357 c 2,3,-1
 110 357 l 2,4,5
 79 357 79 357 79 383.5 c 128,-1,6
 79 410 79 410 110 410 c 2,7,-1
 355 410 l 2,0,1
355 307 m 2,8,9
 389 307 389 307 389 280.5 c 128,-1,10
 389 254 389 254 355 254 c 2,11,-1
 110 254 l 2,12,13
 79 254 79 254 79 280.5 c 128,-1,14
 79 307 79 307 110 307 c 2,15,-1
 355 307 l 2,8,9
EndSplineSet
Validated: 1
EndChar

StartChar: greater
Encoding: 62 62 31
Width: 530
Flags: W
LayerCount: 2
Fore
SplineSet
95 574 m 0,0,1
 107 574 107 574 115 568 c 1,2,-1
 479 358 l 2,3,4
 497 348 497 348 497 332.5 c 128,-1,5
 497 317 497 317 479 306 c 2,6,-1
 115 96 l 2,7,8
 104 89 104 89 93 89 c 128,-1,9
 82 89 82 89 76 99 c 128,-1,10
 70 109 70 109 70 120 c 128,-1,11
 70 131 70 131 90 141 c 1,12,-1
 420 333 l 1,13,-1
 89 523 l 1,14,15
 70 531 70 531 70 552.5 c 128,-1,16
 70 574 70 574 95 574 c 0,0,1
EndSplineSet
Validated: 1
EndChar

StartChar: question
Encoding: 63 63 32
Width: 536
Flags: W
HStem: -12 82<206.313 295.502> 597 52<123.697 406.951>
VStem: 38 53<438.29 564.636> 200 102<-3.1377 61.1377> 225 52<161.201 299> 442 52<408.791 559.493>
LayerCount: 2
Fore
SplineSet
217 58 m 128,-1,1
 234 70 234 70 250.5 70 c 128,-1,2
 267 70 267 70 284.5 58 c 128,-1,3
 302 46 302 46 302 29 c 128,-1,4
 302 12 302 12 284.5 0 c 128,-1,5
 267 -12 267 -12 250.5 -12 c 128,-1,6
 234 -12 234 -12 217 0 c 128,-1,7
 200 12 200 12 200 29 c 128,-1,0
 200 46 200 46 217 58 c 128,-1,1
277 194 m 2,8,9
 277 161 277 161 251 161 c 128,-1,10
 225 161 225 161 225 194 c 2,11,-1
 225 338 l 1,12,-1
 382 381 l 2,13,14
 408 388 408 388 425 416 c 128,-1,15
 442 444 442 444 442 485 c 128,-1,16
 442 526 442 526 418.5 561.5 c 128,-1,17
 395 597 395 597 345 597 c 2,18,-1
 252 597 l 2,19,20
 138 597 138 597 114 566 c 0,21,22
 91 536 91 536 91 476 c 0,23,24
 91 473 91 473 91 471 c 0,25,26
 91 438 91 438 64.5 438 c 128,-1,27
 38 438 38 438 38 482.5 c 128,-1,28
 38 527 38 527 52.5 563.5 c 128,-1,29
 67 600 67 600 98 618 c 0,30,31
 151 649 151 649 252 649 c 2,32,-1
 328 649 l 2,33,34
 416 649 416 649 455 600.5 c 128,-1,35
 494 552 494 552 494 484.5 c 128,-1,36
 494 417 494 417 465.5 380 c 128,-1,37
 437 343 437 343 367 324 c 2,38,-1
 277 299 l 1,39,-1
 277 194 l 2,8,9
EndSplineSet
Validated: 1
EndChar

StartChar: at
Encoding: 64 64 33
Width: 593
Flags: W
HStem: -5 52<195.75 460.105> 184 53<239.037 401.85> 426 52<239.248 363.318> 589 52<195.75 399.25>
VStem: 70 52<127.987 508.013> 175 52<251.86 411.14> 376 52<250.503 411.268> 473 52<60.9269 141.792 278.844 508.575>
LayerCount: 2
Fore
SplineSet
283 -5 m 2,0,1
 186 -5 186 -5 128 60.5 c 128,-1,2
 70 126 70 126 70 241 c 2,3,-1
 70 395 l 2,4,5
 70 510 70 510 128 575.5 c 128,-1,6
 186 641 186 641 283 641 c 2,7,-1
 312 641 l 2,8,9
 409 641 409 641 467 575.5 c 128,-1,10
 525 510 525 510 525 395 c 0,11,12
 525 294 525 294 510 269 c 128,-1,13
 495 244 495 244 478 228 c 0,14,15
 462 212 462 212 438 204 c 0,16,17
 378 184 378 184 306 184 c 0,18,19
 228 185 228 185 201.5 219 c 128,-1,20
 175 253 175 253 175 331.5 c 128,-1,21
 175 410 175 410 201.5 444 c 128,-1,22
 228 478 228 478 301 478 c 128,-1,23
 374 478 374 478 401 444 c 128,-1,24
 428 410 428 410 428 345.5 c 128,-1,25
 428 281 428 281 418 250 c 1,26,27
 450 259 450 259 461.5 287 c 128,-1,28
 473 315 473 315 473 401 c 128,-1,29
 473 487 473 487 432 538 c 128,-1,30
 391 589 391 589 312 589 c 2,31,-1
 283 589 l 2,32,33
 203 589 203 589 162.5 538 c 128,-1,34
 122 487 122 487 122 395 c 2,35,-1
 122 241 l 2,36,37
 122 149 122 149 162.5 98 c 128,-1,38
 203 47 203 47 283 47 c 2,39,-1
 417 47 l 2,40,41
 448 47 448 47 460.5 60.5 c 128,-1,42
 473 74 473 74 473 108 c 128,-1,43
 473 142 473 142 499 142 c 128,-1,44
 525 142 525 142 525 112.5 c 128,-1,45
 525 83 525 83 522 66 c 0,46,47
 518 50 518 50 508 32 c 0,48,49
 487 -5 487 -5 424 -5 c 2,50,-1
 283 -5 l 2,0,1
240 255.5 m 128,-1,52
 253 237 253 237 301.5 237 c 128,-1,53
 350 237 350 237 363 256 c 128,-1,54
 376 275 376 275 376 332 c 128,-1,55
 376 389 376 389 363 407.5 c 128,-1,56
 350 426 350 426 301.5 426 c 128,-1,57
 253 426 253 426 240 407.5 c 128,-1,58
 227 389 227 389 227 331.5 c 128,-1,51
 227 274 227 274 240 255.5 c 128,-1,52
EndSplineSet
Validated: 1
EndChar

StartChar: A
Encoding: 65 65 34
Width: 570
Flags: W
HStem: 199 52<168 402> 616 20G<246.57 323.43>
VStem: 24 53<-15.5056 7> 493 53<-15.5056 7>
AnchorPoint: "bottom" 285 0 basechar 0
AnchorPoint: "top" 284 678 basechar 0
LayerCount: 2
Fore
SplineSet
50 -16 m 0,0,1
 24 -16 24 -16 24 9 c 0,2,3
 24 16 24 16 27 25 c 2,4,-1
 254 636 l 1,5,-1
 316 636 l 1,6,-1
 543 25 l 2,7,8
 546 16 546 16 546 9 c 0,9,10
 546 -16 546 -16 520 -16 c 0,11,12
 503 -16 503 -16 493 7 c 1,13,-1
 422 199 l 1,14,-1
 148 199 l 1,15,-1
 77 7 l 1,16,17
 67 -16 67 -16 50 -16 c 0,0,1
284 560 m 1,18,-1
 168 251 l 1,19,-1
 402 251 l 1,20,-1
 284 560 l 1,18,-1
EndSplineSet
Validated: 1
EndChar

StartChar: B
Encoding: 66 66 35
Width: 605
Flags: W
HStem: 0 52<136 459.542> 332 52<136 422.555> 579 57<136 424.263>
VStem: 84 52<52 332 384 579> 454 52<414.259 550.985> 496 52<87.7676 296.543>
AnchorPoint: "bottom" 279 0 basechar 0
AnchorPoint: "top" 278 678 basechar 0
LayerCount: 2
Fore
SplineSet
136 332 m 1,0,-1
 136 52 l 1,1,-1
 326 52 l 2,2,3
 424 52 424 52 460 74.5 c 128,-1,4
 496 97 496 97 496 178 c 2,5,-1
 496 206 l 2,6,7
 496 287 496 287 461 309.5 c 128,-1,8
 426 332 426 332 332 332 c 2,9,-1
 136 332 l 1,0,-1
457 374 m 1,10,11
 548 340 548 340 548 209 c 2,12,-1
 548 180 l 2,13,14
 548 72 548 72 494.5 36 c 128,-1,15
 441 0 441 0 326 0 c 2,16,-1
 108 0 l 2,17,18
 84 0 84 0 84 36 c 2,19,-1
 84 600 l 2,20,21
 84 636 84 636 108 636 c 2,22,-1
 288 636 l 2,23,24
 399 636 399 636 452.5 605 c 128,-1,25
 506 574 506 574 506 492 c 128,-1,26
 506 410 506 410 457 374 c 1,10,11
288 384 m 2,27,28
 380 384 380 384 417 403 c 128,-1,29
 454 422 454 422 454 483 c 128,-1,30
 454 544 454 544 417.5 561.5 c 128,-1,31
 381 579 381 579 288 579 c 2,32,-1
 136 579 l 1,33,-1
 136 384 l 1,34,-1
 288 384 l 2,27,28
EndSplineSet
Validated: 1
EndChar

StartChar: C
Encoding: 67 67 36
Width: 592
Flags: W
HStem: 0 52<160.538 472.136> 584 52<170.921 471.62>
VStem: 72 52<87.7676 548.232> 484 52<66.4423 146.796 489.208 570.073>
AnchorPoint: "bottom" 322 0 basechar 0
AnchorPoint: "top" 321 678 basechar 0
LayerCount: 2
Fore
SplineSet
436 0 m 2,0,-1
 295 0 l 2,1,2
 179 0 179 0 125.5 36 c 128,-1,3
 72 72 72 72 72 180 c 2,4,-1
 72 456 l 2,5,6
 72 564 72 564 125 600 c 128,-1,7
 178 636 178 636 289 636 c 2,8,-1
 436 636 l 2,9,10
 520 636 520 636 533 565 c 0,11,12
 536 548 536 548 536 518.5 c 128,-1,13
 536 489 536 489 510 489 c 128,-1,14
 484 489 484 489 484 523 c 128,-1,15
 484 557 484 557 472 570.5 c 128,-1,16
 460 584 460 584 429 584 c 2,17,-1
 289 584 l 2,18,19
 199 584 199 584 170 567.5 c 128,-1,20
 141 551 141 551 132.5 525 c 128,-1,21
 124 499 124 499 124 456 c 2,22,-1
 124 180 l 2,23,24
 124 97 124 97 160 74.5 c 128,-1,25
 196 52 196 52 295 52 c 2,26,-1
 429 52 l 2,27,28
 461 52 461 52 472.5 66 c 128,-1,29
 484 80 484 80 484 113.5 c 128,-1,30
 484 147 484 147 510 147 c 128,-1,31
 536 147 536 147 536 117.5 c 128,-1,32
 536 88 536 88 533 71 c 128,-1,33
 530 54 530 54 520 36 c 0,34,35
 500 0 500 0 436 0 c 2,0,-1
EndSplineSet
Validated: 1
EndChar

StartChar: D
Encoding: 68 68 37
Width: 620
Flags: W
HStem: 0 52<136 459.542> 584 52<136 458.703>
VStem: 84 52<52 584> 496 52<87.7676 548.493>
AnchorPoint: "bottom" 289 0 basechar 0
AnchorPoint: "top" 288 678 basechar 0
LayerCount: 2
Fore
SplineSet
548 456 m 2,0,-1
 548 180 l 2,1,2
 548 72 548 72 494.5 36 c 128,-1,3
 441 0 441 0 326 0 c 2,4,-1
 108 0 l 2,5,6
 84 0 84 0 84 36 c 2,7,-1
 84 600 l 2,8,9
 84 636 84 636 108 636 c 2,10,-1
 332 636 l 2,11,12
 437 636 437 636 478 610.5 c 128,-1,13
 519 585 519 585 533.5 548.5 c 128,-1,14
 548 512 548 512 548 456 c 2,0,-1
496 180 m 2,15,-1
 496 456 l 2,16,17
 496 538 496 538 461 561 c 128,-1,18
 426 584 426 584 332 584 c 2,19,-1
 136 584 l 1,20,-1
 136 52 l 1,21,-1
 326 52 l 2,22,23
 424 52 424 52 460 74.5 c 128,-1,24
 496 97 496 97 496 180 c 2,15,-1
EndSplineSet
Validated: 1
EndChar

StartChar: E
Encoding: 69 69 38
Width: 598
Flags: W
HStem: 0 52<136 547.792> 332 52<136 430.78> 584 52<136 547.792>
VStem: 84 52<52 332 384 584>
AnchorPoint: "bottom" 314 0 basechar 0
AnchorPoint: "top" 313 678 basechar 0
LayerCount: 2
Fore
SplineSet
136 332 m 1,0,-1
 136 52 l 1,1,-1
 514 52 l 2,2,3
 548 52 548 52 548 26 c 128,-1,4
 548 0 548 0 514 0 c 2,5,-1
 108 0 l 2,6,7
 84 0 84 0 84 36 c 2,8,-1
 84 600 l 2,9,10
 84 636 84 636 108 636 c 2,11,-1
 514 636 l 2,12,13
 548 636 548 636 548 610 c 128,-1,14
 548 584 548 584 514 584 c 2,15,-1
 136 584 l 1,16,-1
 136 384 l 1,17,-1
 395 384 l 2,18,19
 431 384 431 384 431 358 c 128,-1,20
 431 332 431 332 395 332 c 2,21,-1
 136 332 l 1,0,-1
EndSplineSet
Validated: 1
EndChar

StartChar: F
Encoding: 70 70 39
Width: 577
Flags: W
HStem: -7 21G<97 123> 332 52<136 430.78> 584 52<136 547.792>
VStem: 84 52<-6.78638 332 384 584>
AnchorPoint: "bottom" 274 0 basechar 0
AnchorPoint: "top" 313 678 basechar 0
LayerCount: 2
Fore
SplineSet
136 27 m 2,0,1
 136 -7 136 -7 110 -7 c 128,-1,2
 84 -7 84 -7 84 28 c 2,3,-1
 84 600 l 2,4,5
 84 636 84 636 108 636 c 2,6,-1
 514 636 l 2,7,8
 548 636 548 636 548 610 c 128,-1,9
 548 584 548 584 514 584 c 2,10,-1
 136 584 l 1,11,-1
 136 384 l 1,12,-1
 395 384 l 2,13,14
 431 384 431 384 431 358 c 128,-1,15
 431 332 431 332 395 332 c 2,16,-1
 136 332 l 1,17,-1
 136 27 l 2,0,1
EndSplineSet
Validated: 1
EndChar

StartChar: G
Encoding: 71 71 40
Width: 606
Flags: W
HStem: 0 52<160.295 472.136> 246 52<317.22 484> 584 52<160.538 472.136>
VStem: 72 52<87.1431 547.375> 484 52<65.9266 246 489.204 569.558>
AnchorPoint: "bottom" 302 0 basechar 0
AnchorPoint: "top" 301 678 basechar 0
LayerCount: 2
Fore
SplineSet
484 246 m 1,0,-1
 353 246 l 2,1,2
 317 246 317 246 317 272 c 128,-1,3
 317 298 317 298 353 298 c 2,4,-1
 536 298 l 1,5,-1
 536 109 l 2,6,7
 536 60 536 60 516.5 30 c 128,-1,8
 497 0 497 0 436 0 c 2,9,-1
 289 0 l 2,10,11
 184 0 184 0 142.5 24.5 c 128,-1,12
 101 49 101 49 86.5 85 c 128,-1,13
 72 121 72 121 72 177 c 2,14,-1
 72 459 l 2,15,16
 72 565 72 565 125.5 600.5 c 128,-1,17
 179 636 179 636 295 636 c 2,18,-1
 436 636 l 2,19,20
 520 636 520 636 533 565 c 0,21,22
 536 548 536 548 536 518.5 c 128,-1,23
 536 489 536 489 510 489 c 128,-1,24
 484 489 484 489 484 522.5 c 128,-1,25
 484 556 484 556 472.5 570 c 128,-1,26
 461 584 461 584 429 584 c 2,27,-1
 295 584 l 2,28,29
 196 584 196 584 160 561.5 c 128,-1,30
 124 539 124 539 124 458 c 2,31,-1
 124 178 l 2,32,33
 124 97 124 97 159.5 74.5 c 128,-1,34
 195 52 195 52 289 52 c 2,35,-1
 429 52 l 2,36,37
 461 52 461 52 472.5 65.5 c 128,-1,38
 484 79 484 79 484 112 c 2,39,-1
 484 246 l 1,0,-1
EndSplineSet
Validated: 1
EndChar

StartChar: H
Encoding: 72 72 41
Width: 632
Flags: W
HStem: -7 21G<97 123 509 535> 317 52<136 496> 623 20G<97 123 509 535>
VStem: 84 52<-6.79248 317 369 642.786> 496 52<-6.79248 317 369 642.786>
AnchorPoint: "bottom" 314 0 basechar 0
AnchorPoint: "top" 313 678 basechar 0
LayerCount: 2
Fore
SplineSet
136 27 m 2,0,1
 136 -7 136 -7 110 -7 c 128,-1,2
 84 -7 84 -7 84 27 c 2,3,-1
 84 608 l 2,4,5
 84 643 84 643 110 643 c 128,-1,6
 136 643 136 643 136 608 c 2,7,-1
 136 369 l 1,8,-1
 496 369 l 1,9,-1
 496 608 l 2,10,11
 496 643 496 643 522 643 c 128,-1,12
 548 643 548 643 548 608 c 2,13,-1
 548 27 l 2,14,15
 548 -7 548 -7 522 -7 c 128,-1,16
 496 -7 496 -7 496 27 c 2,17,-1
 496 317 l 1,18,-1
 136 317 l 1,19,-1
 136 27 l 2,0,1
EndSplineSet
Validated: 1
EndChar

StartChar: I
Encoding: 73 73 42
Width: 220
Flags: W
HStem: -7 21G<97 123> 623 20G<97 123>
VStem: 84 52<-6.80469 642.799>
AnchorPoint: "top" 108 678 basechar 0
AnchorPoint: "bottom" 109 0 basechar 0
LayerCount: 2
Fore
SplineSet
136 25 m 2,0,1
 136 -7 136 -7 110 -7 c 128,-1,2
 84 -7 84 -7 84 25 c 2,3,-1
 84 610 l 2,4,5
 84 643 84 643 110 643 c 128,-1,6
 136 643 136 643 136 610 c 2,7,-1
 136 25 l 2,0,1
EndSplineSet
Validated: 1
EndChar

StartChar: J
Encoding: 74 74 43
Width: 550
Flags: W
HStem: -8 52<120.14 380.698> 623 20G<430 456>
VStem: 32 53<78.5 204.799> 417 52<80.0098 642.799>
AnchorPoint: "top" 444 678 basechar 0
AnchorPoint: "bottom" 253 0 basechar 0
LayerCount: 2
Fore
SplineSet
120 66.5 m 128,-1,1
 155 44 155 44 250.5 44 c 128,-1,2
 346 44 346 44 381.5 66.5 c 128,-1,3
 417 89 417 89 417 170 c 2,4,-1
 417 611 l 2,5,6
 417 643 417 643 443 643 c 128,-1,7
 469 643 469 643 469 610 c 2,8,-1
 469 169 l 2,9,10
 469 167 469 167 469 165 c 0,11,12
 469 57 469 57 410 23 c 0,13,14
 357 -8 357 -8 276.5 -8 c 128,-1,15
 196 -8 196 -8 160 -2 c 0,16,17
 123 6 123 6 92 24 c 0,18,19
 32 59 32 59 32 172 c 0,20,21
 32 205 32 205 58.5 205 c 128,-1,22
 85 205 85 205 85 172 c 0,23,0
 85 89 85 89 120 66.5 c 128,-1,1
EndSplineSet
Validated: 1
EndChar

StartChar: K
Encoding: 75 75 44
Width: 518
Flags: W
HStem: -7 21G<97 123 481 491> 623 20G<97 123 413.5 424.5>
VStem: 84 52<-6.80469 258 330 642.799>
AnchorPoint: "top" 268 678 basechar 0
AnchorPoint: "bottom" 284 0 basechar 0
LayerCount: 2
Fore
SplineSet
514 18 m 128,-1,1
 514 8 514 8 505 0.5 c 128,-1,2
 496 -7 496 -7 486 -7 c 128,-1,3
 476 -7 476 -7 463 8 c 2,4,-1
 189 322 l 1,5,-1
 136 258 l 1,6,-1
 136 25 l 2,7,8
 136 -7 136 -7 110 -7 c 128,-1,9
 84 -7 84 -7 84 25 c 2,10,-1
 84 610 l 2,11,12
 84 643 84 643 110 643 c 128,-1,13
 136 643 136 643 136 610 c 2,14,-1
 136 330 l 1,15,-1
 397 628 l 1,16,17
 408 643 408 643 419 643 c 128,-1,18
 430 643 430 643 438 636 c 0,19,20
 447 628 447 628 447 618 c 128,-1,21
 447 608 447 608 437 595 c 1,22,-1
 224 356 l 1,23,-1
 503 41 l 2,24,0
 514 28 514 28 514 18 c 128,-1,1
EndSplineSet
Validated: 1
EndChar

StartChar: L
Encoding: 76 76 45
Width: 516
Flags: W
HStem: 0 52<136 491.799> 623 20G<97 123>
VStem: 84 52<52 642.805>
AnchorPoint: "top" 110 678 basechar 0
AnchorPoint: "bottom" 284 0 basechar 0
LayerCount: 2
Fore
SplineSet
108 0 m 2,0,1
 84 0 84 0 84 35 c 2,2,-1
 84 611 l 2,3,4
 84 643 84 643 110 643 c 128,-1,5
 136 643 136 643 136 611 c 2,6,-1
 136 52 l 1,7,-1
 459 52 l 2,8,9
 492 52 492 52 492 26 c 128,-1,10
 492 0 492 0 459 0 c 2,11,-1
 108 0 l 2,0,1
EndSplineSet
Validated: 1
EndChar

StartChar: M
Encoding: 77 77 46
Width: 653
Flags: W
HStem: -7 21G<97 123 530 556> 623 20G<96 117 536 556.5>
VStem: 84 52<-6.78638 545> 517 52<-6.78638 545>
AnchorPoint: "top" 326 678 basechar 0
AnchorPoint: "bottom" 327 0 basechar 0
LayerCount: 2
Fore
SplineSet
344 287 m 2,0,1
 338 279 338 279 326.5 279 c 128,-1,2
 315 279 315 279 309 287 c 2,3,-1
 136 545 l 1,4,-1
 136 28 l 2,5,6
 136 -7 136 -7 110 -7 c 128,-1,7
 84 -7 84 -7 84 27 c 2,8,-1
 84 608 l 2,9,10
 84 643 84 643 108 643 c 0,11,12
 126 643 126 643 138 624 c 2,13,-1
 326 346 l 1,14,-1
 515 624 l 2,15,16
 528 643 528 643 544 643 c 0,17,18
 569 643 569 643 569 608 c 2,19,-1
 569 27 l 2,20,21
 569 -7 569 -7 543 -7 c 128,-1,22
 517 -7 517 -7 517 28 c 2,23,-1
 517 545 l 1,24,-1
 344 287 l 2,0,1
EndSplineSet
Validated: 1
EndChar

StartChar: N
Encoding: 78 78 47
Width: 632
Flags: W
HStem: -7 21G<97 123 516 535.5> 623 20G<96 117 509 535>
VStem: 84 52<-6.79248 543> 496 52<96 642.78>
AnchorPoint: "top" 313 678 basechar 0
AnchorPoint: "bottom" 314 0 basechar 0
LayerCount: 2
Fore
SplineSet
523 -7 m 0,0,1
 509 -7 509 -7 503 0 c 1,2,-1
 136 543 l 1,3,-1
 136 26 l 2,4,5
 136 -7 136 -7 110 -7 c 128,-1,6
 84 -7 84 -7 84 27 c 2,7,-1
 84 608 l 2,8,9
 84 643 84 643 108 643 c 0,10,11
 126 643 126 643 138 624 c 2,12,-1
 496 96 l 1,13,-1
 496 607 l 2,14,15
 496 643 496 643 522 643 c 128,-1,16
 548 643 548 643 548 608 c 2,17,-1
 548 27 l 2,18,19
 548 -7 548 -7 523 -7 c 0,0,1
EndSplineSet
Validated: 1
EndChar

StartChar: O
Encoding: 79 79 48
Width: 594
Flags: W
HStem: -9 52<199.055 394.945> 593 52<199.055 394.945>
VStem: 65 52<126.434 509.566> 477 52<126.925 509.075>
AnchorPoint: "top" 297 678 basechar 0
AnchorPoint: "bottom" 298 0 basechar 0
LayerCount: 2
Fore
SplineSet
297 -9 m 128,-1,1
 195 -9 195 -9 130 54 c 128,-1,2
 65 117 65 117 65 228 c 2,3,-1
 65 408 l 2,4,5
 65 519 65 519 130 582 c 128,-1,6
 195 645 195 645 297 645 c 128,-1,7
 399 645 399 645 464 581.5 c 128,-1,8
 529 518 529 518 529 408 c 2,9,-1
 529 228 l 2,10,11
 529 118 529 118 464 54.5 c 128,-1,0
 399 -9 399 -9 297 -9 c 128,-1,1
297 593 m 128,-1,13
 211 593 211 593 164 544 c 128,-1,14
 117 495 117 495 117 407 c 2,15,-1
 117 229 l 2,16,17
 117 141 117 141 164 92 c 128,-1,18
 211 43 211 43 297 43 c 128,-1,19
 383 43 383 43 430 92 c 128,-1,20
 477 141 477 141 477 229 c 2,21,-1
 477 407 l 2,22,23
 477 495 477 495 430 544 c 128,-1,12
 383 593 383 593 297 593 c 128,-1,13
EndSplineSet
Validated: 1
EndChar

StartChar: P
Encoding: 80 80 49
Width: 540
Flags: W
HStem: -7 21G<97 123> 327 52<136 420.471> 584 52<136 420.906>
VStem: 84 52<-6.80469 327 379 584> 454 52<409.99 552.611>
AnchorPoint: "top" 288 678 basechar 0
AnchorPoint: "bottom" 289 0 basechar 0
LayerCount: 2
Fore
SplineSet
136 25 m 2,0,1
 136 -7 136 -7 110 -7 c 128,-1,2
 84 -7 84 -7 84 25 c 2,3,-1
 84 600 l 2,4,5
 84 636 84 636 108 636 c 2,6,-1
 289 636 l 2,7,8
 397 636 397 636 451.5 603 c 128,-1,9
 506 570 506 570 506 488 c 0,10,11
 506 327 506 327 333 327 c 2,12,-1
 136 327 l 1,13,-1
 136 25 l 2,0,1
289 379 m 2,14,15
 381 379 381 379 417.5 399 c 128,-1,16
 454 419 454 419 454 482 c 128,-1,17
 454 545 454 545 417 564.5 c 128,-1,18
 380 584 380 584 289 584 c 2,19,-1
 136 584 l 1,20,-1
 136 379 l 1,21,-1
 289 379 l 2,14,15
EndSplineSet
Validated: 1
EndChar

StartChar: Q
Encoding: 81 81 50
Width: 594
Flags: W
HStem: -9 52<198.923 395.336> 593 52<199.055 394.945>
VStem: 65 52<126.434 509.566> 477 52<125.856 509.075>
AnchorPoint: "bottom" 298 0 basechar 0
AnchorPoint: "top" 297 678 basechar 0
LayerCount: 2
Fore
SplineSet
297 593 m 128,-1,1
 211 593 211 593 164 544 c 128,-1,2
 117 495 117 495 117 407 c 2,3,-1
 117 229 l 2,4,5
 117 141 117 141 164 92 c 128,-1,6
 211 43 211 43 288 43 c 128,-1,7
 365 43 365 43 406 72 c 1,8,-1
 350 124 l 2,9,10
 337 135 337 135 337 146 c 128,-1,11
 337 157 337 157 344.5 165 c 128,-1,12
 352 173 352 173 363.5 173 c 128,-1,13
 375 173 375 173 389 160 c 2,14,-1
 443 107 l 1,15,16
 477 153 477 153 477 229 c 2,17,-1
 477 407 l 2,18,19
 477 495 477 495 430 544 c 128,-1,0
 383 593 383 593 297 593 c 128,-1,1
443 34 m 1,20,21
 383 -9 383 -9 289 -9 c 128,-1,22
 195 -9 195 -9 130 54 c 128,-1,23
 65 117 65 117 65 228 c 2,24,-1
 65 408 l 2,25,26
 65 519 65 519 130 582 c 128,-1,27
 195 645 195 645 297 645 c 128,-1,28
 399 645 399 645 464 581.5 c 128,-1,29
 529 518 529 518 529 408 c 2,30,-1
 529 228 l 2,31,32
 529 131 529 131 480 71 c 1,33,-1
 515 37 l 1,34,35
 526 24 526 24 526 14 c 128,-1,36
 526 4 526 4 519 -4 c 128,-1,37
 512 -12 512 -12 500.5 -12 c 128,-1,38
 489 -12 489 -12 478 -1 c 2,39,-1
 443 34 l 1,20,21
EndSplineSet
Validated: 1
EndChar

StartChar: R
Encoding: 82 82 51
Width: 569
Flags: W
HStem: -7 21G<97 123 475 501> 322 52<136 346.992> 579 57<136 420.844>
VStem: 84 52<-6.80469 322 374 579> 454 52<25.355 141.203 405.902 548.063> 462 52<-6.80469 118.75>
AnchorPoint: "bottom" 289 0 basechar 0
AnchorPoint: "top" 288 678 basechar 0
LayerCount: 2
Fore
SplineSet
288 374 m 2,0,1
 381 374 381 374 417.5 394 c 128,-1,2
 454 414 454 414 454 477 c 128,-1,3
 454 540 454 540 417 559.5 c 128,-1,4
 380 579 380 579 288 579 c 2,5,-1
 136 579 l 1,6,-1
 136 374 l 1,7,-1
 288 374 l 2,0,1
514 25 m 0,8,9
 514 -7 514 -7 488 -7 c 128,-1,10
 462 -7 462 -7 462 25 c 0,11,12
 462 38 462 38 448 91 c 128,-1,13
 434 144 434 144 400 217 c 128,-1,14
 366 290 366 290 324 322 c 1,15,-1
 136 322 l 1,16,-1
 136 25 l 2,17,18
 136 -7 136 -7 110 -7 c 128,-1,19
 84 -7 84 -7 84 25 c 2,20,-1
 84 600 l 2,21,22
 84 636 84 636 108 636 c 2,23,-1
 288 636 l 2,24,25
 397 636 397 636 451.5 603 c 128,-1,26
 506 570 506 570 506 481 c 0,27,28
 506 356 506 356 389 332 c 1,29,30
 422 300 422 300 453 225 c 128,-1,31
 484 150 484 150 499 93 c 128,-1,32
 514 36 514 36 514 25 c 0,8,9
EndSplineSet
Validated: 1
EndChar

StartChar: S
Encoding: 83 83 52
Width: 599
Flags: W
HStem: -8 52<150.775 449.153> 592 52<150.244 449.356>
VStem: 61 52<80.3702 204.799 405.784 553.284> 485 52<81.1703 239.112 433.201 557.87>
AnchorPoint: "bottom" 306 0 basechar 0
AnchorPoint: "top" 305 678 basechar 0
LayerCount: 2
Fore
SplineSet
137.5 557 m 128,-1,1
 113 522 113 522 113 481.5 c 128,-1,2
 113 441 113 441 130.5 412.5 c 128,-1,3
 148 384 148 384 173 379 c 2,4,-1
 410 328 l 1,5,6
 537 300 537 300 537 156 c 0,7,8
 537 89 537 89 497.5 40.5 c 128,-1,9
 458 -8 458 -8 367 -8 c 2,10,-1
 284 -8 l 2,11,12
 175 -8 175 -8 132.5 17 c 128,-1,13
 90 42 90 42 75.5 78.5 c 128,-1,14
 61 115 61 115 61 172 c 0,15,16
 61 205 61 205 87.5 205 c 128,-1,17
 114 205 114 205 114 172 c 0,18,19
 114 89 114 89 149.5 66.5 c 128,-1,20
 185 44 185 44 284 44 c 2,21,-1
 386 44 l 2,22,23
 439 44 439 44 462 80 c 128,-1,24
 485 116 485 116 485 161 c 128,-1,25
 485 206 485 206 465.5 236.5 c 128,-1,26
 446 267 446 267 425 272 c 2,27,-1
 190 324 l 2,28,29
 120 339 120 339 90.5 376.5 c 128,-1,30
 61 414 61 414 61 481.5 c 128,-1,31
 61 549 61 549 102 596.5 c 128,-1,32
 143 644 143 644 238 644 c 2,33,-1
 314 644 l 2,34,35
 421 644 421 644 464.5 619.5 c 128,-1,36
 508 595 508 595 522.5 559 c 128,-1,37
 537 523 537 523 537 466 c 0,38,39
 537 433 537 433 510.5 433 c 128,-1,40
 484 433 484 433 484 466 c 0,41,42
 484 549 484 549 449 570.5 c 128,-1,43
 414 592 414 592 314 592 c 2,44,-1
 216 592 l 2,45,0
 162 592 162 592 137.5 557 c 128,-1,1
EndSplineSet
Validated: 1
EndChar

StartChar: T
Encoding: 84 84 53
Width: 481
Flags: W
HStem: -7 21G<228 255.5> 584 52<27.2014 214 269 453.799>
VStem: 214 55<-6.61719 584>
AnchorPoint: "bottom" 240 0 basechar 0
AnchorPoint: "top" 239 678 basechar 0
LayerCount: 2
Fore
SplineSet
421 636 m 2,0,1
 454 636 454 636 454 610 c 128,-1,2
 454 584 454 584 421 584 c 2,3,-1
 269 584 l 1,4,-1
 269 25 l 2,5,6
 269 24 269 24 269 23 c 0,7,8
 269 -7 269 -7 242 -7 c 0,9,10
 214 -7 214 -7 214 25 c 2,11,-1
 214 584 l 1,12,-1
 60 584 l 2,13,14
 27 584 27 584 27 610 c 128,-1,15
 27 636 27 636 60 636 c 2,16,-1
 421 636 l 2,0,1
EndSplineSet
Validated: 1
EndChar

StartChar: U
Encoding: 85 85 54
Width: 620
Flags: W
HStem: -9 52<212.055 407.945> 623 20G<91 117 503 529>
VStem: 78 52<126.434 642.799> 490 52<126.925 642.799>
AnchorPoint: "bottom" 310 0 basechar 0
AnchorPoint: "top" 309 678 basechar 0
LayerCount: 2
Fore
SplineSet
490 611 m 2,0,1
 490 643 490 643 516 643 c 128,-1,2
 542 643 542 643 542 610 c 2,3,-1
 542 228 l 2,4,5
 542 118 542 118 477 54.5 c 128,-1,6
 412 -9 412 -9 310 -9 c 128,-1,7
 208 -9 208 -9 143 54 c 128,-1,8
 78 117 78 117 78 228 c 2,9,-1
 78 610 l 2,10,11
 78 643 78 643 104 643 c 128,-1,12
 130 643 130 643 130 611 c 2,13,-1
 130 229 l 2,14,15
 130 141 130 141 177 92 c 128,-1,16
 224 43 224 43 310 43 c 128,-1,17
 396 43 396 43 443 92 c 128,-1,18
 490 141 490 141 490 229 c 2,19,-1
 490 611 l 2,0,1
EndSplineSet
Validated: 1
EndChar

StartChar: V
Encoding: 86 86 55
Width: 570
Flags: W
HStem: 0 21G<246.57 323.43>
VStem: 24 53<629 651.506> 493 53<629 651.506>
AnchorPoint: "bottom" 285 0 basechar 0
AnchorPoint: "top" 284 678 basechar 0
LayerCount: 2
Fore
SplineSet
24 627 m 0,0,1
 24 652 24 652 50 652 c 0,2,3
 67 652 67 652 77 629 c 1,4,-1
 286 76 l 1,5,-1
 493 629 l 1,6,7
 503 652 503 652 520 652 c 0,8,9
 546 652 546 652 546 627 c 0,10,11
 546 620 546 620 543 611 c 2,12,-1
 316 0 l 1,13,-1
 254 0 l 1,14,-1
 27 611 l 2,15,16
 24 620 24 620 24 627 c 0,0,1
EndSplineSet
Validated: 1
EndChar

StartChar: W
Encoding: 87 87 56
Width: 915
Flags: W
HStem: 0 21G<217.734 287.365 627.599 698.275>
AnchorPoint: "top" 459 678 basechar 0
AnchorPoint: "bottom" 460 0 basechar 0
LayerCount: 2
Fore
SplineSet
664 72 m 1,0,-1
 836 627 l 1,1,2
 844 649 844 649 866 649 c 128,-1,3
 888 649 888 649 888 630 c 0,4,5
 888 624 888 624 884 612 c 2,6,-1
 692 0 l 1,7,-1
 634 0 l 1,8,-1
 457 553 l 1,9,-1
 281 0 l 1,10,-1
 224 0 l 1,11,-1
 31 616 l 2,12,13
 27 628 27 628 27 634 c 0,14,15
 27 653 27 653 49 653 c 128,-1,16
 71 653 71 653 79 631 c 1,17,-1
 253 72 l 1,18,-1
 428 626 l 2,19,20
 436 652 436 652 458 652 c 128,-1,21
 480 652 480 652 488 626 c 2,22,-1
 664 72 l 1,0,-1
EndSplineSet
Validated: 1
EndChar

StartChar: X
Encoding: 88 88 57
Width: 559
Flags: W
HStem: -7 21G<57.75 69.25 489.5 500.5> 623 20G<59 69 491 509.5>
AnchorPoint: "top" 277 678 basechar 0
AnchorPoint: "bottom" 278 0 basechar 0
LayerCount: 2
Fore
SplineSet
472 625 m 2,0,1
 486 643 486 643 496 643 c 0,2,3
 523 643 523 643 523 619 c 0,4,5
 523 618 523 618 523 617 c 0,6,7
 523 605 523 605 515 596 c 1,8,-1
 312 317 l 1,9,-1
 515 39 l 2,10,11
 523 28 523 28 523 17 c 128,-1,12
 523 6 523 6 514.5 -0.5 c 128,-1,13
 506 -7 506 -7 495 -7 c 128,-1,14
 484 -7 484 -7 472 9 c 2,15,-1
 279 277 l 1,16,-1
 87 9 l 2,17,18
 75 -7 75 -7 63.5 -7 c 128,-1,19
 52 -7 52 -7 44 0 c 128,-1,20
 36 7 36 7 36 17.5 c 128,-1,21
 36 28 36 28 44 39 c 2,22,-1
 247 317 l 1,23,-1
 44 596 l 1,24,25
 36 605 36 605 36 618 c 128,-1,26
 36 631 36 631 45 637 c 128,-1,27
 54 643 54 643 64 643 c 128,-1,28
 74 643 74 643 87 625 c 2,29,-1
 279 358 l 1,30,-1
 472 625 l 2,0,1
EndSplineSet
Validated: 1
EndChar

StartChar: Y
Encoding: 89 89 58
Width: 521
Flags: W
HStem: -7 21G<247 273> 623 20G<38 48 471 481>
VStem: 234 53<-6.72754 308>
AnchorPoint: "top" 259 678 basechar 0
AnchorPoint: "bottom" 260 0 basechar 0
LayerCount: 2
Fore
SplineSet
234 308 m 1,0,-1
 25 597 l 2,1,2
 17 609 17 609 17 619 c 128,-1,3
 17 629 17 629 25 636 c 128,-1,4
 33 643 33 643 43 643 c 128,-1,5
 53 643 53 643 67 625 c 2,6,-1
 260 358 l 1,7,-1
 452 625 l 2,8,9
 466 643 466 643 476 643 c 128,-1,10
 486 643 486 643 494.5 635.5 c 128,-1,11
 503 628 503 628 503 618 c 128,-1,12
 503 608 503 608 495 597 c 2,13,-1
 287 308 l 1,14,-1
 287 24 l 2,15,16
 286 -7 286 -7 260 -7 c 128,-1,17
 234 -7 234 -7 234 24 c 2,18,-1
 234 308 l 1,0,-1
EndSplineSet
Validated: 1
EndChar

StartChar: Z
Encoding: 90 90 59
Width: 555
Flags: W
HStem: 0 52<110 508.786> 594 52<45.2197 447>
AnchorPoint: "top" 277 678 basechar 0
AnchorPoint: "bottom" 278 0 basechar 0
LayerCount: 2
Fore
SplineSet
46 0 m 1,0,-1
 46 51 l 1,1,-1
 447 594 l 1,2,-1
 81 594 l 2,3,4
 45 594 45 594 45 620 c 128,-1,5
 45 646 45 646 81 646 c 2,6,-1
 509 646 l 1,7,-1
 509 593 l 1,8,-1
 110 52 l 1,9,-1
 474 52 l 2,10,11
 509 52 509 52 509 26 c 128,-1,12
 509 0 509 0 474 0 c 2,13,-1
 46 0 l 1,0,-1
EndSplineSet
Validated: 1
EndChar

StartChar: bracketleft
Encoding: 91 91 60
Width: 255
Flags: W
HStem: -47 52<132 210> 631 52<132 210>
VStem: 80 130<-47 5 631 683> 80 52<5 631>
LayerCount: 2
Fore
SplineSet
132 631 m 1,0,-1
 132 5 l 1,1,-1
 210 5 l 1,2,-1
 210 -47 l 1,3,-1
 80 -47 l 1,4,-1
 80 683 l 1,5,-1
 210 683 l 1,6,-1
 210 631 l 1,7,-1
 132 631 l 1,0,-1
EndSplineSet
Validated: 1
EndChar

StartChar: backslash
Encoding: 92 92 61
Width: 359
Flags: W
VStem: 43 52<627 649.713> 264 52<-12.7891 10>
LayerCount: 2
Fore
SplineSet
43 626 m 0,0,1
 43 650 43 650 69 650 c 0,2,3
 87 650 87 650 95 627 c 2,4,-1
 313 29 l 1,5,6
 316 17 316 17 316 11 c 0,7,8
 316 -13 316 -13 289 -13 c 0,9,10
 272 -13 272 -13 264 10 c 2,11,-1
 46 608 l 2,12,13
 43 618 43 618 43 626 c 0,0,1
EndSplineSet
Validated: 1
EndChar

StartChar: bracketright
Encoding: 93 93 62
Width: 255
Flags: W
HStem: -47 52<45 123> 631 52<45 123>
VStem: 45 130<-47 5 631 683> 123 52<5 631>
LayerCount: 2
Fore
SplineSet
123 5 m 1,0,-1
 123 631 l 1,1,-1
 45 631 l 1,2,-1
 45 683 l 1,3,-1
 175 683 l 1,4,-1
 175 -47 l 1,5,-1
 45 -47 l 1,6,-1
 45 5 l 1,7,-1
 123 5 l 1,0,-1
EndSplineSet
Validated: 1
EndChar

StartChar: asciicircum
Encoding: 94 94 63
Width: 443
Flags: W
HStem: 360 281
VStem: 80 52<361.263 381> 311 52<361.263 381>
LayerCount: 2
Fore
SplineSet
132 381 m 1,0,1
 121 360 121 360 100.5 360 c 128,-1,2
 80 360 80 360 80 383 c 0,3,4
 80 387 80 387 82 395 c 1,5,-1
 192 641 l 1,6,-1
 252 641 l 1,7,-1
 361 395 l 2,8,9
 363 391 363 391 363 383 c 0,10,11
 363 360 363 360 342.5 360 c 128,-1,12
 322 360 322 360 311 381 c 1,13,-1
 222 581 l 1,14,-1
 132 381 l 1,0,1
EndSplineSet
Validated: 1
EndChar

StartChar: underscore
Encoding: 95 95 64
Width: 475
Flags: W
HStem: -47 52<-4.79858 479.799>
LayerCount: 2
Fore
SplineSet
28 -47 m 2,0,1
 -5 -47 -5 -47 -5 -21 c 128,-1,2
 -5 5 -5 5 28 5 c 2,3,-1
 447 5 l 2,4,5
 480 5 480 5 480 -21 c 128,-1,6
 480 -47 480 -47 447 -47 c 2,7,-1
 28 -47 l 2,0,1
EndSplineSet
Validated: 1
EndChar

StartChar: grave
Encoding: 96 96 65
Width: 212
Flags: W
HStem: 505 178
VStem: 29 155
LayerCount: 2
Fore
SplineSet
37 675.5 m 128,-1,1
 45 683 45 683 55.5 683 c 128,-1,2
 66 683 66 683 79 668 c 2,3,-1
 175 553 l 2,4,5
 184 542 184 542 184 530.5 c 128,-1,6
 184 519 184 519 176 512 c 128,-1,7
 168 505 168 505 158 505 c 128,-1,8
 148 505 148 505 134 520 c 1,9,-1
 38 635 l 2,10,11
 29 646 29 646 29 657 c 128,-1,0
 29 668 29 668 37 675.5 c 128,-1,1
EndSplineSet
Validated: 1
EndChar

StartChar: a
Encoding: 97 97 66
Width: 554
Flags: W
HStem: 0 52<129.532 356.787> 243 52<160.468 430> 409 52<131.921 418.136>
VStem: 60 52<69.8738 208.188 314.214 387.062> 430 52<-6.78638 63 124.23 243 295 395.589>
AnchorPoint: "top" 277 510 basechar 0
AnchorPoint: "bottom" 252 0 basechar 0
LayerCount: 2
Fore
SplineSet
260 52 m 2,0,1
 430 52 430 52 430 228 c 2,2,-1
 430 243 l 1,3,-1
 283 243 l 2,4,5
 190 243 190 243 159.5 227 c 128,-1,6
 129 211 129 211 120.5 186 c 128,-1,7
 112 161 112 161 112 126.5 c 128,-1,8
 112 92 112 92 129 72 c 128,-1,9
 146 52 146 52 167 52 c 2,10,-1
 260 52 l 2,0,1
60 349 m 0,11,12
 60 461 60 461 227 461 c 2,13,-1
 382 461 l 2,14,15
 440 461 440 461 461 433 c 128,-1,16
 482 405 482 405 482 335 c 2,17,-1
 482 27 l 2,18,19
 482 -7 482 -7 456 -7 c 128,-1,20
 430 -7 430 -7 430 28 c 2,21,-1
 430 63 l 1,22,23
 373 0 373 0 260 0 c 2,24,-1
 167 0 l 2,25,26
 120 0 120 0 90 33.5 c 128,-1,27
 60 67 60 67 60 123 c 0,28,29
 60 224 60 224 114.5 259.5 c 128,-1,30
 169 295 169 295 283 295 c 2,31,-1
 430 295 l 1,32,-1
 430 352 l 2,33,34
 430 383 430 383 418.5 396 c 128,-1,35
 407 409 407 409 375 409 c 2,36,-1
 234 409 l 2,37,38
 112 409 112 409 112 349 c 0,39,40
 112 314 112 314 86 314 c 128,-1,41
 60 314 60 314 60 349 c 0,11,12
EndSplineSet
Validated: 1
EndChar

StartChar: b
Encoding: 98 98 67
Width: 611
Flags: W
HStem: 0 52<200.644 449.047> 409 52<200.644 460.542> 623 20G<88 114>
VStem: 75 52<-6.78638 63 124.23 336.359 398 642.78> 497 52<86.25 372.625>
AnchorPoint: "top" 327 510 basechar 0
AnchorPoint: "bottom" 317 0 basechar 0
LayerCount: 2
Fore
SplineSet
127 398 m 1,0,1
 186 461 186 461 298 461 c 2,2,-1
 327 461 l 2,3,4
 442 461 442 461 495.5 425.5 c 128,-1,5
 549 390 549 390 549 285 c 2,6,-1
 549 176 l 2,7,8
 549 71 549 71 495.5 35.5 c 128,-1,9
 442 0 442 0 327 0 c 2,10,-1
 298 0 l 2,11,12
 186 0 186 0 127 63 c 1,13,-1
 127 28 l 2,14,15
 127 -7 127 -7 101 -7 c 128,-1,16
 75 -7 75 -7 75 27 c 2,17,-1
 75 607 l 2,18,19
 75 643 75 643 101 643 c 128,-1,20
 127 643 127 643 127 607 c 2,21,-1
 127 398 l 1,0,1
298 409 m 2,22,23
 127 409 127 409 127 232 c 2,24,-1
 127 228 l 2,25,26
 127 52 127 52 298 52 c 2,27,-1
 327 52 l 2,28,29
 420 52 420 52 450 68 c 128,-1,30
 480 84 480 84 488.5 109 c 128,-1,31
 497 134 497 134 497 177 c 2,32,-1
 497 284 l 2,33,34
 496 368 496 368 456 390 c 0,35,36
 421 409 421 409 336 409 c 0,37,38
 332 409 332 409 327 409 c 2,39,-1
 298 409 l 2,22,23
EndSplineSet
Validated: 1
EndChar

StartChar: c
Encoding: 99 99 68
Width: 584
Flags: W
HStem: 0 52<151.246 462.136> 409 52<162.468 461.62>
VStem: 62 52<88.375 372.625> 474 52<66.4423 146.796 314.208 395.073>
AnchorPoint: "top" 304 510 basechar 0
AnchorPoint: "bottom" 304 0 basechar 0
LayerCount: 2
Fore
SplineSet
426 0 m 2,0,-1
 285 0 l 2,1,2
 170 0 170 0 116 35.5 c 128,-1,3
 62 71 62 71 62 176 c 2,4,-1
 62 285 l 2,5,6
 62 390 62 390 116 425.5 c 128,-1,7
 170 461 170 461 285 461 c 2,8,-1
 426 461 l 2,9,10
 510 461 510 461 523 389 c 0,11,12
 526 372 526 372 526 343 c 128,-1,13
 526 314 526 314 500 314 c 128,-1,14
 474 314 474 314 474 348 c 128,-1,15
 474 382 474 382 462 395.5 c 128,-1,16
 450 409 450 409 419 409 c 2,17,-1
 285 409 l 2,18,19
 192 409 192 409 161.5 393 c 128,-1,20
 131 377 131 377 122.5 352 c 128,-1,21
 114 327 114 327 114 284 c 2,22,-1
 114 177 l 2,23,24
 114 94 114 94 155 72 c 0,25,26
 192 52 192 52 285 52 c 2,27,-1
 419 52 l 2,28,29
 451 52 451 52 462.5 66 c 128,-1,30
 474 80 474 80 474 113.5 c 128,-1,31
 474 147 474 147 500 147 c 128,-1,32
 526 147 526 147 526 117.5 c 128,-1,33
 526 88 526 88 523 71 c 128,-1,34
 520 54 520 54 510 36 c 0,35,36
 490 0 490 0 426 0 c 2,0,-1
EndSplineSet
Validated: 1
EndChar

StartChar: d
Encoding: 100 100 69
Width: 611
Flags: W
HStem: 0 52<150.458 410.356> 409 52<161.953 484> 623 20G<497 523>
VStem: 62 52<88.375 374.75> 484 52<-6.78638 63 124.23 409 461 642.78>
AnchorPoint: "top" 284 510 basechar 0
AnchorPoint: "bottom" 294 0 basechar 0
LayerCount: 2
Fore
SplineSet
484 461 m 1,0,-1
 484 607 l 2,1,2
 484 643 484 643 510 643 c 128,-1,3
 536 643 536 643 536 607 c 2,4,-1
 536 27 l 2,5,6
 536 -7 536 -7 510 -7 c 128,-1,7
 484 -7 484 -7 484 28 c 2,8,-1
 484 63 l 1,9,10
 425 0 425 0 313 0 c 2,11,-1
 284 0 l 2,12,13
 169 0 169 0 115.5 35.5 c 128,-1,14
 62 71 62 71 62 176 c 2,15,-1
 62 285 l 2,16,17
 62 390 62 390 115.5 425.5 c 128,-1,18
 169 461 169 461 284 461 c 2,19,-1
 484 461 l 1,0,-1
484 409 m 1,20,-1
 284 409 l 2,21,22
 191 409 191 409 161 393 c 128,-1,23
 131 377 131 377 122.5 352 c 128,-1,24
 114 327 114 327 114 284 c 2,25,-1
 114 177 l 2,26,27
 114 94 114 94 154 72 c 0,28,29
 191 52 191 52 284 52 c 2,30,-1
 313 52 l 2,31,32
 484 52 484 52 484 228 c 2,33,-1
 484 409 l 1,20,-1
EndSplineSet
Validated: 1
EndChar

StartChar: e
Encoding: 101 101 70
Width: 592
Flags: W
HStem: 0 52<151.246 462.136> 245 52<114 484> 409 52<149.253 448.747>
VStem: 62 52<88.375 245 297 374.803> 474 52<66.4423 146.796> 484 52<297 374.803>
AnchorPoint: "top" 304 510 basechar 0
AnchorPoint: "bottom" 304 0 basechar 0
LayerCount: 2
Fore
SplineSet
536 285 m 2,0,-1
 536 245 l 1,1,-1
 114 245 l 1,2,-1
 114 177 l 2,3,4
 114 94 114 94 155 72 c 0,5,6
 192 52 192 52 285 52 c 2,7,-1
 419 52 l 2,8,9
 451 52 451 52 462.5 66 c 128,-1,10
 474 80 474 80 474 113.5 c 128,-1,11
 474 147 474 147 500 147 c 128,-1,12
 526 147 526 147 526 117.5 c 128,-1,13
 526 88 526 88 523 71 c 128,-1,14
 520 54 520 54 510 36 c 0,15,16
 491 0 491 0 429 -0 c 0,17,18
 427 0 427 0 426 0 c 2,19,-1
 285 0 l 2,20,21
 170 0 170 0 116 35.5 c 128,-1,22
 62 71 62 71 62 176 c 2,23,-1
 62 285 l 2,24,25
 62 390 62 390 116 425.5 c 128,-1,26
 170 461 170 461 285 461 c 2,27,-1
 314 461 l 2,28,29
 429 461 429 461 482.5 425.5 c 128,-1,30
 536 390 536 390 536 285 c 2,0,-1
314 409 m 2,31,-1
 285 409 l 2,32,33
 188 409 188 409 151.5 388.5 c 128,-1,34
 115 368 115 368 114 297 c 1,35,-1
 484 297 l 1,36,37
 483 368 483 368 446.5 388.5 c 128,-1,38
 410 409 410 409 314 409 c 2,31,-1
EndSplineSet
Validated: 1
EndChar

StartChar: f
Encoding: 102 102 71
Width: 323
Flags: W
HStem: -7 21G<93 119> 409 52<132 305.78> 584 52<167.75 327.731>
VStem: 80 52<-6.78638 409 461 549.966>
AnchorPoint: "top" 276 678 basechar 0
AnchorPoint: "bottom" 105 0 basechar 0
LayerCount: 2
Fore
SplineSet
284 636 m 0,0,1
 328 636 328 636 328 610 c 0,2,3
 329 609 l 0,4,5
 329 608 l 0,6,7
 329 584 329 584 288 584 c 0,8,9
 246 584 246 584 220 580 c 0,10,11
 194 577 194 577 172 565 c 0,12,13
 132 543 132 543 132 461 c 1,14,-1
 270 461 l 2,15,16
 306 461 306 461 306 435 c 128,-1,17
 306 409 306 409 270 409 c 2,18,-1
 132 409 l 1,19,-1
 132 28 l 2,20,21
 132 -7 132 -7 106 -7 c 128,-1,22
 80 -7 80 -7 80 28 c 2,23,-1
 80 410 l 1,24,25
 49 412 49 412 49 435.5 c 128,-1,26
 49 459 49 459 80 461 c 1,27,28
 82 571 82 571 140 606 c 0,29,30
 190 636 190 636 284 636 c 0,0,1
EndSplineSet
Validated: 1
EndChar

StartChar: g
Encoding: 103 103 72
Width: 611
Flags: W
HStem: -205 52<126.38 475.229> 0 52<150.458 484> 409 52<161.953 410.356>
VStem: 62 52<-139.073 -58.2075 88.375 374.75> 484 52<-142.683 0 52 336.77 398 467.786>
AnchorPoint: "bottom" 294 0 basechar 0
AnchorPoint: "top" 294 510 basechar 0
LayerCount: 2
Fore
SplineSet
536 -87 m 2,0,1
 536 -152 536 -152 517 -178.5 c 128,-1,2
 498 -205 498 -205 445 -205 c 2,3,-1
 162 -205 l 2,4,5
 78 -205 78 -205 65 -133 c 0,6,7
 62 -116 62 -116 62 -87 c 128,-1,8
 62 -58 62 -58 88 -58 c 128,-1,9
 114 -58 114 -58 114 -92 c 128,-1,10
 114 -126 114 -126 126 -139.5 c 128,-1,11
 138 -153 138 -153 169 -153 c 2,12,-1
 438 -153 l 2,13,14
 467 -153 467 -153 475.5 -143 c 128,-1,15
 484 -133 484 -133 484 -103 c 2,16,-1
 484 0 l 1,17,-1
 284 0 l 2,18,19
 169 0 169 0 115.5 35.5 c 128,-1,20
 62 71 62 71 62 176 c 2,21,-1
 62 285 l 2,22,23
 62 390 62 390 115.5 425.5 c 128,-1,24
 169 461 169 461 284 461 c 2,25,-1
 313 461 l 2,26,27
 425 461 425 461 484 398 c 1,28,-1
 484 433 l 2,29,30
 484 468 484 468 510 468 c 128,-1,31
 536 468 536 468 536 434 c 2,32,-1
 536 -87 l 2,0,1
484 52 m 1,33,-1
 484 233 l 2,34,35
 484 409 484 409 313 409 c 2,36,-1
 284 409 l 2,37,38
 191 409 191 409 161 393 c 128,-1,39
 131 377 131 377 122.5 352 c 128,-1,40
 114 327 114 327 114 284 c 2,41,-1
 114 177 l 2,42,43
 114 94 114 94 154 72 c 0,44,45
 191 52 191 52 284 52 c 2,46,-1
 484 52 l 1,33,-1
EndSplineSet
Validated: 1
EndChar

StartChar: h
Encoding: 104 104 73
Width: 619
Flags: W
HStem: -7 21G<88 114 510 536> 409 52<200.644 460.542> 623 20G<88 114>
VStem: 75 52<-6.79248 335.949 398 642.78> 497 52<-6.79248 372.625>
AnchorPoint: "bottom" 302 0 basechar 0
AnchorPoint: "top" 317 510 basechar 0
LayerCount: 2
Fore
SplineSet
298 409 m 2,0,1
 127 409 127 409 127 231 c 2,2,-1
 127 27 l 2,3,4
 127 -7 127 -7 101 -7 c 128,-1,5
 75 -7 75 -7 75 27 c 2,6,-1
 75 607 l 2,7,8
 75 643 75 643 101 643 c 128,-1,9
 127 643 127 643 127 607 c 2,10,-1
 127 398 l 1,11,12
 186 461 186 461 298 461 c 2,13,-1
 327 461 l 2,14,15
 442 461 442 461 495.5 425.5 c 128,-1,16
 549 390 549 390 549 285 c 2,17,-1
 549 27 l 2,18,19
 549 -7 549 -7 523 -7 c 128,-1,20
 497 -7 497 -7 497 27 c 2,21,-1
 497 284 l 2,22,23
 496 368 496 368 456 390 c 0,24,25
 421 409 421 409 336 409 c 0,26,27
 332 409 332 409 327 409 c 2,28,-1
 298 409 l 2,0,1
EndSplineSet
Validated: 1
EndChar

StartChar: i
Encoding: 105 105 74
Width: 200
Flags: W
HStem: 453 20G<87 113> 560 82<55.3127 144.502>
VStem: 49 102<568.862 633.138> 74 52<-11.8047 472.799>
AnchorPoint: "bottom" 100 0 basechar 0
AnchorPoint: "top" 100 678 basechar 0
LayerCount: 2
Fore
SplineSet
126 20 m 2,0,1
 126 -12 126 -12 100 -12 c 128,-1,2
 74 -12 74 -12 74 20 c 2,3,-1
 74 440 l 2,4,5
 74 473 74 473 100 473 c 128,-1,6
 126 473 126 473 126 440 c 2,7,-1
 126 20 l 2,0,1
66 630 m 128,-1,9
 83 642 83 642 99.5 642 c 128,-1,10
 116 642 116 642 133.5 630 c 128,-1,11
 151 618 151 618 151 601 c 128,-1,12
 151 584 151 584 133.5 572 c 128,-1,13
 116 560 116 560 99.5 560 c 128,-1,14
 83 560 83 560 66 572 c 128,-1,15
 49 584 49 584 49 601 c 128,-1,8
 49 618 49 618 66 630 c 128,-1,9
EndSplineSet
Validated: 1
EndChar

StartChar: j
Encoding: 106 106 75
Width: 202
Flags: W
HStem: -175 52<-121.78 40.4931> 448 20G<88 114> 560 82<54.3127 143.502>
VStem: 48 102<568.862 633.138> 75 52<-88.2725 467.78>
AnchorPoint: "top" 99 678 basechar 0
AnchorPoint: "bottom" 99 -175 basechar 0
LayerCount: 2
Fore
SplineSet
65 630 m 128,-1,1
 82 642 82 642 98.5 642 c 128,-1,2
 115 642 115 642 132.5 630 c 128,-1,3
 150 618 150 618 150 601 c 128,-1,4
 150 584 150 584 132.5 572 c 128,-1,5
 115 560 115 560 98.5 560 c 128,-1,6
 82 560 82 560 65 572 c 128,-1,7
 48 584 48 584 48 601 c 128,-1,0
 48 618 48 618 65 630 c 128,-1,1
127 0 m 2,8,9
 127 -2 127 -2 127 -4 c 0,10,11
 127 -111 127 -111 68 -145 c 0,12,13
 17 -175 17 -175 -86 -175 c 0,14,15
 -122 -175 -122 -175 -122 -149 c 128,-1,16
 -122 -123 -122 -123 -86 -123 c 0,17,18
 6 -123 6 -123 40.5 -101 c 128,-1,19
 75 -79 75 -79 75 0 c 2,20,-1
 75 432 l 2,21,22
 75 468 75 468 101 468 c 128,-1,23
 127 468 127 468 127 432 c 2,24,-1
 127 0 l 2,8,9
EndSplineSet
Validated: 1
EndChar

StartChar: k
Encoding: 107 107 76
Width: 454
Flags: W
HStem: -7 22G<88 114 412.25 422.75> 446 20G<339 349> 623 20G<88 114>
VStem: 75 52<-6.80469 206 269 642.799>
AnchorPoint: "top" 262 510 basechar 0
AnchorPoint: "bottom" 262 0 basechar 0
LayerCount: 2
Fore
SplineSet
431 43 m 1,0,1
 442 30 442 30 442 20 c 128,-1,2
 442 10 442 10 435 2 c 128,-1,3
 428 -6 428 -6 417.5 -6 c 128,-1,4
 407 -6 407 -6 393 6 c 1,5,-1
 156 235 l 1,6,-1
 127 206 l 1,7,-1
 127 25 l 2,8,9
 127 -7 127 -7 101 -7 c 128,-1,10
 75 -7 75 -7 75 24 c 2,11,-1
 75 610 l 2,12,13
 75 643 75 643 101 643 c 128,-1,14
 127 643 127 643 127 610 c 2,15,-1
 127 269 l 1,16,-1
 321 454 l 2,17,18
 334 466 334 466 344 466 c 128,-1,19
 354 466 354 466 362 458.5 c 128,-1,20
 370 451 370 451 370 440 c 128,-1,21
 370 429 370 429 358 417 c 2,22,-1
 192 265 l 1,23,-1
 431 43 l 1,0,1
EndSplineSet
Validated: 1
EndChar

StartChar: l
Encoding: 108 108 77
Width: 271
Flags: W
HStem: 0 52<154.318 231.786> 623 20G<103 129>
VStem: 90 52<65.4109 642.786>
AnchorPoint: "top" 117 678 basechar 0
AnchorPoint: "bottom" 177 0 basechar 0
LayerCount: 2
Fore
SplineSet
197 0 m 2,0,-1
 190 0 l 2,1,2
 132 0 132 0 111 28.5 c 128,-1,3
 90 57 90 57 90 127 c 2,4,-1
 90 608 l 2,5,6
 90 643 90 643 116 643 c 128,-1,7
 142 643 142 643 142 608 c 2,8,-1
 142 110 l 2,9,10
 142 78 142 78 154 65 c 0,11,12
 164 52 164 52 198 52 c 128,-1,13
 232 52 232 52 232 26 c 128,-1,14
 232 0 232 0 197 0 c 2,0,-1
EndSplineSet
Validated: 1
EndChar

StartChar: m
Encoding: 109 109 78
Width: 830
Flags: W
HStem: -7 21G<87 113 403 429 720 746> 409 52<184.888 361.814 501.432 679.562>
VStem: 74 52<-6.79248 342.902 398 467.78> 390 52<-6.79248 342.902> 707 52<-6.79248 380.484>
AnchorPoint: "top" 418 510 basechar 0
AnchorPoint: "bottom" 418 0 basechar 0
LayerCount: 2
Fore
SplineSet
362.5 387 m 128,-1,1
 335 409 335 409 265 409 c 0,2,3
 126 409 126 409 126 231 c 2,4,-1
 126 27 l 2,5,6
 126 -7 126 -7 100 -7 c 128,-1,7
 74 -7 74 -7 74 27 c 2,8,-1
 74 433 l 2,9,10
 74 468 74 468 100 468 c 128,-1,11
 126 468 126 468 126 432 c 2,12,-1
 126 398 l 1,13,14
 154 432 154 432 183 446.5 c 128,-1,15
 212 461 212 461 268 461 c 0,16,17
 395 461 395 461 428 381 c 1,18,19
 479 461 479 461 573 461 c 128,-1,20
 667 461 667 461 713 425 c 128,-1,21
 759 389 759 389 759 285 c 2,22,-1
 759 27 l 2,23,24
 759 -7 759 -7 733 -7 c 128,-1,25
 707 -7 707 -7 707 27 c 2,26,-1
 707 284 l 2,27,28
 707 368 707 368 676 390 c 0,29,30
 649 409 649 409 586 409 c 0,31,32
 583 409 583 409 580 409 c 0,33,34
 442 409 442 409 442 231 c 2,35,-1
 442 27 l 2,36,37
 442 -7 442 -7 416 -7 c 128,-1,38
 390 -7 390 -7 390 27 c 2,39,-1
 390 284 l 2,40,0
 390 365 390 365 362.5 387 c 128,-1,1
EndSplineSet
Validated: 1
EndChar

StartChar: n
Encoding: 110 110 79
Width: 617
Flags: W
HStem: -7 21G<87 113 509 535> 409 52<199.644 459.542>
VStem: 74 52<-6.79248 335.949 398 467.78> 496 52<-6.79248 374.803>
AnchorPoint: "bottom" 306 0 basechar 0
AnchorPoint: "top" 311 510 basechar 0
LayerCount: 2
Fore
SplineSet
297 409 m 2,0,1
 126 409 126 409 126 231 c 2,2,-1
 126 27 l 2,3,4
 126 -7 126 -7 100 -7 c 128,-1,5
 74 -7 74 -7 74 27 c 2,6,-1
 74 433 l 2,7,8
 74 468 74 468 100 468 c 128,-1,9
 126 468 126 468 126 432 c 2,10,-1
 126 398 l 1,11,12
 185 461 185 461 297 461 c 2,13,-1
 326 461 l 2,14,15
 441 461 441 461 494.5 425.5 c 128,-1,16
 548 390 548 390 548 285 c 2,17,-1
 548 27 l 2,18,19
 548 -7 548 -7 522 -7 c 128,-1,20
 496 -7 496 -7 496 27 c 2,21,-1
 496 284 l 2,22,23
 496 368 496 368 456 390 c 0,24,25
 421 409 421 409 335 409 c 0,26,27
 331 409 331 409 326 409 c 2,28,-1
 297 409 l 2,0,1
EndSplineSet
Validated: 1
EndChar

StartChar: o
Encoding: 111 111 80
Width: 598
Flags: W
HStem: 0 52<151.246 436.047> 409 52<162.468 447.542>
VStem: 62 52<88.375 372.625> 484 52<86.25 374.803>
AnchorPoint: "bottom" 296 0 basechar 0
AnchorPoint: "top" 296 510 basechar 0
LayerCount: 2
Fore
SplineSet
314 0 m 2,0,-1
 285 0 l 2,1,2
 170 0 170 0 116 35.5 c 128,-1,3
 62 71 62 71 62 176 c 2,4,-1
 62 285 l 2,5,6
 62 390 62 390 116 425.5 c 128,-1,7
 170 461 170 461 285 461 c 2,8,-1
 314 461 l 2,9,10
 429 461 429 461 482.5 425.5 c 128,-1,11
 536 390 536 390 536 285 c 2,12,-1
 536 176 l 2,13,14
 536 71 536 71 482.5 35.5 c 128,-1,15
 429 0 429 0 314 0 c 2,0,-1
285 52 m 2,16,-1
 314 52 l 2,17,18
 407 52 407 52 437 68 c 128,-1,19
 467 84 467 84 475.5 109 c 128,-1,20
 484 134 484 134 484 177 c 2,21,-1
 484 284 l 2,22,23
 484 368 484 368 444 390 c 0,24,25
 409 409 409 409 323 409 c 0,26,27
 319 409 319 409 314 409 c 2,28,-1
 285 409 l 2,29,30
 192 409 192 409 161.5 393 c 128,-1,31
 131 377 131 377 122.5 352 c 128,-1,32
 114 327 114 327 114 284 c 2,33,-1
 114 177 l 2,34,35
 114 94 114 94 155 72 c 0,36,37
 192 52 192 52 285 52 c 2,16,-1
EndSplineSet
Validated: 1
EndChar

StartChar: p
Encoding: 112 112 81
Width: 611
Flags: W
HStem: -182 21G<88 114> 0 52<127 460.621> 409 52<200.644 460.542>
VStem: 75 52<-181.786 0 52 336.359 398 467.786> 497 52<86.4482 372.625>
AnchorPoint: "top" 309 510 basechar 0
AnchorPoint: "bottom" 309 0 basechar 0
LayerCount: 2
Fore
SplineSet
497 284 m 2,0,1
 496 368 496 368 456 390 c 0,2,3
 421 409 421 409 336 409 c 0,4,5
 332 409 332 409 327 409 c 2,6,-1
 298 409 l 2,7,8
 127 409 127 409 127 232 c 2,9,-1
 127 52 l 1,10,-1
 328 52 l 2,11,12
 426 52 426 52 461.5 74 c 128,-1,13
 497 96 497 96 497 177 c 2,14,-1
 497 284 l 2,0,1
549 176 m 2,15,16
 549 71 549 71 495.5 35.5 c 128,-1,17
 442 0 442 0 328 0 c 2,18,-1
 127 0 l 1,19,-1
 127 -147 l 2,20,21
 127 -182 127 -182 101 -182 c 128,-1,22
 75 -182 75 -182 75 -147 c 2,23,-1
 75 434 l 2,24,25
 75 468 75 468 101 468 c 128,-1,26
 127 468 127 468 127 433 c 2,27,-1
 127 398 l 1,28,29
 186 461 186 461 298 461 c 2,30,-1
 327 461 l 2,31,32
 442 461 442 461 495.5 425.5 c 128,-1,33
 549 390 549 390 549 285 c 2,34,-1
 549 176 l 2,15,16
EndSplineSet
Validated: 1
EndChar

StartChar: q
Encoding: 113 113 82
Width: 611
Flags: W
HStem: -182 21G<497 523> 0 52<150.458 484> 409 52<162.468 410.787>
VStem: 62 52<88.375 372.625> 484 52<-181.786 0 52 336.359 398 467.786>
AnchorPoint: "top" 281 510 basechar 0
AnchorPoint: "bottom" 281 0 basechar 0
LayerCount: 2
Fore
SplineSet
114 284 m 2,0,-1
 114 177 l 2,1,2
 114 94 114 94 154 72 c 0,3,4
 191 52 191 52 284 52 c 2,5,-1
 484 52 l 1,6,-1
 484 232 l 2,7,8
 484 409 484 409 314 409 c 2,9,-1
 285 409 l 2,10,11
 192 409 192 409 161.5 393 c 128,-1,12
 131 377 131 377 122.5 352 c 128,-1,13
 114 327 114 327 114 284 c 2,0,-1
62 176 m 2,14,-1
 62 285 l 2,15,16
 62 390 62 390 116 425.5 c 128,-1,17
 170 461 170 461 285 461 c 2,18,-1
 314 461 l 2,19,20
 427 461 427 461 484 398 c 1,21,-1
 484 433 l 2,22,23
 484 468 484 468 510 468 c 128,-1,24
 536 468 536 468 536 434 c 2,25,-1
 536 -147 l 2,26,27
 536 -182 536 -182 510 -182 c 128,-1,28
 484 -182 484 -182 484 -147 c 2,29,-1
 484 0 l 1,30,-1
 284 0 l 2,31,32
 169 0 169 0 115.5 35.5 c 128,-1,33
 62 71 62 71 62 176 c 2,14,-1
EndSplineSet
Validated: 1
EndChar

StartChar: r
Encoding: 114 114 83
Width: 383
Flags: W
HStem: -7 21G<87 113> 409 52<197.002 367.786>
VStem: 74 52<-6.79248 335.74 398 467.78>
AnchorPoint: "top" 258 510 basechar 0
AnchorPoint: "bottom" 208 0 basechar 0
LayerCount: 2
Fore
SplineSet
287 409 m 2,0,1
 209 409 209 409 167.5 363 c 128,-1,2
 126 317 126 317 126 231 c 2,3,-1
 126 27 l 2,4,5
 126 -7 126 -7 100 -7 c 128,-1,6
 74 -7 74 -7 74 27 c 2,7,-1
 74 433 l 2,8,9
 74 468 74 468 100 468 c 128,-1,10
 126 468 126 468 126 432 c 2,11,-1
 126 398 l 1,12,13
 185 461 185 461 287 461 c 2,14,-1
 333 461 l 2,15,16
 368 461 368 461 368 435 c 128,-1,17
 368 409 368 409 333 409 c 2,18,-1
 287 409 l 2,0,1
EndSplineSet
Validated: 1
EndChar

StartChar: s
Encoding: 115 115 84
Width: 586
Flags: W
HStem: 0 52<123.864 461.727> 210 52<129.018 454> 409 52<123.779 459.62>
VStem: 60 52<66.4423 146.796 279.894 398.319> 474 52<63.1213 188.752 314.453 395.073>
AnchorPoint: "top" 294 510 basechar 0
AnchorPoint: "bottom" 284 0 basechar 0
LayerCount: 2
Fore
SplineSet
398 262 m 2,0,1
 526 262 526 262 526 126 c 0,2,3
 526 64 526 64 494.5 32 c 128,-1,4
 463 0 463 0 388 0 c 2,5,-1
 160 0 l 2,6,7
 76 0 76 0 63 71 c 0,8,9
 60 88 60 88 60 117.5 c 128,-1,10
 60 147 60 147 86 147 c 128,-1,11
 112 147 112 147 112 113.5 c 128,-1,12
 112 80 112 80 123.5 66 c 128,-1,13
 135 52 135 52 167 52 c 2,14,-1
 415 52 l 2,15,16
 474 52 474 52 474 126 c 0,17,18
 474 163 474 163 457.5 186.5 c 128,-1,19
 441 210 441 210 415 210 c 2,20,-1
 189 210 l 2,21,22
 60 210 60 210 60 340 c 0,23,24
 60 400 60 400 91 430.5 c 128,-1,25
 122 461 122 461 199 461 c 2,26,-1
 424 461 l 2,27,28
 508 461 508 461 521 389 c 0,29,30
 524 372 524 372 524 343 c 128,-1,31
 524 314 524 314 498 314 c 128,-1,32
 472 314 472 314 472 348 c 128,-1,33
 472 382 472 382 460 395.5 c 128,-1,34
 448 409 448 409 417 409 c 2,35,-1
 171 409 l 2,36,37
 112 409 112 409 112 340 c 0,38,39
 112 302 112 302 128.5 282 c 128,-1,40
 145 262 145 262 171 262 c 2,41,-1
 398 262 l 2,0,1
EndSplineSet
Validated: 1
EndChar

StartChar: t
Encoding: 116 116 85
Width: 344
Flags: W
HStem: 0 52<164.507 325.786> 409 52<130 303.78>
VStem: 78 52<85.3718 409 461 600.78>
AnchorPoint: "bottom" 252 0 basechar 0
AnchorPoint: "top" 215 510 basechar 0
LayerCount: 2
Fore
SplineSet
130 177 m 2,0,1
 130 96 130 96 164.5 74 c 128,-1,2
 199 52 199 52 291 52 c 0,3,4
 326 52 326 52 326 26 c 128,-1,5
 326 0 326 0 291 0 c 0,6,7
 183 0 183 0 130.5 36 c 128,-1,8
 78 72 78 72 78 176 c 2,9,-1
 78 410 l 1,10,11
 47 412 47 412 47 436 c 128,-1,12
 47 460 47 460 78 461 c 1,13,-1
 78 565 l 2,14,15
 78 601 78 601 104 601 c 128,-1,16
 130 601 130 601 130 565 c 2,17,-1
 130 461 l 1,18,-1
 268 461 l 2,19,20
 304 461 304 461 304 435 c 128,-1,21
 304 409 304 409 268 409 c 2,22,-1
 130 409 l 1,23,-1
 130 177 l 2,0,1
EndSplineSet
Validated: 1
EndChar

StartChar: u
Encoding: 117 117 86
Width: 618
Flags: W
HStem: 0 52<158.458 418.356> 448 20G<83 109 505 531>
VStem: 70 52<88.375 467.792> 492 52<-6.78027 63 125.051 467.792>
AnchorPoint: "top" 304 510 basechar 0
AnchorPoint: "bottom" 304 0 basechar 0
LayerCount: 2
Fore
SplineSet
321 52 m 2,0,1
 492 52 492 52 492 230 c 2,2,-1
 492 434 l 2,3,4
 492 468 492 468 518 468 c 128,-1,5
 544 468 544 468 544 434 c 2,6,-1
 544 28 l 2,7,8
 544 -7 544 -7 518 -7 c 128,-1,9
 492 -7 492 -7 492 29 c 2,10,-1
 492 63 l 1,11,12
 433 0 433 0 321 0 c 2,13,-1
 292 0 l 2,14,15
 177 0 177 0 123.5 35.5 c 128,-1,16
 70 71 70 71 70 176 c 2,17,-1
 70 434 l 2,18,19
 70 468 70 468 96 468 c 128,-1,20
 122 468 122 468 122 434 c 2,21,-1
 122 177 l 2,22,23
 122 94 122 94 162 72 c 0,24,25
 199 52 199 52 292 52 c 2,26,-1
 321 52 l 2,0,1
EndSplineSet
Validated: 1
EndChar

StartChar: v
Encoding: 118 118 87
Width: 509
Flags: W
HStem: 0 21G<203.743 294.807> 453 20G<40 61 449 471>
AnchorPoint: "top" 252 510 basechar 0
AnchorPoint: "bottom" 252 0 basechar 0
LayerCount: 2
Fore
SplineSet
212 0 m 1,0,-1
 32 436 l 2,1,2
 28 445 28 445 28 452 c 0,3,4
 28 473 28 473 52 473 c 0,5,6
 70 473 70 473 80 451 c 2,7,-1
 252 51 l 1,8,-1
 430 452 l 2,9,10
 438 473 438 473 460 473 c 128,-1,11
 482 473 482 473 482 453 c 0,12,13
 482 445 482 445 478 436 c 2,14,-1
 286 0 l 1,15,-1
 212 0 l 1,0,-1
EndSplineSet
Validated: 1
EndChar

StartChar: w
Encoding: 119 119 88
Width: 792
Flags: W
HStem: 0 21G<174.303 267.326 517.209 610.11> 453 20G<42 64 388 408 729 751>
AnchorPoint: "top" 397 510 basechar 0
AnchorPoint: "bottom" 397 0 basechar 0
LayerCount: 2
Fore
SplineSet
758 436 m 2,0,-1
 603 0 l 1,1,-1
 524 0 l 1,2,-1
 397 374 l 1,3,-1
 260 0 l 1,4,-1
 181 0 l 1,5,-1
 35 436 l 2,6,7
 31 448 31 448 31 454 c 0,8,9
 31 473 31 473 53 473 c 128,-1,10
 75 473 75 473 83 451 c 2,11,-1
 223 48 l 1,12,-1
 369 446 l 2,13,14
 378 467 378 467 398 467 c 128,-1,15
 418 467 418 467 425 446 c 2,16,-1
 565 48 l 1,17,-1
 710 451 l 2,18,19
 718 473 718 473 740 473 c 128,-1,20
 762 473 762 473 762 454 c 0,21,22
 762 448 762 448 758 436 c 2,0,-1
EndSplineSet
Validated: 1
EndChar

StartChar: x
Encoding: 120 120 89
Width: 512
Flags: W
HStem: 452 20G<61 71 440.25 450.75>
AnchorPoint: "top" 257 510 basechar 0
AnchorPoint: "bottom" 257 0 basechar 0
LayerCount: 2
Fore
SplineSet
462 36 m 1,0,1
 472 21 472 21 472 11.5 c 128,-1,2
 472 2 472 2 464 -4.5 c 128,-1,3
 456 -11 456 -11 445.5 -11 c 128,-1,4
 435 -11 435 -11 423 1 c 1,5,-1
 257 194 l 1,6,-1
 90 1 l 1,7,8
 76 -11 76 -11 66 -11 c 128,-1,9
 56 -11 56 -11 48 -4.5 c 128,-1,10
 40 2 40 2 40 9 c 128,-1,11
 40 16 40 16 50 36 c 1,12,-1
 221 230 l 1,13,-1
 50 425 l 2,14,15
 40 437 40 437 40 447.5 c 128,-1,16
 40 458 40 458 48 465 c 128,-1,17
 56 472 56 472 66 472 c 128,-1,18
 76 472 76 472 90 460 c 1,19,-1
 257 267 l 1,20,-1
 423 460 l 1,21,22
 435 472 435 472 445.5 472 c 128,-1,23
 456 472 456 472 464 465 c 128,-1,24
 472 458 472 458 472 447.5 c 128,-1,25
 472 437 472 437 462 425 c 2,26,-1
 291 230 l 1,27,-1
 462 36 l 1,0,1
EndSplineSet
Validated: 1
EndChar

StartChar: y
Encoding: 121 121 90
Width: 619
Flags: W
HStem: -205 52<134.38 483.229> 0 52<158.458 418.356> 448 20G<83 109 505 531>
VStem: 70 52<-139.073 -58.2075 88.375 467.792> 492 52<-142.683 63 125.051 467.792>
AnchorPoint: "top" 307 510 basechar 0
AnchorPoint: "bottom" 307 0 basechar 0
LayerCount: 2
Fore
SplineSet
321 52 m 2,0,1
 492 52 492 52 492 230 c 2,2,-1
 492 434 l 2,3,4
 492 468 492 468 518 468 c 128,-1,5
 544 468 544 468 544 434 c 2,6,-1
 544 -87 l 2,7,8
 544 -152 544 -152 525 -178.5 c 128,-1,9
 506 -205 506 -205 453 -205 c 2,10,-1
 170 -205 l 2,11,12
 86 -205 86 -205 73 -133 c 0,13,14
 70 -116 70 -116 70 -87 c 128,-1,15
 70 -58 70 -58 96 -58 c 128,-1,16
 122 -58 122 -58 122 -92 c 128,-1,17
 122 -126 122 -126 134 -139.5 c 128,-1,18
 146 -153 146 -153 177 -153 c 2,19,-1
 446 -153 l 2,20,21
 475 -153 475 -153 483.5 -143 c 128,-1,22
 492 -133 492 -133 492 -103 c 2,23,-1
 492 63 l 1,24,25
 433 0 433 0 321 0 c 2,26,-1
 292 0 l 2,27,28
 177 0 177 0 123.5 35.5 c 128,-1,29
 70 71 70 71 70 176 c 2,30,-1
 70 434 l 2,31,32
 70 468 70 468 96 468 c 128,-1,33
 122 468 122 468 122 434 c 2,34,-1
 122 177 l 2,35,36
 122 94 122 94 162 72 c 0,37,38
 199 52 199 52 292 52 c 2,39,-1
 321 52 l 2,0,1
EndSplineSet
Validated: 1
EndChar

StartChar: z
Encoding: 122 122 91
Width: 552
Flags: W
HStem: 0 52<126 438.681> 409 52<121.319 416>
VStem: 59 52<296.232 390.402> 449 52<70.5674 163.734>
AnchorPoint: "top" 278 510 basechar 0
AnchorPoint: "bottom" 278 0 basechar 0
LayerCount: 2
Fore
SplineSet
126 52 m 1,0,-1
 393 52 l 2,1,2
 429 52 429 52 439 70 c 128,-1,3
 449 88 449 88 449 126 c 128,-1,4
 449 164 449 164 475 164 c 0,5,6
 476 165 l 0,7,8
 501 165 501 165 501 129 c 0,9,10
 501 59 501 59 480 29.5 c 128,-1,11
 459 0 459 0 401 0 c 2,12,-1
 59 0 l 1,13,-1
 59 64 l 1,14,-1
 416 409 l 1,15,-1
 166 409 l 2,16,17
 131 409 131 409 121 391 c 0,18,19
 111 372 111 372 111 334 c 128,-1,20
 111 296 111 296 85 296 c 128,-1,21
 59 296 59 296 59 332 c 0,22,23
 59 403 59 403 80 432 c 128,-1,24
 101 461 101 461 159 461 c 2,25,-1
 480 461 l 1,26,-1
 480 394 l 1,27,-1
 126 52 l 1,0,-1
EndSplineSet
Validated: 1
EndChar

StartChar: braceleft
Encoding: 123 123 92
Width: 262
Flags: W
HStem: -47 52<147.901 213> 631 52<148.416 213>
VStem: 83 52<18.331 194.811 440.27 617.427> 111 52<143.096 277.125 358.63 493.007>
LayerCount: 2
Fore
SplineSet
163 236 m 0,0,1
 163 210 163 210 149 164 c 128,-1,2
 135 118 135 118 135 78 c 128,-1,3
 135 38 135 38 147.5 21.5 c 128,-1,4
 160 5 160 5 213 5 c 1,5,-1
 213 -47 l 1,6,7
 143 -47 143 -47 113 -17 c 128,-1,8
 83 13 83 13 83 108 c 0,9,10
 83 127 83 127 97 173 c 0,11,12
 111 218 111 218 111 238 c 128,-1,13
 111 258 111 258 85 280.5 c 128,-1,14
 59 303 59 303 38 313 c 1,15,-1
 38 321 l 1,16,17
 59 332 59 332 85 355 c 128,-1,18
 111 378 111 378 111 398 c 128,-1,19
 111 418 111 418 97 463.5 c 128,-1,20
 83 509 83 509 83 528 c 0,21,22
 83 623 83 623 113 653 c 128,-1,23
 143 683 143 683 213 683 c 1,24,-1
 213 631 l 1,25,26
 161 631 161 631 148 614 c 0,27,28
 135 598 135 598 135 558 c 128,-1,29
 135 518 135 518 149 472 c 128,-1,30
 163 426 163 426 163 393 c 128,-1,31
 163 360 163 360 92 317 c 1,32,33
 163 278 163 278 163 236 c 0,0,1
EndSplineSet
Validated: 1
EndChar

StartChar: bar
Encoding: 124 124 93
Width: 214
Flags: W
HStem: -7 21G<94 120> 623 20G<94 120>
VStem: 81 52<-6.80469 642.799>
LayerCount: 2
Fore
SplineSet
133 25 m 2,0,1
 133 -7 133 -7 107 -7 c 128,-1,2
 81 -7 81 -7 81 25 c 2,3,-1
 81 610 l 2,4,5
 81 643 81 643 107 643 c 128,-1,6
 133 643 133 643 133 610 c 2,7,-1
 133 25 l 2,0,1
EndSplineSet
Validated: 1
EndChar

StartChar: braceright
Encoding: 125 125 94
Width: 262
Flags: W
HStem: -47 52<49 114.099> 631 52<49 113.584>
VStem: 99 52<142.993 277.125 358.63 492.904> 127 52<18.331 194.676 440.141 617.669>
LayerCount: 2
Fore
SplineSet
99 236 m 0,0,1
 99 278 99 278 170 317 c 1,2,3
 99 360 99 360 99 393 c 128,-1,4
 99 426 99 426 113 472 c 128,-1,5
 127 518 127 518 127 558 c 128,-1,6
 127 598 127 598 114 614.5 c 128,-1,7
 101 631 101 631 49 631 c 1,8,-1
 49 683 l 1,9,10
 119 683 119 683 149 653 c 128,-1,11
 179 623 179 623 179 528 c 0,12,13
 179 509 179 509 165 463 c 0,14,15
 151 418 151 418 151 398 c 128,-1,16
 151 378 151 378 177 355 c 128,-1,17
 203 332 203 332 224 321 c 1,18,-1
 224 313 l 1,19,20
 203 303 203 303 177 280.5 c 128,-1,21
 151 258 151 258 151 238 c 128,-1,22
 151 218 151 218 165 172.5 c 128,-1,23
 179 127 179 127 179 108 c 0,24,25
 179 13 179 13 149 -17 c 128,-1,26
 119 -47 119 -47 49 -47 c 1,27,-1
 49 5 l 1,28,29
 102 5 102 5 114.5 21.5 c 128,-1,30
 127 38 127 38 127 78 c 128,-1,31
 127 118 127 118 113 164 c 128,-1,32
 99 210 99 210 99 236 c 0,0,1
EndSplineSet
Validated: 1
EndChar

StartChar: asciitilde
Encoding: 126 126 95
Width: 425
Flags: W
HStem: 180 54<266 294.203> 218 56<128.844 163>
VStem: 71 282<218.297 233.531>
LayerCount: 2
Fore
SplineSet
150 274 m 1,0,-1
 163 272 l 1,1,-1
 261 236 l 1,2,-1
 266 234 l 1,3,4
 269 234 269 234 274 238 c 2,5,-1
 305 266 l 1,6,7
 318 275 318 275 327 275 c 0,8,9
 353 275 353 275 353 252 c 0,10,11
 353 238 353 238 339 225 c 1,12,-1
 292 186 l 1,13,14
 284 178 284 178 278 178 c 2,15,-1
 269 178 l 1,16,17
 267 180 267 180 262 180 c 2,18,-1
 261 180 l 1,19,-1
 163 216 l 1,20,21
 161 218 161 218 157.5 218 c 128,-1,22
 154 218 154 218 149 214 c 2,23,-1
 118 186 l 1,24,25
 105 177 105 177 96 177 c 128,-1,26
 87 177 87 177 79 183.5 c 128,-1,27
 71 190 71 190 71 203 c 128,-1,28
 71 216 71 216 85 227 c 2,29,-1
 131 265 l 1,30,31
 138 274 138 274 150 274 c 1,0,-1
EndSplineSet
Validated: 1
EndChar

StartChar: exclamdown
Encoding: 161 161 96
Width: 230
Flags: W
HStem: 409 82<69.4984 159.502>
VStem: 63 103<417.862 482.138> 89 52<-169.805 314.799>
LayerCount: 2
Fore
SplineSet
141 -138 m 2,0,1
 141 -170 141 -170 115 -170 c 128,-1,2
 89 -170 89 -170 89 -138 c 2,3,-1
 89 282 l 2,4,5
 89 315 89 315 115 315 c 128,-1,6
 141 315 141 315 141 282 c 2,7,-1
 141 -138 l 2,0,1
80.5 479 m 128,-1,9
 98 491 98 491 115 491 c 128,-1,10
 132 491 132 491 149 479 c 128,-1,11
 166 467 166 467 166 450 c 128,-1,12
 166 433 166 433 148.5 421 c 128,-1,13
 131 409 131 409 114.5 409 c 128,-1,14
 98 409 98 409 80.5 421 c 128,-1,15
 63 433 63 433 63 450 c 128,-1,8
 63 467 63 467 80.5 479 c 128,-1,9
EndSplineSet
Validated: 1
EndChar

StartChar: cent
Encoding: 162 162 97
Width: 478
Flags: W
HStem: 118 52<136.077 218 270 356.105> 468 52<139.182 218 270 357.136> 628 20G<231 257>
VStem: 49 52<203.774 431.294> 218 52<-11.8047 118 171 467 520 647.799> 369 52<183.411 264.789 373.211 454.589>
LayerCount: 2
Fore
SplineSet
270 20 m 2,0,1
 270 -12 270 -12 244 -12 c 128,-1,2
 218 -12 218 -12 218 20 c 2,3,-1
 218 118 l 1,4,5
 133 123 133 123 91 162 c 128,-1,6
 49 201 49 201 49 298 c 2,7,-1
 49 340 l 2,8,9
 49 435 49 435 92 474.5 c 128,-1,10
 135 514 135 514 218 519 c 1,11,-1
 218 615 l 2,12,13
 218 648 218 648 244 648 c 128,-1,14
 270 648 270 648 270 615 c 2,15,-1
 270 520 l 1,16,-1
 322 520 l 2,17,18
 405 520 405 520 418 450 c 0,19,20
 421 434 421 434 421 403.5 c 128,-1,21
 421 373 421 373 395 373 c 128,-1,22
 369 373 369 373 369 407.5 c 128,-1,23
 369 442 369 442 357.5 455 c 128,-1,24
 346 468 346 468 315 468 c 2,25,-1
 270 468 l 1,26,-1
 270 170 l 1,27,-1
 313 170 l 2,28,29
 344 170 344 170 356.5 183 c 128,-1,30
 369 196 369 196 369 230.5 c 128,-1,31
 369 265 369 265 395 265 c 128,-1,32
 421 265 421 265 421 235.5 c 128,-1,33
 421 206 421 206 417.5 189 c 128,-1,34
 414 172 414 172 404 154 c 0,35,36
 385 118 385 118 323 118 c 0,37,38
 321 118 321 118 320 118 c 2,39,-1
 270 118 l 1,40,-1
 270 20 l 2,0,1
218 171 m 1,41,-1
 218 467 l 1,42,43
 155 464 155 464 128 437.5 c 128,-1,44
 101 411 101 411 101 340 c 2,45,-1
 101 298 l 2,46,47
 101 225 101 225 127 199.5 c 128,-1,48
 153 174 153 174 218 171 c 1,41,-1
EndSplineSet
Validated: 1
EndChar

StartChar: sterling
Encoding: 163 163 98
Width: 501
Flags: W
HStem: -5 52<119 442.799> 317 52<147 212.805> 596 52<196.312 369.862>
VStem: 389 52<468.201 576.703>
LayerCount: 2
Fore
SplineSet
65 23 m 0,0,1
 65 29 65 29 66 32 c 2,2,-1
 104 468 l 2,3,4
 114 581 114 581 170 617 c 0,5,6
 217 648 217 648 288 648 c 128,-1,7
 359 648 359 648 400 617.5 c 128,-1,8
 441 587 441 587 441 501 c 0,9,10
 441 468 441 468 415 468 c 128,-1,11
 389 468 389 468 389 501 c 0,12,13
 389 562 389 562 364 579 c 128,-1,14
 339 596 339 596 282 596 c 128,-1,15
 225 596 225 596 194 572 c 128,-1,16
 163 548 163 548 156 468 c 2,17,-1
 147 369 l 1,18,-1
 181 369 l 2,19,20
 213 369 213 369 213 343 c 128,-1,21
 213 317 213 317 181 317 c 2,22,-1
 143 317 l 1,23,-1
 119 47 l 1,24,-1
 410 47 l 2,25,26
 443 47 443 47 443 21 c 128,-1,27
 443 -5 443 -5 410 -5 c 2,28,-1
 87 -5 l 2,29,30
 65 -5 65 -5 65 23 c 0,0,1
EndSplineSet
Validated: 1
EndChar

StartChar: currency
Encoding: 164 164 99
Width: 495
Flags: W
HStem: 82 44<184.073 311.49> 335 44<183.757 310.974>
VStem: 99 44<167.506 294.627> 352 44<166.529 293.89>
LayerCount: 2
Fore
SplineSet
173.5 304.5 m 128,-1,1
 143 274 143 274 143 230.5 c 128,-1,2
 143 187 143 187 174 156.5 c 128,-1,3
 205 126 205 126 248 126 c 128,-1,4
 291 126 291 126 321.5 156.5 c 128,-1,5
 352 187 352 187 352 230 c 128,-1,6
 352 273 352 273 321.5 304 c 128,-1,7
 291 335 291 335 247.5 335 c 128,-1,0
 204 335 204 335 173.5 304.5 c 128,-1,1
125 146 m 1,8,9
 99 183 99 183 99 230.5 c 128,-1,10
 99 278 99 278 125 315 c 1,11,-1
 80 360 l 1,12,13
 68 374 68 374 68 383.5 c 128,-1,14
 68 393 68 393 76.5 401 c 128,-1,15
 85 409 85 409 94 409 c 128,-1,16
 103 409 103 409 117 397 c 1,17,-1
 162 352 l 1,18,19
 200 379 200 379 248 379 c 128,-1,20
 296 379 296 379 333 352 c 1,21,-1
 377 397 l 2,22,23
 390 409 390 409 400 409 c 0,24,25
 427 409 427 409 427 385 c 0,26,27
 427 372 427 372 413 360 c 1,28,-1
 369 315 l 1,29,30
 396 279 396 279 396 230.5 c 128,-1,31
 396 182 396 182 369 145 c 1,32,-1
 413 101 l 2,33,34
 427 87 427 87 427 78 c 128,-1,35
 427 69 427 69 418.5 60 c 128,-1,36
 410 51 410 51 400 51 c 128,-1,37
 390 51 390 51 377 65 c 2,38,-1
 333 109 l 1,39,40
 296 82 296 82 248 82 c 128,-1,41
 200 82 200 82 162 109 c 1,42,-1
 117 65 l 1,43,44
 105 51 105 51 94.5 51 c 128,-1,45
 84 51 84 51 76 58 c 128,-1,46
 68 65 68 65 68 76.5 c 128,-1,47
 68 88 68 88 80 101 c 2,48,-1
 125 146 l 1,8,9
EndSplineSet
Validated: 1
EndChar

StartChar: yen
Encoding: 165 165 100
Width: 538
Flags: W
HStem: 136 52<112.195 244 295 421.799> 225 52<112.195 244 295 421.799> 628 20G<52 62 473.5 484.5>
VStem: 244 51<-11.8047 136 188 225 277 308>
LayerCount: 2
Fore
SplineSet
39 601 m 2,0,1
 31 614 31 614 31 624 c 128,-1,2
 31 634 31 634 39 641 c 128,-1,3
 47 648 47 648 57 648 c 128,-1,4
 67 648 67 648 81 630 c 1,5,-1
 269 363 l 1,6,-1
 456 630 l 2,7,8
 468 648 468 648 479 648 c 128,-1,9
 490 648 490 648 498.5 640.5 c 128,-1,10
 507 633 507 633 507 623 c 128,-1,11
 507 613 507 613 499 601 c 2,12,-1
 295 308 l 1,13,-1
 295 277 l 1,14,-1
 389 277 l 2,15,16
 422 277 422 277 422 251 c 128,-1,17
 422 225 422 225 389 225 c 2,18,-1
 295 225 l 1,19,-1
 295 188 l 1,20,-1
 389 188 l 2,21,22
 422 188 422 188 422 162 c 128,-1,23
 422 136 422 136 389 136 c 2,24,-1
 295 136 l 1,25,-1
 295 20 l 2,26,27
 295 19 295 19 295 18 c 0,28,29
 295 -12 295 -12 270 -12 c 0,30,31
 244 -12 244 -12 244 20 c 2,32,-1
 244 136 l 1,33,-1
 144 136 l 2,34,35
 112 136 112 136 112 162 c 128,-1,36
 112 188 112 188 144 188 c 2,37,-1
 244 188 l 1,38,-1
 244 225 l 1,39,-1
 144 225 l 2,40,41
 112 225 112 225 112 251 c 128,-1,42
 112 277 112 277 144 277 c 2,43,-1
 244 277 l 1,44,-1
 244 308 l 1,45,-1
 39 601 l 2,0,1
EndSplineSet
Validated: 1
EndChar

StartChar: brokenbar
Encoding: 166 166 101
Width: 213
Flags: W
HStem: 628 20G<93.75 119.25>
VStem: 81 51<-11.8672 267.879 368.129 647.875>
LayerCount: 2
Fore
SplineSet
81 616 m 2,0,1
 81 648 81 648 106.5 648 c 128,-1,2
 132 648 132 648 132 616 c 2,3,-1
 132 401 l 2,4,5
 132 368 132 368 106.5 368 c 128,-1,6
 81 368 81 368 81 401 c 2,7,-1
 81 616 l 2,0,1
81 237 m 2,8,9
 81 268 81 268 106.5 268 c 128,-1,10
 132 268 132 268 132 237 c 2,11,-1
 132 22 l 2,12,13
 132 -12 132 -12 106.5 -12 c 128,-1,14
 81 -12 81 -12 81 22 c 2,15,-1
 81 237 l 2,8,9
EndSplineSet
Validated: 1
EndChar

StartChar: section
Encoding: 167 167 102
Width: 520
Flags: W
HStem: -5 52<134.223 383.715> 547 52<136.285 385.777>
VStem: 75 52<54.7391 115.763 263.882 359.084 431.361 538.509> 393 52<55.2334 162.639 235.066 332.281 478.183 539.261>
LayerCount: 2
Fore
SplineSet
419 478 m 128,-1,1
 393 478 393 478 393 505 c 128,-1,2
 393 532 393 532 386 539.5 c 128,-1,3
 379 547 379 547 353 547 c 2,4,-1
 169 547 l 2,5,6
 145 547 145 547 136 534.5 c 128,-1,7
 127 522 127 522 127 495 c 0,8,9
 127 430 127 430 166 425 c 2,10,-1
 341 400 l 2,11,12
 445 386 445 386 445 289 c 0,13,14
 445 217 445 217 399 194 c 1,15,16
 445 167 445 167 445 99 c 0,17,18
 445 -5 445 -5 340 -5 c 2,19,-1
 156 -5 l 2,20,21
 107 -5 107 -5 91 19.5 c 128,-1,22
 75 44 75 44 75 80 c 128,-1,23
 75 116 75 116 101 116 c 128,-1,24
 127 116 127 116 127 89 c 128,-1,25
 127 62 127 62 134 54.5 c 128,-1,26
 141 47 141 47 167 47 c 2,27,-1
 351 47 l 2,28,29
 375 47 375 47 384 59 c 128,-1,30
 393 71 393 71 393 99 c 0,31,32
 393 164 393 164 354 169 c 2,33,-1
 179 194 l 2,34,35
 75 208 75 208 75 306 c 0,36,37
 75 377 75 377 121 400 c 1,38,39
 75 427 75 427 75 495 c 0,40,41
 75 599 75 599 180 599 c 2,42,-1
 365 599 l 2,43,44
 400 598 400 598 418 584 c 0,45,46
 445 563 445 563 445 512 c 0,47,48
 445 510 445 510 445 508 c 0,49,0
 445 478 445 478 419 478 c 128,-1,1
141.5 358 m 128,-1,51
 127 348 127 348 127 307 c 128,-1,52
 127 266 127 266 179.5 246 c 128,-1,53
 232 226 232 226 298 226 c 128,-1,54
 364 226 364 226 378.5 236 c 128,-1,55
 393 246 393 246 393 288.5 c 128,-1,56
 393 331 393 331 336.5 349.5 c 128,-1,57
 280 368 280 368 218 368 c 128,-1,50
 156 368 156 368 141.5 358 c 128,-1,51
EndSplineSet
Validated: 1
EndChar

StartChar: dieresis
Encoding: 168 168 103
Width: 367
Flags: W
HStem: 589 82<66.3127 155.502 212.313 301.502>
VStem: 60 102<597.862 662.138> 206 102<597.862 662.138>
LayerCount: 2
Fore
SplineSet
77 659 m 128,-1,1
 94 671 94 671 110.5 671 c 128,-1,2
 127 671 127 671 144.5 659 c 128,-1,3
 162 647 162 647 162 630 c 128,-1,4
 162 613 162 613 144.5 601 c 128,-1,5
 127 589 127 589 110.5 589 c 128,-1,6
 94 589 94 589 77 601 c 128,-1,7
 60 613 60 613 60 630 c 128,-1,0
 60 647 60 647 77 659 c 128,-1,1
223 659 m 128,-1,9
 240 671 240 671 256.5 671 c 128,-1,10
 273 671 273 671 290.5 659 c 128,-1,11
 308 647 308 647 308 630 c 128,-1,12
 308 613 308 613 290.5 601 c 128,-1,13
 273 589 273 589 256.5 589 c 128,-1,14
 240 589 240 589 223 601 c 128,-1,15
 206 613 206 613 206 630 c 128,-1,8
 206 647 206 647 223 659 c 128,-1,9
EndSplineSet
Validated: 1
EndChar

StartChar: copyright
Encoding: 169 169 104
Width: 612
Flags: W
HStem: 82 52<167.532 445.189> 214 41<261.986 366.845> 380 41<261.986 366.845> 501 52<166.75 445.189>
VStem: 79 52<168.778 465.5> 206 40<266.861 368.139> 366 40<255.291 288.44 346.004 379.709> 481 52<168.778 466.222>
LayerCount: 2
Fore
SplineSet
351 421 m 2,0,1
 406 421 406 421 406 363 c 0,2,3
 406 346 406 346 386.5 346 c 128,-1,4
 367 346 367 346 367 363 c 128,-1,5
 367 380 367 380 349 380 c 2,6,-1
 301 380 l 2,7,8
 277 380 277 380 261.5 368.5 c 128,-1,9
 246 357 246 357 246 337 c 2,10,-1
 246 298 l 2,11,12
 246 278 246 278 261.5 266.5 c 128,-1,13
 277 255 277 255 301 255 c 2,14,-1
 349 255 l 2,15,16
 364 254 364 254 366 268 c 0,17,18
 368 288 368 288 387 288.5 c 128,-1,19
 406 289 406 289 406 272 c 0,20,21
 406 214 406 214 351 214 c 2,22,-1
 301 214 l 2,23,24
 262 214 262 214 234 235.5 c 128,-1,25
 206 257 206 257 206 298 c 2,26,-1
 206 337 l 2,27,28
 206 378 206 378 234 399.5 c 128,-1,29
 262 421 262 421 301 421 c 2,30,-1
 351 421 l 2,0,1
292 82 m 2,31,32
 189 82 189 82 148.5 107.5 c 128,-1,33
 108 133 108 133 93.5 169.5 c 128,-1,34
 79 206 79 206 79 262 c 2,35,-1
 79 373 l 2,36,37
 79 484 79 484 138 521 c 0,38,39
 189 553 189 553 292 553 c 2,40,-1
 321 553 l 2,41,42
 429 553 429 553 481 516.5 c 128,-1,43
 533 480 533 480 533 373 c 2,44,-1
 533 262 l 2,45,46
 533 155 533 155 481 118.5 c 128,-1,47
 429 82 429 82 321 82 c 2,48,-1
 292 82 l 2,31,32
292 134 m 2,49,-1
 321 134 l 2,50,51
 412 134 412 134 446.5 157 c 128,-1,52
 481 180 481 180 481 262 c 2,53,-1
 481 373 l 2,54,55
 481 455 481 455 446.5 478 c 128,-1,56
 412 501 412 501 321 501 c 2,57,-1
 292 501 l 2,58,59
 200 501 200 501 165.5 478 c 128,-1,60
 131 455 131 455 131 373 c 2,61,-1
 131 262 l 2,62,63
 131 180 131 180 165.5 157 c 128,-1,64
 200 134 200 134 292 134 c 2,49,-1
EndSplineSet
Validated: 1
EndChar

StartChar: ordfeminine
Encoding: 170 170 105
Width: 380
Flags: W
HStem: 159 45<65.0063 314.993> 244 41<131.766 235.211> 349 41<144.412 249> 425 41<131.563 248.709>
VStem: 90 41<285.205 342.525 387.005 424.763> 249 41<241.017 270 298.141 349 390 423.886>
LayerCount: 2
Fore
SplineSet
91 159 m 2,0,1
 65 159 65 159 65 181.5 c 128,-1,2
 65 204 65 204 91 204 c 2,3,-1
 287 204 l 2,4,5
 315 204 315 204 315 181.5 c 128,-1,6
 315 159 315 159 287 159 c 2,7,-1
 91 159 l 2,0,1
144 341.5 m 128,-1,9
 131 334 131 334 131 309.5 c 128,-1,10
 131 285 131 285 150 285 c 2,11,-1
 187 285 l 2,12,13
 246 285 246 285 249 349 c 1,14,-1
 192 349 l 2,15,8
 157 349 157 349 144 341.5 c 128,-1,9
150 425 m 2,16,17
 131 425 131 425 131 406 c 128,-1,18
 131 387 131 387 110.5 387 c 128,-1,19
 90 387 90 387 90 408.5 c 128,-1,20
 90 430 90 430 106 448 c 128,-1,21
 122 466 122 466 147 466 c 2,22,-1
 232 466 l 2,23,24
 290 466 290 466 290 397 c 2,25,-1
 290 258 l 1,26,27
 288 241 288 241 268.5 241 c 128,-1,28
 249 241 249 241 249 258 c 2,29,-1
 249 270 l 1,30,31
 231 244 231 244 187 244 c 2,32,-1
 150 244 l 2,33,34
 124 244 124 244 107 264 c 128,-1,35
 90 284 90 284 90 320 c 0,36,37
 90 390 90 390 192 390 c 2,38,-1
 249 390 l 1,39,-1
 249 404 l 2,40,41
 249 425 249 425 229 425 c 2,42,-1
 150 425 l 2,16,17
EndSplineSet
Validated: 1
EndChar

StartChar: guillemotleft
Encoding: 171 171 106
Width: 503
Flags: W
VStem: 36 243 190 243
LayerCount: 2
Back
SplineSet
208 358 m 2x40
 390 527 l 2
 396 533 404 535 413 535 c 0
 425 535 433 527 433 515 c 0
 433 508 432 497 419 483 c 1
 264 333 l 1
 419 182 l 2
 432 168 433 156 433 150 c 0
 433 138 425 130 413 130 c 0
 404 130 396 131 390 137 c 2
 208 306 l 2
 198 314 190 322 190 333 c 0
 190 343 199 350 208 358 c 2x40
54 358 m 2x80
 236 527 l 2
 242 533 250 535 259 535 c 0
 271 535 279 527 279 515 c 0
 279 508 278 497 265 483 c 1
 110 333 l 1
 265 182 l 2
 278 168 279 156 279 150 c 0
 279 138 271 130 259 130 c 0
 250 130 242 131 236 137 c 2
 54 306 l 2
 44 314 36 322 36 333 c 0
 36 343 45 350 54 358 c 2x80
EndSplineSet
Fore
Refer: 648 8249 N 1 0 0 1 154 0 2
Refer: 648 8249 N 1 0 0 1 0 0 2
Validated: 1
EndChar

StartChar: logicalnot
Encoding: 172 172 107
Width: 522
Flags: W
HStem: 204 53<80.2725 390>
VStem: 390 53<108.29 204>
LayerCount: 2
Fore
SplineSet
443 141 m 2,0,1
 442 108 442 108 416 108 c 128,-1,2
 390 108 390 108 390 141 c 2,3,-1
 390 204 l 1,4,-1
 111 204 l 2,5,6
 80 204 80 204 80 230 c 128,-1,7
 80 256 80 256 111 257 c 2,8,-1
 409 257 l 2,9,10
 443 257 443 257 443 225 c 2,11,-1
 443 141 l 2,0,1
EndSplineSet
Validated: 1
EndChar

StartChar: uni00AD
Encoding: 173 173 108
Width: 456
Flags: W
HStem: 204 53<73.1892 382.792>
VStem: 73 310<204.932 256.068>
LayerCount: 2
Fore
SplineSet
349 257 m 2,0,1
 383 257 383 257 383 230.5 c 128,-1,2
 383 204 383 204 349 204 c 2,3,-1
 104 204 l 2,4,5
 73 204 73 204 73 230.5 c 128,-1,6
 73 257 73 257 104 257 c 2,7,-1
 349 257 l 2,0,1
EndSplineSet
Validated: 1
EndChar

StartChar: registered
Encoding: 174 174 109
Width: 612
Flags: W
HStem: 82 52<167.532 445.189> 298 41<243 337.875> 385 41<243 358.556> 501 52<166.75 445.189>
VStem: 79 52<168.778 465.5> 202 41<203.003 298 339 385> 373 41<203.457 259.445 342.938 380.89> 481 52<168.778 466.222>
LayerCount: 2
Fore
SplineSet
292 134 m 2,0,-1
 321 134 l 2,1,2
 412 134 412 134 446.5 157 c 128,-1,3
 481 180 481 180 481 262 c 2,4,-1
 481 373 l 2,5,6
 481 455 481 455 446.5 478 c 128,-1,7
 412 501 412 501 321 501 c 2,8,-1
 292 501 l 2,9,10
 200 501 200 501 165.5 478 c 128,-1,11
 131 455 131 455 131 373 c 2,12,-1
 131 262 l 2,13,14
 131 180 131 180 165.5 157 c 128,-1,15
 200 134 200 134 292 134 c 2,0,-1
292 82 m 2,16,17
 189 82 189 82 148.5 107.5 c 128,-1,18
 108 133 108 133 93.5 169.5 c 128,-1,19
 79 206 79 206 79 262 c 2,20,-1
 79 373 l 2,21,22
 79 484 79 484 138 521 c 0,23,24
 189 553 189 553 292 553 c 2,25,-1
 321 553 l 2,26,27
 429 553 429 553 481 516.5 c 128,-1,28
 533 480 533 480 533 373 c 2,29,-1
 533 262 l 2,30,31
 533 155 533 155 481 118.5 c 128,-1,32
 429 82 429 82 321 82 c 2,33,-1
 292 82 l 2,16,17
414 361 m 0,34,35
 414 316 414 316 366 301 c 1,36,37
 380 289 380 289 398.5 259.5 c 128,-1,38
 417 230 417 230 417 216 c 0,39,40
 416 203 416 203 402 203 c 0,41,42
 376 203 376 203 376 216 c 1,43,44
 373 228 373 228 355 256 c 128,-1,45
 337 284 337 284 314 298 c 1,46,-1
 243 298 l 1,47,-1
 243 217 l 2,48,49
 243 203 243 203 222.5 203 c 128,-1,50
 202 203 202 203 202 217 c 2,51,-1
 202 411 l 2,52,53
 202 426 202 426 221 426 c 2,54,-1
 305 426 l 2,55,56
 414 426 414 426 414 361 c 0,34,35
305 339 m 2,57,58
 344 339 344 339 358.5 343 c 128,-1,59
 373 347 373 347 373 361.5 c 128,-1,60
 373 376 373 376 359 380.5 c 128,-1,61
 345 385 345 385 305 385 c 2,62,-1
 243 385 l 1,63,-1
 243 339 l 1,64,-1
 305 339 l 2,57,58
EndSplineSet
Validated: 1
EndChar

StartChar: macron
Encoding: 175 175 110
Width: 429
Flags: W
HStem: 673 53<60.1892 369.792>
VStem: 60 310<673.932 725.068>
LayerCount: 2
Fore
SplineSet
336 726 m 2,0,1
 370 726 370 726 370 699.5 c 128,-1,2
 370 673 370 673 336 673 c 2,3,-1
 91 673 l 2,4,5
 60 673 60 673 60 699.5 c 128,-1,6
 60 726 60 726 91 726 c 2,7,-1
 336 726 l 2,0,1
EndSplineSet
Validated: 1
EndChar

StartChar: degree
Encoding: 176 176 111
Width: 403
Flags: W
HStem: 386 51<139.586 262.915> 632 51<139.66 262.606>
VStem: 53 51<472.92 596.34> 299 51<473.085 595.226>
LayerCount: 2
Fore
SplineSet
104 535 m 128,-1,1
 104 495 104 495 132 466 c 0,2,3
 162 437 162 437 202 437 c 128,-1,4
 242 437 242 437 270.5 465.5 c 128,-1,5
 299 494 299 494 299 534 c 128,-1,6
 299 574 299 574 270 603 c 128,-1,7
 241 632 241 632 201 632 c 128,-1,8
 161 632 161 632 132.5 603.5 c 128,-1,0
 104 575 104 575 104 535 c 128,-1,1
201 683 m 128,-1,10
 262 683 262 683 306 639.5 c 128,-1,11
 350 596 350 596 350 535 c 128,-1,12
 350 474 350 474 306 430 c 128,-1,13
 262 386 262 386 201 386 c 128,-1,14
 140 386 140 386 96.5 430 c 128,-1,15
 53 474 53 474 53 535 c 128,-1,16
 53 596 53 596 96.5 639.5 c 128,-1,9
 140 683 140 683 201 683 c 128,-1,10
EndSplineSet
Validated: 1
EndChar

StartChar: plusminus
Encoding: 177 177 112
Width: 579
Flags: W
HStem: 0 53<68.1892 510.792> 265 53<68.1892 263 315 510.792> 453 20G<276 302>
VStem: 263 52<111.195 265 318 472.799>
LayerCount: 2
Fore
SplineSet
477 53 m 2,0,1
 511 53 511 53 511 26.5 c 128,-1,2
 511 0 511 0 477 0 c 2,3,-1
 99 0 l 2,4,5
 68 0 68 0 68 26.5 c 128,-1,6
 68 53 68 53 99 53 c 2,7,-1
 477 53 l 2,0,1
289 111 m 128,-1,9
 263 111 263 111 263 143 c 2,10,-1
 263 265 l 1,11,-1
 99 265 l 2,12,13
 68 265 68 265 68 291.5 c 128,-1,14
 68 318 68 318 99 318 c 2,15,-1
 263 318 l 1,16,-1
 263 440 l 2,17,18
 263 473 263 473 289 473 c 128,-1,19
 315 473 315 473 315 440 c 2,20,-1
 315 318 l 1,21,-1
 477 318 l 2,22,23
 511 318 511 318 511 291.5 c 128,-1,24
 511 265 511 265 477 265 c 2,25,-1
 315 265 l 1,26,-1
 315 143 l 2,27,8
 315 111 315 111 289 111 c 128,-1,9
EndSplineSet
Validated: 1
EndChar

StartChar: twosuperior
Encoding: 178 178 113
Width: 325
Flags: W
HStem: 456 43<92 279.992> 729 43<91.5312 220.492>
VStem: 45 47<499 539.782 686.706 727.31> 237 43<652.469 722.392>
LayerCount: 2
Fore
SplineSet
253 499 m 1,0,1
 280 497 280 497 280 477 c 0,2,3
 280 471 280 471 271.5 463.5 c 128,-1,4
 263 456 263 456 253 456 c 2,5,-1
 45 456 l 1,6,-1
 45 483 l 2,7,8
 45 552 45 552 113 593 c 0,9,10
 141 610 141 610 169 624 c 0,11,12
 237 658 237 658 237 682 c 0,13,14
 237 714 237 714 221 721.5 c 128,-1,15
 205 729 205 729 155 729 c 2,16,-1
 129 729 l 2,17,18
 91 729 91 729 91 703 c 0,19,20
 91 693 91 693 84 686.5 c 128,-1,21
 77 680 77 680 68.5 680 c 128,-1,22
 60 680 60 680 52.5 686.5 c 128,-1,23
 45 693 45 693 45 713 c 128,-1,24
 45 733 45 733 69 752.5 c 128,-1,25
 93 772 93 772 125 772 c 2,26,-1
 155 772 l 2,27,28
 252 772 252 772 271 731 c 0,29,30
 280 712 280 712 280 683 c 128,-1,31
 280 654 280 654 252 628 c 0,32,33
 223 604 223 604 189 588 c 0,34,35
 97 545 97 545 92 499 c 1,36,-1
 253 499 l 1,0,1
EndSplineSet
Validated: 1
EndChar

StartChar: threesuperior
Encoding: 179 179 114
Width: 295
Flags: W
HStem: 456 43<79.9238 201.134> 596 43<103.006 191.18> 729 43<79.9238 209.933>
VStem: 32 46<505.736 544.995 683.005 722.264> 213 42<506.788 573.758 657.639 723.221>
LayerCount: 2
Fore
SplineSet
184.5 579 m 128,-1,1
 156 596 156 596 129.5 596 c 128,-1,2
 103 596 103 596 103 617.5 c 128,-1,3
 103 639 103 639 129.5 639 c 128,-1,4
 156 639 156 639 184.5 653 c 128,-1,5
 213 667 213 667 213 684 c 128,-1,6
 213 701 213 701 210 709 c 0,7,8
 202 729 202 729 150 729 c 2,9,-1
 138 729 l 2,10,11
 115 729 115 729 96.5 721 c 128,-1,12
 78 713 78 713 78 701 c 0,13,14
 78 683 78 683 55 683 c 128,-1,15
 32 683 32 683 32 705 c 128,-1,16
 32 727 32 727 60.5 749.5 c 128,-1,17
 89 772 89 772 134 772 c 2,18,-1
 146 772 l 2,19,20
 205 772 205 772 230 751.5 c 128,-1,21
 255 731 255 731 255 687 c 128,-1,22
 255 643 255 643 196 618 c 1,23,24
 219 608 219 608 237 588 c 128,-1,25
 255 568 255 568 255 532 c 0,26,27
 255 456 255 456 146 456 c 2,28,-1
 134 456 l 2,29,30
 89 456 89 456 60.5 478.5 c 128,-1,31
 32 501 32 501 32 523 c 128,-1,32
 32 545 32 545 55 545 c 128,-1,33
 78 545 78 545 78 527 c 0,34,35
 78 515 78 515 96.5 507 c 128,-1,36
 115 499 115 499 138 499 c 2,37,-1
 150 499 l 2,38,39
 190 499 190 499 201.5 509 c 128,-1,40
 213 519 213 519 213 540.5 c 128,-1,0
 213 562 213 562 184.5 579 c 128,-1,1
EndSplineSet
Validated: 1
EndChar

StartChar: acute
Encoding: 180 180 115
Width: 212
Flags: W
HStem: 505 178
VStem: 29 155
LayerCount: 2
Fore
SplineSet
175 635 m 2,0,-1
 79 520 l 1,1,2
 66 505 66 505 56 505 c 128,-1,3
 46 505 46 505 37.5 512.5 c 128,-1,4
 29 520 29 520 29 531 c 128,-1,5
 29 542 29 542 38 553 c 2,6,-1
 134 668 l 1,7,8
 148 683 148 683 158 683 c 128,-1,9
 168 683 168 683 176 675.5 c 128,-1,10
 184 668 184 668 184 657 c 128,-1,11
 184 646 184 646 175 635 c 2,0,-1
EndSplineSet
Validated: 1
EndChar

StartChar: paragraph
Encoding: 182 182 117
Width: 467
Flags: W
HStem: 589 52<294 325>
VStem: 35 259<398.699 577.953> 242 52<-11.8047 332> 325 52<-11.8047 589>
LayerCount: 2
Fore
SplineSet
377 20 m 2,0,1
 377 -12 377 -12 351 -12 c 128,-1,2
 325 -12 325 -12 325 20 c 2,3,-1
 325 589 l 1,4,-1
 294 589 l 1,5,-1
 294 20 l 2,6,7
 294 -12 294 -12 268 -12 c 128,-1,8
 242 -12 242 -12 242 20 c 2,9,-1
 242 332 l 1,10,-1
 205 332 l 2,11,12
 125 332 125 332 80 371.5 c 128,-1,13
 35 411 35 411 35 493 c 128,-1,14
 35 575 35 575 88.5 608 c 128,-1,15
 142 641 142 641 247 641 c 2,16,-1
 377 641 l 1,17,-1
 377 20 l 2,0,1
EndSplineSet
Validated: 1
EndChar

StartChar: periodcentered
Encoding: 183 183 118
Width: 242
Flags: W
HStem: 346 82<76.3127 165.502>
VStem: 70 102<354.862 419.138>
LayerCount: 2
Fore
SplineSet
87 416 m 128,-1,1
 104 428 104 428 120.5 428 c 128,-1,2
 137 428 137 428 154.5 416 c 128,-1,3
 172 404 172 404 172 387 c 128,-1,4
 172 370 172 370 154.5 358 c 128,-1,5
 137 346 137 346 120.5 346 c 128,-1,6
 104 346 104 346 87 358 c 128,-1,7
 70 370 70 370 70 387 c 128,-1,0
 70 404 70 404 87 416 c 128,-1,1
EndSplineSet
Validated: 1
EndChar

StartChar: cedilla
Encoding: 184 184 119
Width: 242
Flags: W
HStem: -175 50<49.8693 159.659>
VStem: 91 52<-29.8687 10> 160 52<-122.851 -68.3232>
LayerCount: 2
Fore
SplineSet
143 10 m 1,0,1
 143 -19 143 -19 177.5 -38 c 128,-1,2
 212 -57 212 -57 212 -93.5 c 128,-1,3
 212 -130 212 -130 184 -152.5 c 128,-1,4
 156 -175 156 -175 123.5 -175 c 128,-1,5
 91 -175 91 -175 64 -163 c 128,-1,6
 37 -151 37 -151 37 -129 c 128,-1,7
 37 -107 37 -107 52 -107 c 0,8,9
 58 -107 58 -107 81 -116 c 128,-1,10
 104 -125 104 -125 118 -125 c 0,11,12
 160 -125 160 -125 160 -99 c 0,13,14
 160 -84 160 -84 136 -67 c 0,15,16
 91 -35 91 -35 91 8 c 0,17,18
 91 9 91 9 91 10 c 1,19,-1
 143 10 l 1,0,1
EndSplineSet
Validated: 1
EndChar

StartChar: onesuperior
Encoding: 185 185 120
Width: 154
Flags: W
HStem: 453 322<55.4111 98.7979>
VStem: 55 44<453.007 703>
LayerCount: 2
Fore
SplineSet
76 775 m 0,0,1
 99 775 99 775 99 751 c 2,2,-1
 99 480 l 2,3,4
 99 453 99 453 77 453 c 128,-1,5
 55 453 55 453 55 480 c 2,6,-1
 55 703 l 1,7,-1
 37 685 l 1,8,9
 28 673 28 673 16 673 c 0,10,11
 -6 673 -6 673 -7 692 c 0,12,13
 -7 704 -7 704 5 714 c 1,14,-1
 53 764 l 1,15,16
 66 775 66 775 76 775 c 0,0,1
EndSplineSet
Validated: 1
EndChar

StartChar: ordmasculine
Encoding: 186 186 121
Width: 380
Flags: W
HStem: 159 45<65.0063 314.993> 244 41<141.318 238.166> 425 41<141.318 238.166>
VStem: 90 41<293.256 416.744> 249 41<293.256 416.744>
LayerCount: 2
Fore
SplineSet
185 285 m 2,0,-1
 194 285 l 2,1,2
 228 285 228 285 238.5 293 c 128,-1,3
 249 301 249 301 249 333 c 2,4,-1
 249 377 l 2,5,6
 249 409 249 409 238.5 417 c 128,-1,7
 228 425 228 425 194 425 c 2,8,-1
 185 425 l 2,9,10
 151 425 151 425 141 417 c 128,-1,11
 131 409 131 409 131 377 c 2,12,-1
 131 333 l 2,13,14
 131 301 131 301 141 293 c 128,-1,15
 151 285 151 285 185 285 c 2,0,-1
185 244 m 2,16,17
 131 244 131 244 110.5 262.5 c 128,-1,18
 90 281 90 281 90 333 c 2,19,-1
 90 377 l 2,20,21
 90 429 90 429 111 447.5 c 128,-1,22
 132 466 132 466 185 466 c 2,23,-1
 194 466 l 2,24,25
 248 466 248 466 269 447.5 c 128,-1,26
 290 429 290 429 290 377 c 2,27,-1
 290 333 l 2,28,29
 290 281 290 281 269 262.5 c 128,-1,30
 248 244 248 244 194 244 c 2,31,-1
 185 244 l 2,16,17
91 159 m 2,32,33
 65 159 65 159 65 181.5 c 128,-1,34
 65 204 65 204 91 204 c 2,35,-1
 287 204 l 2,36,37
 315 204 315 204 315 181.5 c 128,-1,38
 315 159 315 159 287 159 c 2,39,-1
 91 159 l 2,32,33
EndSplineSet
Validated: 1
EndChar

StartChar: guillemotright
Encoding: 187 187 122
Width: 503
Flags: W
VStem: 70 243 224 243
LayerCount: 2
Back
SplineSet
449 358 m 2x40
 458 350 467 343 467 333 c 0
 467 322 459 314 449 306 c 2
 267 137 l 2
 261 131 253 130 244 130 c 0
 232 130 224 138 224 150 c 0
 224 156 225 168 238 182 c 2
 393 333 l 1
 238 483 l 1
 225 497 224 508 224 515 c 0
 224 527 232 535 244 535 c 0
 253 535 261 533 267 527 c 2
 449 358 l 2x40
295 358 m 2x80
 304 350 313 343 313 333 c 0
 313 322 305 314 295 306 c 2
 113 137 l 2
 107 131 99 130 90 130 c 0
 78 130 70 138 70 150 c 0
 70 156 71 168 84 182 c 2
 239 333 l 1
 84 483 l 1
 71 497 70 508 70 515 c 0
 70 527 78 535 90 535 c 0
 99 535 107 533 113 527 c 2
 295 358 l 2x80
EndSplineSet
Fore
Refer: 649 8250 N 1 0 0 1 154 0 2
Refer: 649 8250 N 1 0 0 1 0 0 2
Validated: 1
EndChar

StartChar: onequarter
Encoding: 188 188 123
Width: 584
Flags: W
HStem: 95 43<338 426 470 539.994> 319 322<151.411 194.798>
VStem: 151 44<319.007 569> 426 44<-8.99341 95 138 256>
LayerCount: 2
Back
SplineSet
133 551 m 1
 126.333 543 118.333 539 109 539 c 0
 103 539 98.1667 541 94.5 545 c 128
 90.8333 549 89 553.333 89 558 c 0
 89 566 93 573.333 101 580 c 1
 149 630 l 1
 157.667 637.333 165.334 641 172 641 c 0
 177.333 641 182.5 639.167 187.5 635.5 c 128
 192.5 631.833 195 625.667 195 617 c 2
 195 346 l 2
 195 328 187.667 319 173 319 c 128
 158.333 319 151 328 151 346 c 2
 151 569 l 1
 133 551 l 1
509 519 m 0
 509 511 505 503 497 495 c 2
 88 85 l 2
 79.3333 77 71 73 63 73 c 0
 49.6667 73 43 79.6667 43 93 c 0
 43 101 47 109.333 55 118 c 2
 465 527 l 2
 473 535 481 539 489 539 c 0
 502.333 539 509 532.333 509 519 c 0
470 95 m 1
 470 18 l 2
 470 0 462.667 -9 448 -9 c 128
 433.333 -9 426 0 426 18 c 2
 426 95 l 1
 294 95 l 1
 294 147 l 1
 416 310 l 1
 470 310 l 1
 470 138 l 1
 514 138 l 2
 531.333 138 540 131 540 117 c 0
 540 102.333 531.333 95 514 95 c 2
 470 95 l 1
426 138 m 1
 426 256 l 1
 338 138 l 1
 426 138 l 1
EndSplineSet
Fore
Refer: 651 8308 S 1 0 0 1 266 -462 2
Refer: 120 185 N 1 0 0 1 96 -134 2
Refer: 650 8260 N 1 0 0 1 164 0 2
Validated: 1
EndChar

StartChar: onehalf
Encoding: 189 189 124
Width: 612
Flags: W
HStem: -6 43<371 558.992> 267 43<370.531 499.492> 319 322<159.411 202.798>
VStem: 159 44<319.007 569> 324 47<37 77.7822 224.706 265.31> 516 43<190.469 260.392>
LayerCount: 2
Back
SplineSet
506 519 m 0
 506 511 502 503 494 495 c 2
 85 85 l 2
 76.3333 77 68 73 60 73 c 0
 46.6667 73 40 79.6667 40 93 c 0
 40 101 44 109.333 52 118 c 2
 462 527 l 2
 470 535 478 539 486 539 c 0
 499.333 539 506 532.333 506 519 c 0
559 15 m 0
 559 11 556.167 6.5 550.5 1.5 c 128
 544.833 -3.5 538.667 -6 532 -6 c 2
 324 -6 l 1
 324 21 l 2
 324 45 330.667 66.5 344 85.5 c 128
 357.333 104.5 373.333 119.667 392 131 c 128
 410.667 142.333 429.333 152.667 448 162 c 128
 466.667 171.333 482.667 180.833 496 190.5 c 128
 509.333 200.167 516 210 516 220 c 0
 516 241.333 510.667 254.5 500 259.5 c 128
 489.333 264.5 467.333 267 434 267 c 2
 408 267 l 2
 382.667 267 370 258.333 370 241 c 0
 370 234.333 367.667 228.833 363 224.5 c 128
 358.333 220.167 353 218 347 218 c 0
 341.667 218 336.5 220.167 331.5 224.5 c 128
 326.5 228.833 324 234.333 324 241 c 0
 324 261 332 277.5 348 290.5 c 128
 364 303.5 382.667 310 404 310 c 2
 434 310 l 2
 454.667 310 471.333 309.167 484 307.5 c 128
 496.667 305.833 509.333 302.166 522 296.5 c 128
 534.667 290.832 544 281.666 550 269 c 128
 556 256.333 559 240 559 220 c 0
 559 201.333 549.5 183.5 530.5 166.5 c 128
 511.5 149.5 490.667 135.833 468 125.5 c 128
 445.333 115.167 424 102.167 404 86.5 c 128
 384 70.8333 373 54.3333 371 37 c 1
 532 37 l 1
 539.333 36.3333 545.667 33.8333 551 29.5 c 128
 556.333 25.1667 559 20.3333 559 15 c 0
141 551 m 1
 134.333 543 126.333 539 117 539 c 0
 111 539 106.167 541 102.5 545 c 128
 98.8333 549 97 553.333 97 558 c 0
 97 566 101 573.333 109 580 c 1
 157 630 l 1
 165.667 637.333 173.334 641 180 641 c 0
 185.333 641 190.5 639.167 195.5 635.5 c 128
 200.5 631.833 203 625.667 203 617 c 2
 203 346 l 2
 203 328 195.667 319 181 319 c 128
 166.333 319 159 328 159 346 c 2
 159 569 l 1
 141 551 l 1
EndSplineSet
Fore
Refer: 113 178 S 1 0 0 1 279 -462 2
Refer: 120 185 N 1 0 0 1 104 -134 2
Refer: 650 8260 N 1 0 0 1 161 0 2
Validated: 1
EndChar

StartChar: threequarters
Encoding: 190 190 125
Width: 631
Flags: W
HStem: 95 43<384 472 516 585.994> 325 43<110.924 232.134> 465 43<134.006 222.18> 598 43<110.924 240.933>
VStem: 63 46<374.736 413.995 552.005 591.264> 244 42<375.788 442.758 526.639 592.221> 472 44<-8.99341 95 138 256>
LayerCount: 2
Back
SplineSet
516 95 m 1
 516 18 l 2
 516 0 508.667 -9 494 -9 c 128
 479.333 -9 472 0 472 18 c 2
 472 95 l 1
 340 95 l 1
 340 147 l 1
 462 310 l 1
 516 310 l 1
 516 138 l 1
 560 138 l 2
 577.333 138 586 131 586 117 c 0
 586 102.333 577.333 95 560 95 c 2
 516 95 l 1
472 138 m 1
 472 256 l 1
 384 138 l 1
 472 138 l 1
560 519 m 0
 560 511 556 503 548 495 c 2
 139 85 l 2
 130.333 77 122 73 114 73 c 0
 100.667 73 94 79.6667 94 93 c 0
 94 101 98 109.333 106 118 c 2
 516 527 l 2
 524 535 532 539 540 539 c 0
 553.333 539 560 532.333 560 519 c 0
169 598 m 2
 153.667 598 139.833 595.333 127.5 590 c 128
 115.167 584.667 109 578 109 570 c 0
 109 558 101 552 85 552 c 0
 70.3333 552 63 558.667 63 572 c 0
 63 588 72.5 603.5 91.5 618.5 c 128
 110.5 633.5 135 641 165 641 c 2
 177 641 l 2
 216.333 641 244.333 634.167 261 620.5 c 128
 277.667 606.833 286 584.333 286 553 c 0
 286 525.666 266.333 503.666 227 487 c 1
 242.333 480.332 256 470.165 268 456.5 c 128
 280 442.833 286 427 286 409 c 0
 286 379.667 277.667 358.333 261 345 c 128
 244.333 331.667 216.333 325 177 325 c 2
 165 325 l 2
 135 325 110.5 332.5 91.5 347.5 c 128
 72.5 362.5 63 378 63 394 c 0
 63 407.333 70.3333 414 85 414 c 0
 101 414 109 408 109 396 c 0
 109 388 115.167 381.333 127.5 376 c 128
 139.833 370.667 153.667 368 169 368 c 2
 181 368 l 2
 207.667 368 224.834 371.333 232.5 378 c 128
 240.167 384.667 244 395.333 244 410 c 0
 244 424 234.5 436.667 215.5 448 c 128
 196.5 459.333 177 465 157 465 c 0
 149 465 143.167 467.333 139.5 472 c 128
 135.833 476.667 134 481.667 134 487 c 0
 134 493 136.167 498 140.5 502 c 128
 144.833 506 150.333 508 157 508 c 0
 177 508 196.5 512.667 215.5 522 c 128
 234.5 531.333 244 542.667 244 556 c 0
 244 565.333 243 572.667 241 578 c 128
 239 583.333 233.167 588 223.5 592 c 128
 213.833 596 199.667 598 181 598 c 2
 169 598 l 2
EndSplineSet
Fore
Refer: 651 8308 S 1 0 0 1 312 -462 2
Refer: 114 179 N 1 0 0 1 31 -131 2
Refer: 650 8260 N 1 0 0 1 215 0 2
Validated: 1
EndChar

StartChar: questiondown
Encoding: 191 191 126
Width: 529
Flags: W
HStem: -170 52<125.188 394.595> 409 82<236.498 326.502>
VStem: 38 52<-80.4933 70.0245> 230 103<417.862 482.138> 255 52<180 317.799> 441 53<-83.9928 40.666>
LayerCount: 2
Fore
SplineSet
315.5 421 m 128,-1,1
 298 409 298 409 281.5 409 c 128,-1,2
 265 409 265 409 247.5 421 c 128,-1,3
 230 433 230 433 230 450 c 128,-1,4
 230 467 230 467 247 479 c 128,-1,5
 264 491 264 491 281 491 c 128,-1,6
 298 491 298 491 315.5 479 c 128,-1,7
 333 467 333 467 333 450 c 128,-1,0
 333 433 333 433 315.5 421 c 128,-1,1
255 285 m 2,8,9
 255 318 255 318 281 318 c 128,-1,10
 307 318 307 318 307 285 c 2,11,-1
 307 141 l 1,12,-1
 150 98 l 2,13,14
 124 91 124 91 107 62.5 c 128,-1,15
 90 34 90 34 90 -6.5 c 128,-1,16
 90 -47 90 -47 113.5 -82.5 c 128,-1,17
 137 -118 137 -118 187 -118 c 2,18,-1
 281 -118 l 2,19,20
 367 -118 367 -118 395.5 -102.5 c 128,-1,21
 424 -87 424 -87 432.5 -61 c 128,-1,22
 441 -35 441 -35 441 3 c 128,-1,23
 441 41 441 41 467.5 41 c 128,-1,24
 494 41 494 41 494 -3.5 c 128,-1,25
 494 -48 494 -48 480 -84 c 0,26,27
 464 -121 464 -121 434 -139 c 0,28,29
 382 -170 382 -170 281 -170 c 2,30,-1
 205 -170 l 2,31,32
 117 -170 117 -170 77.5 -121.5 c 128,-1,33
 38 -73 38 -73 38 -5.5 c 128,-1,34
 38 62 38 62 67 99 c 128,-1,35
 96 136 96 136 166 155 c 2,36,-1
 255 180 l 1,37,-1
 255 285 l 2,8,9
EndSplineSet
Validated: 1
EndChar

StartChar: Agrave
Encoding: 192 192 127
Width: 570
Flags: W
HStem: 199 52<168 402> 616 20<246.57 323.43> 688 131
VStem: 24 53<-15.5056 7> 177 132 493 53<-15.5056 7>
LayerCount: 2
Back
SplineSet
316 636 m 1
 543 25 l 2
 545 19 546 14 546 9 c 0
 546 -11 527 -16 520 -16 c 0
 508 -16 499 -7 493 7 c 2
 422 199 l 1
 148 199 l 1
 77 7 l 2
 72 -5 62 -16 50 -16 c 0
 43 -16 24 -11 24 9 c 0
 24 14 25 19 27 25 c 2
 254 636 l 1
 316 636 l 1
284 560 m 1
 168 251 l 1
 402 251 l 1
 284 560 l 1
203 819 m 0
 211 819 219 815 227 806 c 2
 297 737 l 2
 304 729 309 722 309 712 c 0
 309 702 299 688 284 688 c 0
 276 688 267 692 259 701 c 2
 190 769 l 2
 182 778 177 785 177 794 c 0
 177 804 189 819 203 819 c 0
EndSplineSet
Fore
Refer: 325 768 S 1 0 0 1 552 183 2
Refer: 34 65 N 1 0 0 1 0 0 3
Validated: 1
EndChar

StartChar: Aacute
Encoding: 193 193 128
Width: 570
Flags: W
HStem: 199 52<168 402> 616 20<246.57 323.43> 688 131
VStem: 24 53<-15.5056 7> 241 132 493 53<-15.5056 7>
LayerCount: 2
Back
SplineSet
316 636 m 1
 543 25 l 2
 545 19 546 14 546 9 c 0
 546 -11 527 -16 520 -16 c 0
 508 -16 499 -7 493 7 c 2
 422 199 l 1
 148 199 l 1
 77 7 l 2
 72 -5 62 -16 50 -16 c 0
 43 -16 24 -11 24 9 c 0
 24 14 25 19 27 25 c 2
 254 636 l 1
 316 636 l 1
284 560 m 1
 168 251 l 1
 402 251 l 1
 284 560 l 1
361 770 m 2
 291 701 l 2
 283 692 275 688 267 688 c 0
 253 688 241 701 241 712 c 0
 241 722 247 730 254 738 c 2
 323 806 l 2
 331 815 340 819 348 819 c 0
 364 819 373 803 373 794 c 0
 373 785 368 778 361 770 c 2
EndSplineSet
Fore
Refer: 326 769 S 1 0 0 1 616 183 2
Refer: 34 65 N 1 0 0 1 0 0 3
Validated: 1
EndChar

StartChar: Acircumflex
Encoding: 194 194 129
Width: 570
Flags: W
HStem: 199 52<168 402> 616 20<246.57 323.43> 646 173
VStem: 24 53<-15.5056 7> 144 283<646 679> 493 53<-15.5056 7>
LayerCount: 2
Back
SplineSet
316 636 m 1
 543 25 l 2
 545 19 546 14 546 9 c 0
 546 -11 527 -16 520 -16 c 0
 508 -16 499 -7 493 7 c 2
 422 199 l 1
 148 199 l 1
 77 7 l 2
 72 -5 62 -16 50 -16 c 0
 43 -16 24 -11 24 9 c 0
 24 14 25 19 27 25 c 2
 254 636 l 1
 316 636 l 1
284 560 m 1
 168 251 l 1
 402 251 l 1
 284 560 l 1
150 687 m 2
 255 819 l 1
 314 819 l 1
 421 687 l 2
 424 683 427 675 427 669 c 0
 427 662 425 646 404 646 c 0
 390 646 385 656 376 666 c 2
 285 762 l 1
 195 666 l 2
 186 656 181 646 167 646 c 0
 146 646 144 662 144 669 c 0
 144 675 147 683 150 687 c 2
EndSplineSet
Fore
Refer: 327 770 S 1 0 0 1 587 141 2
Refer: 34 65 N 1 0 0 1 0 0 3
Validated: 1
EndChar

StartChar: Atilde
Encoding: 195 195 130
Width: 570
Flags: W
HStem: 199 52<168 402> 616 20<246.57 323.43> 704 54<339 367.203> 742 56<201.844 236>
VStem: 24 53<-15.5056 7> 144 282<742.297 757.531> 493 53<-15.5056 7>
CounterMasks: 1 0e
LayerCount: 2
Back
SplineSet
316 636 m 1x94
 543 25 l 2
 545 19 546 14 546 9 c 0
 546 -11 527 -16 520 -16 c 0
 508 -16 499 -7 493 7 c 2
 422 199 l 1
 148 199 l 1
 77 7 l 2
 72 -5 62 -16 50 -16 c 0
 43 -16 24 -11 24 9 c 0
 24 14 25 19 27 25 c 2
 254 636 l 1
 316 636 l 1x94
284 560 m 1
 168 251 l 1
 402 251 l 1
 284 560 l 1
339 758 m 2x48
 341 758 343 759 347 762 c 2
 378 790 l 2
 385 795 391 799 400 799 c 0
 412 799 426 791 426 776 c 0
 426 768 422 758 412 749 c 2
 365 710 l 2
 360 705 354 702 346 702 c 0x48
 341 702 335 704 334 704 c 2
 236 740 l 2
 235 741 232 742 230 742 c 0
 228 742 226 741 222 738 c 2
 191 710 l 2
 184 705 178 701 169 701 c 0
 158 701 144 710 144 725 c 0
 144 735 149 744 158 751 c 2
 204 789 l 1
 209 795 216 798 223 798 c 0x28
 227 798 234 796 236 796 c 2
 334 760 l 2
 337 758 339 758 339 758 c 2x48
EndSplineSet
Fore
Refer: 328 771 S 1 0 0 1 569 212 2
Refer: 34 65 N 1 0 0 1 0 0 3
Validated: 1
EndChar

StartChar: Adieresis
Encoding: 196 196 131
Width: 570
Flags: W
HStem: 199 52<168 402> 616 20<246.57 323.43> 702 82<167.313 256.502 313.313 402.502>
VStem: 24 53<-15.5056 7> 161 102<710.862 775.138> 307 102<710.862 775.138> 493 53<-15.5056 7>
LayerCount: 2
Back
SplineSet
316 636 m 1
 543 25 l 2
 545 19 546 14 546 9 c 0
 546 -11 527 -16 520 -16 c 0
 508 -16 499 -7 493 7 c 2
 422 199 l 1
 148 199 l 1
 77 7 l 2
 72 -5 62 -16 50 -16 c 0
 43 -16 24 -11 24 9 c 0
 24 14 25 19 27 25 c 2
 254 636 l 1
 316 636 l 1
284 560 m 1
 168 251 l 1
 402 251 l 1
 284 560 l 1
212 784 m 0
 231 784 263 767 263 743 c 0
 263 718 231 702 212 702 c 0
 192 702 161 718 161 743 c 0
 161 767 192 784 212 784 c 0
358 784 m 0
 377 784 409 767 409 743 c 0
 409 718 377 702 358 702 c 0
 338 702 307 718 307 743 c 0
 307 767 338 784 358 784 c 0
EndSplineSet
Fore
Refer: 103 168 S 1 0 0 1 101 113 2
Refer: 34 65 N 1 0 0 1 0 0 3
Validated: 1
EndChar

StartChar: Aring
Encoding: 197 197 132
Width: 570
Flags: W
HStem: 199 52<168 402> 616 20<246.57 323.43> 657 37<249.664 320.178> 782 37<249.994 320.178>
VStem: 24 53<-15.5056 7> 204 37<702.664 773.178> 329 37<702.994 773.006> 493 53<-15.5056 7>
LayerCount: 2
Back
SplineSet
316 636 m 1
 543 25 l 2
 545 19 546 14 546 9 c 0
 546 -11 527 -16 520 -16 c 0
 508 -16 499 -7 493 7 c 2
 422 199 l 1
 148 199 l 1
 77 7 l 2
 72 -5 62 -16 50 -16 c 0
 43 -16 24 -11 24 9 c 0
 24 14 25 19 27 25 c 2
 254 636 l 1
 316 636 l 1
284 560 m 1
 168 251 l 1
 402 251 l 1
 284 560 l 1
241 738 m 0
 241 714 261 694 285 694 c 0
 308 694 329 714 329 738 c 0
 329 762 307 782 285 782 c 0
 261 782 241 761 241 738 c 0
285 819 m 0
 330 819 366 783 366 738 c 0
 366 693 330 657 285 657 c 0
 240 657 204 693 204 738 c 0
 204 783 240 819 285 819 c 0
EndSplineSet
Fore
Refer: 334 778 S 1 0 0 1 592 152 2
Refer: 34 65 N 1 0 0 1 0 0 3
Validated: 1
EndChar

StartChar: AE
Encoding: 198 198 133
Width: 867
Flags: W
HStem: 0 52<452 818.792> 199 52<219 400> 332 52<452 701.78> 589 52<452 818.792>
VStem: 400 52<52 199 251 332 384 533>
AnchorPoint: "top" 431 678 basechar 0
AnchorPoint: "bottom" 432 0 basechar 0
LayerCount: 2
Fore
SplineSet
452 332 m 1,0,-1
 452 52 l 1,1,-1
 785 52 l 2,2,3
 819 52 819 52 819 26 c 128,-1,4
 819 0 819 0 785 0 c 2,5,-1
 424 0 l 2,6,7
 400 0 400 0 400 36 c 2,8,-1
 400 199 l 1,9,-1
 185 199 l 1,10,-1
 62 7 l 2,11,12
 47 -16 47 -16 28 -16 c 128,-1,13
 9 -16 9 -16 9 2 c 0,14,15
 9 12 9 12 17 25 c 2,16,-1
 405 631 l 2,17,18
 412 641 412 641 424 641 c 2,19,-1
 785 641 l 2,20,21
 819 641 819 641 819 615 c 128,-1,22
 819 589 819 589 785 589 c 2,23,-1
 452 589 l 1,24,-1
 452 384 l 1,25,-1
 666 384 l 2,26,27
 702 384 702 384 702 358 c 128,-1,28
 702 332 702 332 666 332 c 2,29,-1
 452 332 l 1,0,-1
400 251 m 1,30,-1
 400 533 l 1,31,-1
 219 251 l 1,32,-1
 400 251 l 1,30,-1
EndSplineSet
Validated: 1
EndChar

StartChar: Ccedilla
Encoding: 199 199 134
Width: 590
Flags: W
HStem: -175 50<241.869 351.659> 0 52<159.637 288.81 336 471.136> 594 52<169.921 470.62>
VStem: 71 52<87.2388 558.232> 352 52<-122.93 -71.0181> 483 52<66.4423 146.796 499.208 580.073>
LayerCount: 2
Fore
SplineSet
283 0 m 1,0,1
 173 1 173 1 122 37.5 c 128,-1,2
 71 74 71 74 71 180 c 2,3,-1
 71 466 l 2,4,5
 71 574 71 574 124 610 c 128,-1,6
 177 646 177 646 288 646 c 2,7,-1
 435 646 l 2,8,9
 519 646 519 646 532 575 c 0,10,11
 535 558 535 558 535 528.5 c 128,-1,12
 535 499 535 499 509 499 c 128,-1,13
 483 499 483 499 483 533 c 128,-1,14
 483 567 483 567 471 580.5 c 128,-1,15
 459 594 459 594 428 594 c 2,16,-1
 288 594 l 2,17,18
 198 594 198 594 169 577.5 c 128,-1,19
 140 561 140 561 131.5 535 c 128,-1,20
 123 509 123 509 123 466 c 2,21,-1
 123 180 l 2,22,23
 123 97 123 97 159 74.5 c 128,-1,24
 195 52 195 52 294 52 c 2,25,-1
 428 52 l 2,26,27
 460 52 460 52 471.5 66 c 128,-1,28
 483 80 483 80 483 113.5 c 128,-1,29
 483 147 483 147 509 147 c 128,-1,30
 535 147 535 147 535 117.5 c 128,-1,31
 535 88 535 88 532 71 c 0,32,33
 530 54 530 54 520 36 c 0,34,35
 501 0 501 0 438 -0 c 0,36,37
 436 0 436 0 435 0 c 2,38,-1
 336 0 l 1,39,40
 341 -22 341 -22 363 -35 c 0,41,42
 404 -58 404 -58 404 -94 c 128,-1,43
 404 -130 404 -130 376 -152.5 c 128,-1,44
 348 -175 348 -175 315.5 -175 c 128,-1,45
 283 -175 283 -175 256 -163 c 128,-1,46
 229 -151 229 -151 229 -129 c 128,-1,47
 229 -107 229 -107 244 -107 c 0,48,49
 250 -107 250 -107 273 -116 c 128,-1,50
 296 -125 296 -125 310 -125 c 0,51,52
 352 -125 352 -125 352 -99 c 0,53,54
 352 -88 352 -88 336 -76 c 0,55,56
 287 -38 287 -38 283 0 c 1,0,1
EndSplineSet
Validated: 1
EndChar

StartChar: Egrave
Encoding: 200 200 135
Width: 598
Flags: W
HStem: 0 52<136 547.792> 332 52<136 430.78> 584 52<136 547.792> 688 131
VStem: 84 52<52 332 384 584> 204 132
LayerCount: 2
Back
SplineSet
136 332 m 1
 136 52 l 1
 514 52 l 2
 537 52 548 43 548 24 c 0
 548 5 536 0 514 0 c 2
 108 0 l 2
 89 0 84 15 84 36 c 2
 84 600 l 2
 84 620 89 636 108 636 c 2
 514 636 l 2
 537 636 548 627 548 608 c 0
 548 589 536 584 514 584 c 2
 136 584 l 1
 136 384 l 1
 395 384 l 2
 415 384 431 378 431 356 c 0
 431 337 417 332 395 332 c 2
 136 332 l 1
230 819 m 0
 238 819 246 815 254 806 c 2
 324 737 l 2
 331 729 336 722 336 712 c 0
 336 702 326 688 311 688 c 0
 303 688 294 692 286 701 c 2
 217 769 l 2
 209 778 204 785 204 794 c 0
 204 804 216 819 230 819 c 0
EndSplineSet
Fore
Refer: 325 768 N 1 0 0 1 579 183 2
Refer: 38 69 N 1 0 0 1 0 0 3
Validated: 1
EndChar

StartChar: Eacute
Encoding: 201 201 136
Width: 598
Flags: W
HStem: 0 52<136 547.792> 332 52<136 430.78> 584 52<136 547.792> 688 131
VStem: 84 52<52 332 384 584> 255 132
LayerCount: 2
Back
SplineSet
136 332 m 1
 136 52 l 1
 514 52 l 2
 537 52 548 43 548 24 c 0
 548 5 536 0 514 0 c 2
 108 0 l 2
 89 0 84 15 84 36 c 2
 84 600 l 2
 84 620 89 636 108 636 c 2
 514 636 l 2
 537 636 548 627 548 608 c 0
 548 589 536 584 514 584 c 2
 136 584 l 1
 136 384 l 1
 395 384 l 2
 415 384 431 378 431 356 c 0
 431 337 417 332 395 332 c 2
 136 332 l 1
375 770 m 2
 305 701 l 2
 297 692 289 688 281 688 c 0
 267 688 255 701 255 712 c 0
 255 722 261 730 268 738 c 2
 337 806 l 2
 345 815 354 819 362 819 c 0
 378 819 387 803 387 794 c 0
 387 785 382 778 375 770 c 2
EndSplineSet
Fore
Refer: 326 769 N 1 0 0 1 630 183 2
Refer: 38 69 N 1 0 0 1 0 0 3
Validated: 1
EndChar

StartChar: Ecircumflex
Encoding: 202 202 137
Width: 598
Flags: W
HStem: 0 52<136 547.792> 332 52<136 430.78> 584 52<136 547.792> 646 173
VStem: 84 52<52 332 384 584> 170 283<646 679>
LayerCount: 2
Back
SplineSet
136 332 m 1
 136 52 l 1
 514 52 l 2
 537 52 548 43 548 24 c 0
 548 5 536 0 514 0 c 2
 108 0 l 2
 89 0 84 15 84 36 c 2
 84 600 l 2
 84 620 89 636 108 636 c 2
 514 636 l 2
 537 636 548 627 548 608 c 0
 548 589 536 584 514 584 c 2
 136 584 l 1
 136 384 l 1
 395 384 l 2
 415 384 431 378 431 356 c 0
 431 337 417 332 395 332 c 2
 136 332 l 1
176 687 m 2
 281 819 l 1
 340 819 l 1
 447 687 l 2
 450 683 453 675 453 669 c 0
 453 662 451 646 430 646 c 0
 416 646 411 656 402 666 c 2
 311 762 l 1
 221 666 l 2
 212 656 207 646 193 646 c 0
 172 646 170 662 170 669 c 0
 170 675 173 683 176 687 c 2
EndSplineSet
Fore
Refer: 327 770 N 1 0 0 1 613 141 2
Refer: 38 69 N 1 0 0 1 0 0 3
Validated: 1
EndChar

StartChar: Edieresis
Encoding: 203 203 138
Width: 598
Flags: W
HStem: 0 52<136 547.792> 332 52<136 430.78> 584 52<136 547.792> 702 82<194.313 283.502 340.313 429.502>
VStem: 84 52<52 332 384 584> 188 102<710.862 775.138> 334 102<710.862 775.138>
LayerCount: 2
Back
SplineSet
136 332 m 1
 136 52 l 1
 514 52 l 2
 537 52 548 43 548 24 c 0
 548 5 536 0 514 0 c 2
 108 0 l 2
 89 0 84 15 84 36 c 2
 84 600 l 2
 84 620 89 636 108 636 c 2
 514 636 l 2
 537 636 548 627 548 608 c 0
 548 589 536 584 514 584 c 2
 136 584 l 1
 136 384 l 1
 395 384 l 2
 415 384 431 378 431 356 c 0
 431 337 417 332 395 332 c 2
 136 332 l 1
239 784 m 0
 258 784 290 767 290 743 c 0
 290 718 258 702 239 702 c 0
 219 702 188 718 188 743 c 0
 188 767 219 784 239 784 c 0
385 784 m 0
 404 784 436 767 436 743 c 0
 436 718 404 702 385 702 c 0
 365 702 334 718 334 743 c 0
 334 767 365 784 385 784 c 0
EndSplineSet
Fore
Refer: 103 168 N 1 0 0 1 128 113 2
Refer: 38 69 N 1 0 0 1 0 0 3
Validated: 1
EndChar

StartChar: Igrave
Encoding: 204 204 139
Width: 220
Flags: W
HStem: -7 21<97 123> 623 20<97 123> 688 131
VStem: 4 132 84 52<-6.80469 642.799>
LayerCount: 2
Back
SplineSet
136 25 m 2xc8
 136 9 131 -7 109 -7 c 0
 99 -7 84 -2 84 25 c 2
 84 610 l 2
 84 639 100 643 110 643 c 0
 120 643 136 639 136 610 c 2
 136 25 l 2xc8
30 819 m 0x30
 38 819 46 815 54 806 c 2
 124 737 l 2
 131 729 136 722 136 712 c 0
 136 702 126 688 111 688 c 0
 103 688 94 692 86 701 c 2
 17 769 l 2
 9 778 4 785 4 794 c 0
 4 804 16 819 30 819 c 0x30
EndSplineSet
Fore
Refer: 325 768 N 1 0 0 1 379 183 2
Refer: 42 73 N 1 0 0 1 0 0 3
Validated: 1
EndChar

StartChar: Iacute
Encoding: 205 205 140
Width: 220
Flags: W
HStem: -7 21<97 123> 623 20<97 123> 688 131
VStem: 84 52<-6.80469 642.799> 85 132
LayerCount: 2
Back
SplineSet
136 25 m 2xd0
 136 9 131 -7 109 -7 c 0
 99 -7 84 -2 84 25 c 2
 84 610 l 2
 84 639 100 643 110 643 c 0
 120 643 136 639 136 610 c 2
 136 25 l 2xd0
205 770 m 2x28
 135 701 l 2
 127 692 119 688 111 688 c 0
 97 688 85 701 85 712 c 0
 85 722 91 730 98 738 c 2
 167 806 l 2
 175 815 184 819 192 819 c 0
 208 819 217 803 217 794 c 0
 217 785 212 778 205 770 c 2x28
EndSplineSet
Fore
Refer: 326 769 N 1 0 0 1 460 183 2
Refer: 42 73 N 1 0 0 1 0 0 3
Validated: 1
EndChar

StartChar: Icircumflex
Encoding: 206 206 141
Width: 220
Flags: W
HStem: -7 21<97 123> 623 20<97 123> 646 173
VStem: -30 283<646 679> 84 52<-6.80469 642.799>
LayerCount: 2
Back
SplineSet
136 25 m 2xc8
 136 9 131 -7 109 -7 c 0
 99 -7 84 -2 84 25 c 2
 84 610 l 2
 84 639 100 643 110 643 c 0
 120 643 136 639 136 610 c 2
 136 25 l 2xc8
-24 687 m 2x30
 81 819 l 1
 140 819 l 1
 247 687 l 2
 250 683 253 675 253 669 c 0
 253 662 251 646 230 646 c 0
 216 646 211 656 202 666 c 2
 111 762 l 1
 21 666 l 2
 12 656 7 646 -7 646 c 0
 -28 646 -30 662 -30 669 c 0
 -30 675 -27 683 -24 687 c 2x30
EndSplineSet
Fore
Refer: 327 770 N 1 0 0 1 413 141 2
Refer: 42 73 N 1 0 0 1 0 0 3
Validated: 1
EndChar

StartChar: Idieresis
Encoding: 207 207 142
Width: 220
Flags: W
HStem: -7 21<97 123> 623 20<97 123> 702 82<-6.68726 82.5016 139.313 228.502>
VStem: -13 102<710.862 775.138> 84 52<-6.80469 642.799> 133 102<710.862 775.138>
LayerCount: 2
Back
SplineSet
136 25 m 2xc8
 136 9 131 -7 109 -7 c 0
 99 -7 84 -2 84 25 c 2
 84 610 l 2
 84 639 100 643 110 643 c 0
 120 643 136 639 136 610 c 2
 136 25 l 2xc8
38 784 m 0x34
 57 784 89 767 89 743 c 0
 89 718 57 702 38 702 c 0
 18 702 -13 718 -13 743 c 0
 -13 767 18 784 38 784 c 0x34
184 784 m 0
 203 784 235 767 235 743 c 0
 235 718 203 702 184 702 c 0
 164 702 133 718 133 743 c 0
 133 767 164 784 184 784 c 0
EndSplineSet
Fore
Refer: 103 168 N 1 0 0 1 -73 113 2
Refer: 42 73 N 1 0 0 1 0 0 3
Validated: 1
EndChar

StartChar: Eth
Encoding: 208 208 143
Width: 620
Flags: W
HStem: 0 52<136 459.542> 298 53<52.1953 84 136 273.792> 584 52<136 458.703>
VStem: 84 52<52 298 351 584> 496 52<87.7676 548.493>
LayerCount: 2
Fore
SplineSet
496 180 m 2,0,-1
 496 456 l 2,1,2
 496 538 496 538 461 561 c 128,-1,3
 426 584 426 584 332 584 c 2,4,-1
 136 584 l 1,5,-1
 136 351 l 1,6,-1
 240 351 l 2,7,8
 274 351 274 351 274 324.5 c 128,-1,9
 274 298 274 298 240 298 c 2,10,-1
 136 298 l 1,11,-1
 136 52 l 1,12,-1
 326 52 l 2,13,14
 424 52 424 52 460 74.5 c 128,-1,15
 496 97 496 97 496 180 c 2,0,-1
548 456 m 2,16,-1
 548 180 l 2,17,18
 548 72 548 72 494.5 36 c 128,-1,19
 441 0 441 0 326 0 c 2,20,-1
 108 0 l 2,21,22
 84 0 84 0 84 36 c 2,23,-1
 84 298 l 1,24,25
 52 298 52 298 52 324.5 c 128,-1,26
 52 351 52 351 84 351 c 1,27,-1
 84 600 l 2,28,29
 84 636 84 636 108 636 c 2,30,-1
 332 636 l 2,31,32
 437 636 437 636 478 610.5 c 128,-1,33
 519 585 519 585 533.5 548.5 c 128,-1,34
 548 512 548 512 548 456 c 2,16,-1
EndSplineSet
Validated: 1
EndChar

StartChar: Ntilde
Encoding: 209 209 144
Width: 632
Flags: W
HStem: -7 21<97 123 516 535.5> 623 20<96 117 509 535> 704 54<369 397.203> 742 56<231.844 266>
VStem: 84 52<-6.79248 543> 174 282<742.297 757.531> 496 52<96 642.78>
LayerCount: 2
Back
SplineSet
523 -7 m 0xca
 515 -7 507 -5 503 0 c 2
 136 543 l 1
 136 26 l 2
 136 4 129 -7 110 -7 c 0
 89 -7 84 9 84 27 c 2
 84 608 l 2
 84 628 89 643 108 643 c 0
 120 643 129 638 138 624 c 2
 496 96 l 1
 496 607 l 2
 496 626 501 643 521 643 c 0
 543 643 548 627 548 608 c 2
 548 27 l 2
 548 8 543 -7 523 -7 c 0xca
369 758 m 2x24
 371 758 373 759 377 762 c 2
 408 790 l 2
 415 795 421 799 430 799 c 0
 442 799 456 791 456 776 c 0
 456 768 452 758 442 749 c 2
 395 710 l 2
 390 705 384 702 376 702 c 0x24
 371 702 365 704 364 704 c 2
 266 740 l 2
 265 741 262 742 260 742 c 0
 258 742 256 741 252 738 c 2
 221 710 l 2
 214 705 208 701 199 701 c 0
 188 701 174 710 174 725 c 0
 174 735 179 744 188 751 c 2
 234 789 l 1
 239 795 246 798 253 798 c 0x14
 257 798 264 796 266 796 c 2
 364 760 l 2
 367 758 369 758 369 758 c 2x24
EndSplineSet
Fore
Refer: 328 771 N 1 0 0 1 599 212 2
Refer: 47 78 N 1 0 0 1 0 0 3
Validated: 1
EndChar

StartChar: Ograve
Encoding: 210 210 145
Width: 594
Flags: W
HStem: -9 52<199.055 394.945> 593 52<199.055 394.945> 688 131
VStem: 65 52<126.434 509.566> 190 132 477 52<126.925 509.075>
LayerCount: 2
Back
SplineSet
297 -9 m 0
 164 -9 65 77 65 228 c 2
 65 408 l 2
 65 559 164 645 297 645 c 0
 429 645 529 559 529 408 c 2
 529 228 l 2
 529 77 429 -9 297 -9 c 0
297 593 m 0
 182 593 117 523 117 407 c 2
 117 229 l 2
 117 112 182 43 297 43 c 0
 412 43 477 112 477 229 c 2
 477 407 l 2
 477 523 412 593 297 593 c 0
216 819 m 0
 224 819 232 815 240 806 c 2
 310 737 l 2
 317 729 322 722 322 712 c 0
 322 702 312 688 297 688 c 0
 289 688 280 692 272 701 c 2
 203 769 l 2
 195 778 190 785 190 794 c 0
 190 804 202 819 216 819 c 0
EndSplineSet
Fore
Refer: 325 768 S 1 0 0 1 565 183 2
Refer: 48 79 N 1 0 0 1 0 0 3
Validated: 1
EndChar

StartChar: Oacute
Encoding: 211 211 146
Width: 594
Flags: W
HStem: -9 52<199.055 394.945> 593 52<199.055 394.945> 688 131
VStem: 65 52<126.434 509.566> 271 132 477 52<126.925 509.075>
LayerCount: 2
Back
SplineSet
297 -9 m 0
 164 -9 65 77 65 228 c 2
 65 408 l 2
 65 559 164 645 297 645 c 0
 429 645 529 559 529 408 c 2
 529 228 l 2
 529 77 429 -9 297 -9 c 0
297 593 m 0
 182 593 117 523 117 407 c 2
 117 229 l 2
 117 112 182 43 297 43 c 0
 412 43 477 112 477 229 c 2
 477 407 l 2
 477 523 412 593 297 593 c 0
391 770 m 2
 321 701 l 2
 313 692 305 688 297 688 c 0
 283 688 271 701 271 712 c 0
 271 722 277 730 284 738 c 2
 353 806 l 2
 361 815 370 819 378 819 c 0
 394 819 403 803 403 794 c 0
 403 785 398 778 391 770 c 2
EndSplineSet
Fore
Refer: 326 769 S 1 0 0 1 646 183 2
Refer: 48 79 N 1 0 0 1 0 0 3
Validated: 1
EndChar

StartChar: Ocircumflex
Encoding: 212 212 147
Width: 594
Flags: W
HStem: -9 52<199.055 394.945> 593 52<199.055 394.945> 646 173
VStem: 65 52<126.434 509.566> 156 283<646 679> 477 52<126.925 509.075>
LayerCount: 2
Back
SplineSet
297 -9 m 0
 164 -9 65 77 65 228 c 2
 65 408 l 2
 65 559 164 645 297 645 c 0
 429 645 529 559 529 408 c 2
 529 228 l 2
 529 77 429 -9 297 -9 c 0
297 593 m 0
 182 593 117 523 117 407 c 2
 117 229 l 2
 117 112 182 43 297 43 c 0
 412 43 477 112 477 229 c 2
 477 407 l 2
 477 523 412 593 297 593 c 0
162 687 m 2
 267 819 l 1
 326 819 l 1
 433 687 l 2
 436 683 439 675 439 669 c 0
 439 662 437 646 416 646 c 0
 402 646 397 656 388 666 c 2
 297 762 l 1
 207 666 l 2
 198 656 193 646 179 646 c 0
 158 646 156 662 156 669 c 0
 156 675 159 683 162 687 c 2
EndSplineSet
Fore
Refer: 327 770 N 1 0 0 1 599 141 2
Refer: 48 79 N 1 0 0 1 0 0 3
Validated: 1
EndChar

StartChar: Otilde
Encoding: 213 213 148
Width: 594
Flags: W
HStem: -9 52<199.055 394.945> 593 52<199.055 394.945> 704 54<351 379.203> 742 56<213.844 248>
VStem: 65 52<126.434 509.566> 156 282<742.297 757.531> 477 52<126.925 509.075>
CounterMasks: 1 0e
LayerCount: 2
Back
SplineSet
297 -9 m 0xca
 164 -9 65 77 65 228 c 2
 65 408 l 2
 65 559 164 645 297 645 c 0
 429 645 529 559 529 408 c 2
 529 228 l 2
 529 77 429 -9 297 -9 c 0xca
297 593 m 0
 182 593 117 523 117 407 c 2
 117 229 l 2
 117 112 182 43 297 43 c 0
 412 43 477 112 477 229 c 2
 477 407 l 2
 477 523 412 593 297 593 c 0
351 758 m 2x24
 353 758 355 759 359 762 c 2
 390 790 l 2
 397 795 403 799 412 799 c 0
 424 799 438 791 438 776 c 0
 438 768 434 758 424 749 c 2
 377 710 l 2
 372 705 366 702 358 702 c 0x24
 353 702 347 704 346 704 c 2
 248 740 l 2
 247 741 244 742 242 742 c 0
 240 742 238 741 234 738 c 2
 203 710 l 2
 196 705 190 701 181 701 c 0
 170 701 156 710 156 725 c 0
 156 735 161 744 170 751 c 2
 216 789 l 1
 221 795 228 798 235 798 c 0x14
 239 798 246 796 248 796 c 2
 346 760 l 2
 349 758 351 758 351 758 c 2x24
EndSplineSet
Fore
Refer: 328 771 N 1 0 0 1 581 212 2
Refer: 48 79 N 1 0 0 1 0 0 3
Validated: 1
EndChar

StartChar: Odieresis
Encoding: 214 214 149
Width: 594
Flags: W
HStem: -9 52<199.055 394.945> 593 52<199.055 394.945> 702 82<180.313 269.502 326.313 415.502>
VStem: 65 52<126.434 509.566> 174 102<710.862 775.138> 320 102<710.862 775.138> 477 52<126.925 509.075>
LayerCount: 2
Back
SplineSet
297 -9 m 0
 164 -9 65 77 65 228 c 2
 65 408 l 2
 65 559 164 645 297 645 c 0
 429 645 529 559 529 408 c 2
 529 228 l 2
 529 77 429 -9 297 -9 c 0
297 593 m 0
 182 593 117 523 117 407 c 2
 117 229 l 2
 117 112 182 43 297 43 c 0
 412 43 477 112 477 229 c 2
 477 407 l 2
 477 523 412 593 297 593 c 0
225 784 m 0
 244 784 276 767 276 743 c 0
 276 718 244 702 225 702 c 0
 205 702 174 718 174 743 c 0
 174 767 205 784 225 784 c 0
371 784 m 0
 390 784 422 767 422 743 c 0
 422 718 390 702 371 702 c 0
 351 702 320 718 320 743 c 0
 320 767 351 784 371 784 c 0
EndSplineSet
Fore
Refer: 103 168 N 1 0 0 1 114 113 2
Refer: 48 79 N 1 0 0 1 0 0 3
Validated: 1
EndChar

StartChar: multiply
Encoding: 215 215 150
Width: 493
Flags: W
LayerCount: 2
Fore
SplineSet
83 358 m 2,0,1
 71 370 71 370 71 380.5 c 128,-1,2
 71 391 71 391 78 398.5 c 128,-1,3
 85 406 85 406 96 406 c 128,-1,4
 107 406 107 406 119 394 c 2,5,-1
 246 266 l 1,6,-1
 374 393 l 2,7,8
 386 405 386 405 396.5 405 c 128,-1,9
 407 405 407 405 414.5 398 c 128,-1,10
 422 391 422 391 422 380 c 128,-1,11
 422 369 422 369 410 357 c 2,12,-1
 282 230 l 1,13,-1
 409 102 l 1,14,15
 422 91 422 91 422 80 c 128,-1,16
 422 69 422 69 414.5 61.5 c 128,-1,17
 407 54 407 54 396 54 c 128,-1,18
 385 54 385 54 373 66 c 2,19,-1
 246 194 l 1,20,-1
 118 67 l 1,21,22
 107 54 107 54 96 54 c 128,-1,23
 85 54 85 54 77.5 61.5 c 128,-1,24
 70 69 70 69 70 80 c 128,-1,25
 70 91 70 91 82 103 c 2,26,-1
 210 230 l 1,27,-1
 83 358 l 2,0,1
EndSplineSet
Validated: 1
EndChar

StartChar: Oslash
Encoding: 216 216 151
Width: 594
Flags: W
HStem: -9 52<198.662 395.055> 593 52<199.962 394.692>
VStem: 65 52<119.562 507> 477 52<127.393 517.046>
AnchorPoint: "bottom" 298 0 basechar 0
AnchorPoint: "top" 297 678 basechar 0
LayerCount: 2
Fore
SplineSet
415 558 m 1,0,1
 368 593 368 593 289.5 593 c 128,-1,2
 211 593 211 593 164 543 c 128,-1,3
 117 493 117 493 117 404 c 2,4,-1
 117 222 l 2,5,6
 117 152 117 152 145 108 c 1,7,-1
 415 558 l 1,0,1
450 619 m 1,8,9
 458 638 458 638 470 638 c 0,10,11
 500 638 500 638 501 613 c 0,12,13
 501 605 501 605 495 593 c 1,14,-1
 478 566 l 1,15,16
 529 504 529 504 529 408 c 2,17,-1
 529 228 l 2,18,19
 529 118 529 118 464 54.5 c 128,-1,20
 399 -9 399 -9 305.5 -9 c 128,-1,21
 212 -9 212 -9 156 33 c 1,22,-1
 146 17 l 1,23,24
 136 -2 136 -2 124 -2 c 0,25,26
 95 -2 95 -2 95 20 c 0,27,28
 95 21 95 21 95 22 c 0,29,30
 95 31 95 31 101 43 c 1,31,-1
 116 68 l 1,32,33
 65 130 65 130 65 228 c 2,34,-1
 65 408 l 2,35,36
 65 519 65 519 130 582 c 128,-1,37
 195 645 195 645 289.5 645 c 128,-1,38
 384 645 384 645 440 602 c 1,39,-1
 450 619 l 1,8,9
477 414 m 2,40,41
 477 483 477 483 450 526 c 1,42,-1
 180 77 l 1,43,44
 226 43 226 43 304.5 43 c 128,-1,45
 383 43 383 43 430 92.5 c 128,-1,46
 477 142 477 142 477 232 c 2,47,-1
 477 414 l 2,40,41
EndSplineSet
Validated: 1
EndChar

StartChar: Ugrave
Encoding: 217 217 152
Width: 620
Flags: W
HStem: -9 52<212.055 407.945> 623 20<91 117 503 529> 631 178
VStem: 78 52<126.434 642.799> 204 155 490 52<126.925 642.799>
LayerCount: 2
Back
SplineSet
490 611 m 2xd4
 490 638 506 643 517 643 c 0
 537 643 542 626 542 610 c 2
 542 228 l 2
 542 77 442 -9 310 -9 c 0
 177 -9 78 77 78 228 c 2
 78 610 l 2
 78 639 94 643 104 643 c 0
 114 643 130 639 130 611 c 2
 130 229 l 2
 130 112 195 43 310 43 c 0
 425 43 490 112 490 229 c 2
 490 611 l 2xd4
229 809 m 0x28
 237 809 245 804 254 794 c 2
 350 679 l 2
 356 672 359 665 359 656 c 0
 359 640 344 631 334 631 c 0
 326 631 318 636 309 646 c 2
 213 761 l 2
 207 768 204 776 204 783 c 0
 204 799 218 809 229 809 c 0x28
EndSplineSet
Fore
Refer: 65 96 S 1 0 0 1 175 126 2
Refer: 54 85 N 1 0 0 1 0 0 3
Validated: 1
EndChar

StartChar: Uacute
Encoding: 218 218 153
Width: 620
Flags: W
HStem: -9 52<212.055 407.945> 623 20<91 117 503 529> 631 178
VStem: 78 52<126.434 642.799> 285 155 490 52<126.925 642.799>
LayerCount: 2
Back
SplineSet
490 611 m 2xd4
 490 638 506 643 517 643 c 0
 537 643 542 626 542 610 c 2
 542 228 l 2
 542 77 442 -9 310 -9 c 0
 177 -9 78 77 78 228 c 2
 78 610 l 2
 78 639 94 643 104 643 c 0
 114 643 130 639 130 611 c 2
 130 229 l 2
 130 112 195 43 310 43 c 0
 425 43 490 112 490 229 c 2
 490 611 l 2xd4
431 761 m 2x28
 335 646 l 2
 326 636 318 631 310 631 c 0
 300 631 285 641 285 656 c 0
 285 665 288 672 294 679 c 2
 390 794 l 2
 399 804 407 809 415 809 c 0
 426 809 440 799 440 783 c 0
 440 776 437 768 431 761 c 2x28
EndSplineSet
Fore
Refer: 115 180 S 1 0 0 1 256 126 2
Refer: 54 85 N 1 0 0 1 0 0 3
Validated: 1
EndChar

StartChar: Ucircumflex
Encoding: 219 219 154
Width: 620
Flags: W
HStem: -9 52<212.055 407.945> 623 20<91 117 503 529> 646 173
VStem: 78 52<126.434 642.799> 169 283<646 679> 490 52<126.925 642.799>
LayerCount: 2
Back
SplineSet
490 611 m 2
 490 638 506 643 517 643 c 0
 537 643 542 626 542 610 c 2
 542 228 l 2
 542 77 442 -9 310 -9 c 0
 177 -9 78 77 78 228 c 2
 78 610 l 2
 78 639 94 643 104 643 c 0
 114 643 130 639 130 611 c 2
 130 229 l 2
 130 112 195 43 310 43 c 0
 425 43 490 112 490 229 c 2
 490 611 l 2
175 687 m 2
 280 819 l 1
 339 819 l 1
 446 687 l 2
 449 683 452 675 452 669 c 0
 452 662 450 646 429 646 c 0
 415 646 410 656 401 666 c 2
 310 762 l 1
 220 666 l 2
 211 656 206 646 192 646 c 0
 171 646 169 662 169 669 c 0
 169 675 172 683 175 687 c 2
EndSplineSet
Fore
Refer: 327 770 N 1 0 0 1 612 141 2
Refer: 54 85 N 1 0 0 1 0 0 3
Validated: 1
EndChar

StartChar: Udieresis
Encoding: 220 220 155
Width: 620
Flags: W
HStem: -9 52<212.055 407.945> 623 20<91 117 503 529> 702 82<193.313 282.502 339.313 428.502>
VStem: 78 52<126.434 642.799> 187 102<710.862 775.138> 333 102<710.862 775.138> 490 52<126.925 642.799>
LayerCount: 2
Back
SplineSet
490 611 m 2
 490 638 506 643 517 643 c 0
 537 643 542 626 542 610 c 2
 542 228 l 2
 542 77 442 -9 310 -9 c 0
 177 -9 78 77 78 228 c 2
 78 610 l 2
 78 639 94 643 104 643 c 0
 114 643 130 639 130 611 c 2
 130 229 l 2
 130 112 195 43 310 43 c 0
 425 43 490 112 490 229 c 2
 490 611 l 2
238 784 m 0
 257 784 289 767 289 743 c 0
 289 718 257 702 238 702 c 0
 218 702 187 718 187 743 c 0
 187 767 218 784 238 784 c 0
384 784 m 0
 403 784 435 767 435 743 c 0
 435 718 403 702 384 702 c 0
 364 702 333 718 333 743 c 0
 333 767 364 784 384 784 c 0
EndSplineSet
Fore
Refer: 103 168 N 1 0 0 1 127 113 2
Refer: 54 85 N 1 0 0 1 0 0 3
Validated: 1
EndChar

StartChar: Yacute
Encoding: 221 221 156
Width: 521
Flags: W
HStem: -7 21<247 273> 623 20<38 48 471 481> 631 178
VStem: 234 53<-6.72754 308> 235 155
LayerCount: 2
Back
SplineSet
234 308 m 1xd0
 25 597 l 2
 21 603 17 610 17 618 c 0
 17 634 32 643 42 643 c 0
 52 643 60 634 67 625 c 2
 260 358 l 1
 452 625 l 2
 463 640 473 643 478 643 c 0
 488 643 503 633 503 618 c 0
 503 610 499 603 495 597 c 2
 287 308 l 1
 287 24 l 2
 287 9 282 -7 260 -7 c 0
 250 -7 234 -2 234 24 c 2
 234 308 l 1xd0
381 761 m 2x28
 285 646 l 2
 276 636 268 631 260 631 c 0
 250 631 235 641 235 656 c 0
 235 665 238 672 244 679 c 2
 340 794 l 2
 349 804 357 809 365 809 c 0
 376 809 390 799 390 783 c 0
 390 776 387 768 381 761 c 2x28
EndSplineSet
Fore
Refer: 115 180 N 1 0 0 1 206 126 2
Refer: 58 89 N 1 0 0 1 0 0 3
Validated: 1
EndChar

StartChar: Thorn
Encoding: 222 222 157
Width: 520
Flags: W
HStem: -7 21G<97 123> 159 49<136 399.92> 414 52<136 397.569>
VStem: 84 52<-6.80469 159 208 414 466 605.799> 432 53<238.13 382.512>
LayerCount: 2
Fore
SplineSet
136 466 m 1,0,-1
 311 466 l 2,1,2
 393 466 393 466 439 427 c 128,-1,3
 485 388 485 388 485 313 c 128,-1,4
 485 238 485 238 438.5 198.5 c 128,-1,5
 392 159 392 159 310 159 c 2,6,-1
 136 159 l 1,7,-1
 136 25 l 2,8,9
 136 -7 136 -7 110 -7 c 128,-1,10
 84 -7 84 -7 84 25 c 2,11,-1
 84 573 l 2,12,13
 84 606 84 606 110 606 c 128,-1,14
 136 606 136 606 136 573 c 2,15,-1
 136 466 l 1,0,-1
266 414 m 2,16,-1
 136 414 l 1,17,-1
 136 208 l 1,18,-1
 265 208 l 2,19,20
 359 208 359 208 395.5 227.5 c 128,-1,21
 432 247 432 247 432 310 c 128,-1,22
 432 373 432 373 395.5 393.5 c 128,-1,23
 359 414 359 414 266 414 c 2,16,-1
EndSplineSet
Validated: 1
EndChar

StartChar: germandbls
Encoding: 223 223 158
Width: 464
Flags: W
HStem: -20 52<220.397 334.816> -7 21G<76 102> 353 51<163 256.188> 584 52<142.143 287.227>
VStem: 32 83<411.15 459.85> 63 52<-6.78027 416.599 454.401 557.646> 152 56<45.4033 126.468> 306 52<450.141 567.067> 374 52<75.3938 277.248>
LayerCount: 2
Fore
SplineSet
208 93 m 0,0,1
 208 32 208 32 284 32 c 0,2,3
 320 32 320 32 347 67.5 c 128,-1,4
 374 103 374 103 374 197 c 0,5,6
 374 252 374 252 344 288 c 0,7,8
 288 353 288 353 163 353 c 1,9,-1
 163 404 l 1,10,11
 276 404 276 404 300 483 c 0,12,13
 306 501 306 501 306 525.5 c 128,-1,14
 306 550 306 550 284.5 567 c 128,-1,15
 263 584 263 584 215 584 c 128,-1,16
 167 584 167 584 141 561.5 c 128,-1,17
 115 539 115 539 115 461 c 2,18,-1
 115 29 l 2,19,20
 115 -7 115 -7 89 -7 c 128,-1,21
 63 -7 63 -7 63 29 c 2,22,-1
 63 410 l 1,23,24
 32 412 32 412 32 435.5 c 128,-1,25
 32 459 32 459 63 461 c 1,26,27
 66 604 66 604 167 630 c 0,28,29
 192 636 192 636 240.5 636 c 128,-1,30
 289 636 289 636 323.5 601.5 c 128,-1,31
 358 567 358 567 358 520 c 0,32,33
 358 431 358 431 284 383 c 1,34,35
 426 342 426 342 426 196 c 0,36,37
 426 79 426 79 381.5 29.5 c 128,-1,38
 337 -20 337 -20 284 -20 c 128,-1,39
 231 -20 231 -20 191.5 9 c 128,-1,40
 152 38 152 38 152 82.5 c 128,-1,41
 152 127 152 127 180 127 c 128,-1,42
 208 127 208 127 208 93 c 0,0,1
EndSplineSet
Validated: 1
EndChar

StartChar: agrave
Encoding: 224 224 159
Width: 554
Flags: W
HStem: 0 52<129.532 356.787> 243 52<160.468 430> 409 52<131.921 418.136> 502 178
VStem: 60 52<69.8738 208.188 314.214 387.062> 165 155 430 52<-6.78638 63 124.23 243 295 395.589>
LayerCount: 2
Back
SplineSet
283 243 m 2
 162 243 112 233 112 118 c 0
 112 83 140 52 167 52 c 2
 260 52 l 2
 373 52 430 115 430 228 c 2
 430 243 l 1
 283 243 l 2
283 295 m 2
 430 295 l 1
 430 352 l 2
 430 392 419 409 375 409 c 2
 234 409 l 2
 161 409 112 394 112 349 c 0
 112 328 107 314 85 314 c 0
 70 314 60 324 60 349 c 0
 60 430 134 461 227 461 c 2
 382 461 l 2
 462 461 482 425 482 335 c 2
 482 27 l 2
 482 9 477 -7 456 -7 c 0
 435 -7 430 10 430 28 c 2
 430 63 l 1
 391 20 328 0 260 0 c 2
 167 0 l 2
 106 0 60 47 60 123 c 0
 60 267 145 295 283 295 c 2
190 680 m 0
 198 680 206 675 215 665 c 2
 311 550 l 2
 317 543 320 536 320 527 c 0
 320 511 305 502 295 502 c 0
 287 502 279 507 270 517 c 2
 174 632 l 2
 168 639 165 647 165 654 c 0
 165 670 179 680 190 680 c 0
EndSplineSet
Fore
Refer: 65 96 S 1 0 0 1 136 -3 2
Refer: 66 97 N 1 0 0 1 0 0 3
Validated: 1
EndChar

StartChar: aacute
Encoding: 225 225 160
Width: 554
Flags: W
HStem: 0 52<129.532 356.787> 243 52<160.468 430> 409 52<131.921 418.136> 505 178
VStem: 60 52<69.8738 208.188 314.214 387.062> 246 155 430 52<-6.78638 63 124.23 243 295 395.589>
LayerCount: 2
Back
SplineSet
283 243 m 2
 162 243 112 233 112 118 c 0
 112 83 140 52 167 52 c 2
 260 52 l 2
 373 52 430 115 430 228 c 2
 430 243 l 1
 283 243 l 2
283 295 m 2
 430 295 l 1
 430 352 l 2
 430 392 419 409 375 409 c 2
 234 409 l 2
 161 409 112 394 112 349 c 0
 112 328 107 314 85 314 c 0
 70 314 60 324 60 349 c 0
 60 430 134 461 227 461 c 2
 382 461 l 2
 462 461 482 425 482 335 c 2
 482 27 l 2
 482 9 477 -7 456 -7 c 0
 435 -7 430 10 430 28 c 2
 430 63 l 1
 391 20 328 0 260 0 c 2
 167 0 l 2
 106 0 60 47 60 123 c 0
 60 267 145 295 283 295 c 2
392 635 m 2
 296 520 l 2
 287 510 279 505 271 505 c 0
 261 505 246 515 246 530 c 0
 246 539 249 546 255 553 c 2
 351 668 l 2
 360 678 368 683 376 683 c 0
 387 683 401 673 401 657 c 0
 401 650 398 642 392 635 c 2
EndSplineSet
Fore
Refer: 115 180 S 1 0 0 1 217 0 2
Refer: 66 97 N 1 0 0 1 0 0 3
Validated: 1
EndChar

StartChar: acircumflex
Encoding: 226 226 161
Width: 554
Flags: W
HStem: 0 52<129.532 356.787> 243 52<160.468 430> 409 52<131.921 418.136> 517 173
VStem: 60 52<69.8738 208.188 314.214 387.062> 130 283<517 550> 430 52<-6.78638 63 124.23 243 295 395.589>
LayerCount: 2
Back
SplineSet
283 243 m 2
 162 243 112 233 112 118 c 0
 112 83 140 52 167 52 c 2
 260 52 l 2
 373 52 430 115 430 228 c 2
 430 243 l 1
 283 243 l 2
283 295 m 2
 430 295 l 1
 430 352 l 2
 430 392 419 409 375 409 c 2
 234 409 l 2
 161 409 112 394 112 349 c 0
 112 328 107 314 85 314 c 0
 70 314 60 324 60 349 c 0
 60 430 134 461 227 461 c 2
 382 461 l 2
 462 461 482 425 482 335 c 2
 482 27 l 2
 482 9 477 -7 456 -7 c 0
 435 -7 430 10 430 28 c 2
 430 63 l 1
 391 20 328 0 260 0 c 2
 167 0 l 2
 106 0 60 47 60 123 c 0
 60 267 145 295 283 295 c 2
136 558 m 2
 241 690 l 1
 300 690 l 1
 407 558 l 2
 410 554 413 546 413 540 c 0
 413 533 411 517 390 517 c 0
 376 517 371 527 362 537 c 2
 271 633 l 1
 181 537 l 2
 172 527 167 517 153 517 c 0
 132 517 130 533 130 540 c 0
 130 546 133 554 136 558 c 2
EndSplineSet
Fore
Refer: 327 770 S 1 0 0 1 573 12 2
Refer: 66 97 N 1 0 0 1 0 0 3
Validated: 1
EndChar

StartChar: atilde
Encoding: 227 227 162
Width: 554
Flags: W
HStem: 0 52<129.532 356.787> 243 52<160.468 430> 409 52<131.921 418.136> 520 54<326 354.203> 558 56<188.844 223>
VStem: 60 52<69.8738 208.188 314.214 387.062> 131 282<558.297 573.531> 430 52<-6.78638 63 124.23 243 295 395.589>
LayerCount: 2
Back
SplineSet
283 243 m 2xe5
 162 243 112 233 112 118 c 0
 112 83 140 52 167 52 c 2
 260 52 l 2
 373 52 430 115 430 228 c 2
 430 243 l 1
 283 243 l 2xe5
283 295 m 2
 430 295 l 1
 430 352 l 2
 430 392 419 409 375 409 c 2
 234 409 l 2
 161 409 112 394 112 349 c 0
 112 328 107 314 85 314 c 0
 70 314 60 324 60 349 c 0
 60 430 134 461 227 461 c 2
 382 461 l 2
 462 461 482 425 482 335 c 2
 482 27 l 2
 482 9 477 -7 456 -7 c 0
 435 -7 430 10 430 28 c 2
 430 63 l 1
 391 20 328 0 260 0 c 2
 167 0 l 2
 106 0 60 47 60 123 c 0
 60 267 145 295 283 295 c 2
326 574 m 2x12
 328 574 330 575 334 578 c 2
 365 606 l 2
 372 611 378 615 387 615 c 0
 399 615 413 607 413 592 c 0
 413 584 409 574 399 565 c 2
 352 526 l 2
 347 521 341 518 333 518 c 0x12
 328 518 322 520 321 520 c 2
 223 556 l 2
 222 557 219 558 217 558 c 0
 215 558 213 557 209 554 c 2
 178 526 l 2
 171 521 165 517 156 517 c 0
 145 517 131 526 131 541 c 0
 131 551 136 560 145 567 c 2
 191 605 l 1
 196 611 203 614 210 614 c 0x0a
 214 614 221 612 223 612 c 2
 321 576 l 2
 324 574 326 574 326 574 c 2x12
EndSplineSet
Fore
Refer: 328 771 S 1 0 0 1 556 28 2
Refer: 66 97 N 1 0 0 1 0 0 3
Validated: 1
EndChar

StartChar: adieresis
Encoding: 228 228 163
Width: 554
Flags: W
HStem: 0 52<129.532 356.787> 243 52<160.468 430> 409 52<131.921 418.136> 517 82<153.313 242.502 299.313 388.502>
VStem: 60 52<69.8738 208.188 314.214 387.062> 147 102<525.862 590.138> 293 102<525.862 590.138> 430 52<-6.78638 63 124.23 243 295 395.589>
LayerCount: 2
Back
SplineSet
283 243 m 2
 162 243 112 233 112 118 c 0
 112 83 140 52 167 52 c 2
 260 52 l 2
 373 52 430 115 430 228 c 2
 430 243 l 1
 283 243 l 2
283 295 m 2
 430 295 l 1
 430 352 l 2
 430 392 419 409 375 409 c 2
 234 409 l 2
 161 409 112 394 112 349 c 0
 112 328 107 314 85 314 c 0
 70 314 60 324 60 349 c 0
 60 430 134 461 227 461 c 2
 382 461 l 2
 462 461 482 425 482 335 c 2
 482 27 l 2
 482 9 477 -7 456 -7 c 0
 435 -7 430 10 430 28 c 2
 430 63 l 1
 391 20 328 0 260 0 c 2
 167 0 l 2
 106 0 60 47 60 123 c 0
 60 267 145 295 283 295 c 2
198 599 m 0
 217 599 249 582 249 558 c 0
 249 533 217 517 198 517 c 0
 178 517 147 533 147 558 c 0
 147 582 178 599 198 599 c 0
344 599 m 0
 363 599 395 582 395 558 c 0
 395 533 363 517 344 517 c 0
 324 517 293 533 293 558 c 0
 293 582 324 599 344 599 c 0
EndSplineSet
Fore
Refer: 103 168 S 1 0 0 1 87 -72 2
Refer: 66 97 N 1 0 0 1 0 0 3
Validated: 1
EndChar

StartChar: aring
Encoding: 229 229 164
Width: 554
Flags: W
HStem: 0 52<129.532 356.787> 243 52<160.468 430> 409 52<131.921 418.136> 517 37<236.664 307.178> 642 37<236.994 307.178>
VStem: 60 52<69.8738 208.188 314.214 387.062> 191 37<562.664 633.178> 316 37<562.994 633.006> 430 52<-6.78638 63 124.23 243 295 395.589>
LayerCount: 2
Back
SplineSet
283 243 m 2
 162 243 112 233 112 118 c 0
 112 83 140 52 167 52 c 2
 260 52 l 2
 373 52 430 115 430 228 c 2
 430 243 l 1
 283 243 l 2
283 295 m 2
 430 295 l 1
 430 352 l 2
 430 392 419 409 375 409 c 2
 234 409 l 2
 161 409 112 394 112 349 c 0
 112 328 107 314 85 314 c 0
 70 314 60 324 60 349 c 0
 60 430 134 461 227 461 c 2
 382 461 l 2
 462 461 482 425 482 335 c 2
 482 27 l 2
 482 9 477 -7 456 -7 c 0
 435 -7 430 10 430 28 c 2
 430 63 l 1
 391 20 328 0 260 0 c 2
 167 0 l 2
 106 0 60 47 60 123 c 0
 60 267 145 295 283 295 c 2
228 598 m 0
 228 574 248 554 272 554 c 0
 295 554 316 574 316 598 c 0
 316 622 294 642 272 642 c 0
 248 642 228 621 228 598 c 0
272 679 m 0
 317 679 353 643 353 598 c 0
 353 553 317 517 272 517 c 0
 227 517 191 553 191 598 c 0
 191 643 227 679 272 679 c 0
EndSplineSet
Fore
Refer: 321 730 N 1 0 0 1 131 0 2
Refer: 66 97 N 1 0 0 1 0 0 3
Validated: 1
EndChar

StartChar: ae
Encoding: 230 230 165
Width: 944
Flags: W
HStem: 0 52<129.532 356.787 520.246 820.136> 243 52<160.468 430 483 832> 409 52<131.921 418.136 519.156 795.542>
VStem: 60 52<69.8738 208.188 314.214 387.062> 430 53<124.23 243 295 374.312> 832 52<66.4423 146.796 295 374.312>
AnchorPoint: "bottom" 457 0 basechar 0
AnchorPoint: "top" 457 510 basechar 0
LayerCount: 2
Fore
SplineSet
260 52 m 2,0,1
 430 52 430 52 430 228 c 2,2,-1
 430 243 l 1,3,-1
 283 243 l 2,4,5
 190 243 190 243 159.5 227 c 128,-1,6
 129 211 129 211 120.5 186 c 128,-1,7
 112 161 112 161 112 126.5 c 128,-1,8
 112 92 112 92 129 72 c 128,-1,9
 146 52 146 52 167 52 c 2,10,-1
 260 52 l 2,0,1
662 409 m 2,11,-1
 654 409 l 2,12,13
 558 409 558 409 521 388 c 128,-1,14
 484 367 484 367 483 295 c 1,15,-1
 832 295 l 1,16,17
 831 367 831 367 794 388 c 128,-1,18
 757 409 757 409 662 409 c 2,11,-1
60 349 m 0,19,20
 60 461 60 461 227 461 c 2,21,-1
 382 461 l 2,22,23
 453 461 453 461 472 414 c 1,24,25
 518 461 518 461 654 461 c 2,26,-1
 662 461 l 2,27,28
 777 461 777 461 830.5 425.5 c 128,-1,29
 884 390 884 390 884 285 c 2,30,-1
 884 243 l 1,31,-1
 483 243 l 1,32,-1
 483 177 l 2,33,34
 483 94 483 94 524 72 c 0,35,36
 561 52 561 52 654 52 c 2,37,-1
 777 52 l 2,38,39
 809 52 809 52 820.5 66 c 128,-1,40
 832 80 832 80 832 113.5 c 128,-1,41
 832 147 832 147 858 147 c 128,-1,42
 884 147 884 147 884 117.5 c 128,-1,43
 884 88 884 88 881 71 c 128,-1,44
 878 54 878 54 868 36 c 0,45,46
 848 0 848 0 784 0 c 2,47,-1
 654 0 l 2,48,49
 571 0 571 0 521.5 16.5 c 128,-1,50
 472 33 472 33 449 78 c 1,51,52
 422 42 422 42 365.5 21 c 128,-1,53
 309 0 309 0 260 0 c 2,54,-1
 167 0 l 2,55,56
 120 0 120 0 90 33.5 c 128,-1,57
 60 67 60 67 60 123 c 0,58,59
 60 224 60 224 114.5 259.5 c 128,-1,60
 169 295 169 295 283 295 c 2,61,-1
 430 295 l 1,62,-1
 430 352 l 2,63,64
 430 383 430 383 418.5 396 c 128,-1,65
 407 409 407 409 375 409 c 2,66,-1
 234 409 l 2,67,68
 112 409 112 409 112 349 c 0,69,70
 112 314 112 314 86 314 c 128,-1,71
 60 314 60 314 60 349 c 0,19,20
EndSplineSet
Validated: 1
EndChar

StartChar: ccedilla
Encoding: 231 231 166
Width: 584
Flags: W
HStem: -175 50<226.869 336.659> 0 52<151.246 273.81 321 462.136> 409 52<162.468 461.62>
VStem: 62 52<88.9923 372.625> 337 52<-122.93 -71.0181> 474 52<66.4423 146.796 314.208 395.073>
LayerCount: 2
Fore
SplineSet
268 0 m 1,0,1
 162 2 162 2 112 38.5 c 128,-1,2
 62 75 62 75 62 176 c 2,3,-1
 62 285 l 2,4,5
 62 390 62 390 116 425.5 c 128,-1,6
 170 461 170 461 285 461 c 2,7,-1
 426 461 l 2,8,9
 510 461 510 461 523 389 c 0,10,11
 526 372 526 372 526 343 c 128,-1,12
 526 314 526 314 500 314 c 128,-1,13
 474 314 474 314 474 348 c 128,-1,14
 474 382 474 382 462 395.5 c 128,-1,15
 450 409 450 409 419 409 c 2,16,-1
 285 409 l 2,17,18
 192 409 192 409 161.5 393 c 128,-1,19
 131 377 131 377 122.5 352 c 128,-1,20
 114 327 114 327 114 284 c 2,21,-1
 114 177 l 2,22,23
 114 94 114 94 155 72 c 0,24,25
 192 52 192 52 285 52 c 2,26,-1
 419 52 l 2,27,28
 451 52 451 52 462.5 66 c 128,-1,29
 474 80 474 80 474 113.5 c 128,-1,30
 474 147 474 147 500 147 c 128,-1,31
 526 147 526 147 526 117.5 c 128,-1,32
 526 88 526 88 523 71 c 128,-1,33
 520 54 520 54 510 36 c 0,34,35
 491 0 491 0 429 -0 c 0,36,37
 427 0 427 0 426 0 c 2,38,-1
 321 0 l 1,39,40
 326 -22 326 -22 348 -35 c 0,41,42
 389 -58 389 -58 389 -94 c 128,-1,43
 389 -130 389 -130 361 -152.5 c 128,-1,44
 333 -175 333 -175 300.5 -175 c 128,-1,45
 268 -175 268 -175 241 -163 c 128,-1,46
 214 -151 214 -151 214 -129 c 128,-1,47
 214 -107 214 -107 229 -107 c 0,48,49
 235 -107 235 -107 258 -116 c 128,-1,50
 281 -125 281 -125 295 -125 c 0,51,52
 337 -125 337 -125 337 -99 c 0,53,54
 337 -88 337 -88 321 -76 c 0,55,56
 272 -38 272 -38 268 0 c 1,0,1
EndSplineSet
Validated: 1
EndChar

StartChar: egrave
Encoding: 232 232 167
Width: 592
Flags: W
HStem: 0 52<151.246 462.136> 245 52<114 484> 409 52<149.253 448.747> 505 178
VStem: 62 52<88.375 245 297 374.803> 191 155 474 52<66.4423 146.796> 484 52<297 374.803>
LayerCount: 2
Back
SplineSet
536 285 m 2xe9
 536 245 l 1xe9
 114 245 l 1
 114 177 l 2
 114 62 164 52 285 52 c 2
 419 52 l 2
 463 52 474 70 474 114 c 0
 474 143 490 147 500 147 c 0
 518 147 526 135 526 111 c 0xea
 526 58 516 0 426 0 c 2
 285 0 l 2
 146 0 62 26 62 176 c 2
 62 285 l 2
 62 435 146 461 285 461 c 2
 314 461 l 2
 452 461 536 435 536 285 c 2xe9
314 409 m 2
 285 409 l 2
 166 409 116 398 114 297 c 1
 484 297 l 1
 482 398 432 409 314 409 c 2
216 683 m 0x14
 224 683 232 678 241 668 c 2
 337 553 l 2
 343 546 346 539 346 530 c 0
 346 514 331 505 321 505 c 0
 313 505 305 510 296 520 c 2
 200 635 l 2
 194 642 191 650 191 657 c 0
 191 673 205 683 216 683 c 0x14
EndSplineSet
Fore
Refer: 65 96 S 1 0 0 1 162 0 2
Refer: 70 101 N 1 0 0 1 0 0 3
Validated: 1
EndChar

StartChar: eacute
Encoding: 233 233 168
Width: 592
Flags: W
HStem: 0 52<151.246 462.136> 245 52<114 484> 409 52<149.253 448.747> 505 178
VStem: 62 52<88.375 245 297 374.803> 275 155 474 52<66.4423 146.796> 484 52<297 374.803>
LayerCount: 2
Back
SplineSet
536 285 m 2xe9
 536 245 l 1xe9
 114 245 l 1
 114 177 l 2
 114 62 164 52 285 52 c 2
 419 52 l 2
 463 52 474 70 474 114 c 0
 474 143 490 147 500 147 c 0
 518 147 526 135 526 111 c 0xea
 526 58 516 0 426 0 c 2
 285 0 l 2
 146 0 62 26 62 176 c 2
 62 285 l 2
 62 435 146 461 285 461 c 2
 314 461 l 2
 452 461 536 435 536 285 c 2xe9
314 409 m 2
 285 409 l 2
 166 409 116 398 114 297 c 1
 484 297 l 1
 482 398 432 409 314 409 c 2
421 635 m 2x14
 325 520 l 2
 316 510 308 505 300 505 c 0
 290 505 275 515 275 530 c 0
 275 539 278 546 284 553 c 2
 380 668 l 2
 389 678 397 683 405 683 c 0
 416 683 430 673 430 657 c 0
 430 650 427 642 421 635 c 2x14
EndSplineSet
Fore
Refer: 115 180 S 1 0 0 1 246 0 2
Refer: 70 101 N 1 0 0 1 0 0 3
Validated: 1
EndChar

StartChar: ecircumflex
Encoding: 234 234 169
Width: 592
Flags: W
HStem: 0 52<151.246 462.136> 245 52<114 484> 409 52<149.253 448.747> 517 173
VStem: 62 52<88.375 245 297 374.803> 158 283<517 550> 474 52<66.4423 146.796> 484 52<297 374.803>
LayerCount: 2
Back
SplineSet
536 285 m 2xe9
 536 245 l 1xe9
 114 245 l 1
 114 177 l 2
 114 62 164 52 285 52 c 2
 419 52 l 2
 463 52 474 70 474 114 c 0
 474 143 490 147 500 147 c 0
 518 147 526 135 526 111 c 0xea
 526 58 516 0 426 0 c 2
 285 0 l 2
 146 0 62 26 62 176 c 2
 62 285 l 2
 62 435 146 461 285 461 c 2
 314 461 l 2
 452 461 536 435 536 285 c 2xe9
314 409 m 2
 285 409 l 2
 166 409 116 398 114 297 c 1
 484 297 l 1
 482 398 432 409 314 409 c 2
164 558 m 2x14
 269 690 l 1
 328 690 l 1
 435 558 l 2
 438 554 441 546 441 540 c 0
 441 533 439 517 418 517 c 0
 404 517 399 527 390 537 c 2
 299 633 l 1
 209 537 l 2
 200 527 195 517 181 517 c 0
 160 517 158 533 158 540 c 0
 158 546 161 554 164 558 c 2x14
EndSplineSet
Fore
Refer: 327 770 S 1 0 0 1 601 12 2
Refer: 70 101 N 1 0 0 1 0 0 3
Validated: 1
EndChar

StartChar: edieresis
Encoding: 235 235 170
Width: 592
Flags: W
HStem: 0 52<151.246 462.136> 245 52<114 484> 409 52<149.253 448.747> 517 82<182.313 271.502 328.313 417.502>
VStem: 62 52<88.375 245 297 374.803> 176 102<525.862 590.138> 322 102<525.862 590.138> 474 52<66.4423 146.796> 484 52<297 374.803>
LayerCount: 2
Back
SplineSet
536 285 m 2xe880
 536 245 l 1xe880
 114 245 l 1
 114 177 l 2
 114 62 164 52 285 52 c 2
 419 52 l 2
 463 52 474 70 474 114 c 0
 474 143 490 147 500 147 c 0
 518 147 526 135 526 111 c 0xe9
 526 58 516 0 426 0 c 2
 285 0 l 2
 146 0 62 26 62 176 c 2
 62 285 l 2
 62 435 146 461 285 461 c 2
 314 461 l 2
 452 461 536 435 536 285 c 2xe880
314 409 m 2
 285 409 l 2
 166 409 116 398 114 297 c 1
 484 297 l 1
 482 398 432 409 314 409 c 2
227 599 m 0x16
 246 599 278 582 278 558 c 0
 278 533 246 517 227 517 c 0
 207 517 176 533 176 558 c 0
 176 582 207 599 227 599 c 0x16
373 599 m 0
 392 599 424 582 424 558 c 0
 424 533 392 517 373 517 c 0
 353 517 322 533 322 558 c 0
 322 582 353 599 373 599 c 0
EndSplineSet
Fore
Refer: 103 168 S 1 0 0 1 116 -72 2
Refer: 70 101 N 1 0 0 1 0 0 3
Validated: 1
EndChar

StartChar: igrave
Encoding: 236 236 171
Width: 200
Flags: W
HStem: 453 20<87 113> 505 178
VStem: -29 155 74 52<-11.8047 472.799>
LayerCount: 2
Back
SplineSet
99 -12 m 0x90
 89 -12 74 -7 74 20 c 2
 74 440 l 2
 74 469 90 473 100 473 c 0
 110 473 126 469 126 440 c 2
 126 20 l 2
 126 4 121 -12 99 -12 c 0x90
-4 684 m 0x60
 4 684 12 679 21 669 c 2
 117 554 l 2
 123 547 126 540 126 531 c 0
 126 515 111 506 101 506 c 0
 93 506 85 511 76 521 c 2
 -20 636 l 2
 -26 643 -29 651 -29 658 c 0
 -29 674 -15 684 -4 684 c 0x60
EndSplineSet
Fore
Refer: 65 96 N 1 0 0 1 -58 0 2
Refer: 236 305 N 1 0 0 1 0 0 3
Validated: 1
EndChar

StartChar: iacute
Encoding: 237 237 172
Width: 200
Flags: W
HStem: 453 20<87 113> 505 178
VStem: 74 52<-11.8047 472.799> 74 155
LayerCount: 2
Back
SplineSet
99 -12 m 0xa0
 89 -12 74 -7 74 20 c 2
 74 440 l 2
 74 469 90 473 100 473 c 0
 110 473 126 469 126 440 c 2
 126 20 l 2
 126 4 121 -12 99 -12 c 0xa0
220 635 m 2x50
 124 520 l 2
 115 510 107 505 99 505 c 0
 89 505 74 515 74 530 c 0
 74 539 77 546 83 553 c 2
 179 668 l 2
 188 678 196 683 204 683 c 0
 215 683 229 673 229 657 c 0
 229 650 226 642 220 635 c 2x50
EndSplineSet
Fore
Refer: 115 180 S 1 0 0 1 45 0 2
Refer: 236 305 N 1 0 0 1 0 0 3
Validated: 1
EndChar

StartChar: icircumflex
Encoding: 238 238 173
Width: 200
Flags: W
HStem: 453 20<87 113> 517 173
VStem: -41 283<517 550> 74 52<-11.8047 472.799>
LayerCount: 2
Back
SplineSet
99 -12 m 0x90
 89 -12 74 -7 74 20 c 2
 74 440 l 2
 74 469 90 473 100 473 c 0
 110 473 126 469 126 440 c 2
 126 20 l 2
 126 4 121 -12 99 -12 c 0x90
-35 565 m 2x60
 70 697 l 1
 129 697 l 1
 236 565 l 2
 239 561 242 553 242 547 c 0
 242 540 240 524 219 524 c 0
 205 524 200 534 191 544 c 2
 100 640 l 1
 10 544 l 2
 1 534 -4 524 -18 524 c 0
 -39 524 -41 540 -41 547 c 0
 -41 553 -38 561 -35 565 c 2x60
EndSplineSet
Fore
Refer: 327 770 N 1 0 0 1 402 12 2
Refer: 236 305 N 1 0 0 1 0 0 3
Validated: 1
EndChar

StartChar: idieresis
Encoding: 239 239 174
Width: 200
Flags: W
HStem: 453 20<87 113> 524 82<-17.6873 71.5016 128.313 217.502>
VStem: -24 102<532.862 597.138> 74 52<-11.8047 472.799> 122 102<532.862 597.138>
LayerCount: 2
Back
SplineSet
99 -12 m 0x90
 89 -12 74 -7 74 20 c 2
 74 440 l 2
 74 469 90 473 100 473 c 0
 110 473 126 469 126 440 c 2
 126 20 l 2
 126 4 121 -12 99 -12 c 0x90
27 606 m 0x68
 46 606 78 589 78 565 c 0
 78 540 46 524 27 524 c 0
 7 524 -24 540 -24 565 c 0
 -24 589 7 606 27 606 c 0x68
173 606 m 0
 192 606 224 589 224 565 c 0
 224 540 192 524 173 524 c 0
 153 524 122 540 122 565 c 0
 122 589 153 606 173 606 c 0
EndSplineSet
Fore
Refer: 103 168 S 1 0 0 1 -84 -65 2
Refer: 236 305 N 1 0 0 1 0 0 3
Validated: 1
EndChar

StartChar: eth
Encoding: 240 240 175
Width: 566
Flags: W
HStem: -16 52<193.109 377.868> 404 52<192.937 383.139> 583 53<122.272 243.173>
VStem: 47 52<127.834 311.23> 459 52<128.077 320.457>
LayerCount: 2
Fore
SplineSet
245 568 m 1,0,1
 201 583 201 583 161.5 583 c 128,-1,2
 122 583 122 583 122 609.5 c 128,-1,3
 122 636 122 636 153 636 c 0,4,5
 224 636 224 636 288 610 c 1,6,-1
 321 642 l 1,7,8
 335 654 335 654 345.5 654 c 128,-1,9
 356 654 356 654 364.5 647 c 128,-1,10
 373 640 373 640 373 629 c 128,-1,11
 373 618 373 618 360 605 c 2,12,-1
 339 585 l 1,13,14
 511 479 511 479 511 222 c 0,15,16
 511 124 511 124 453 54 c 128,-1,17
 395 -16 395 -16 290 -16 c 128,-1,18
 185 -16 185 -16 116 47 c 128,-1,19
 47 110 47 110 47 220.5 c 128,-1,20
 47 331 47 331 116 393.5 c 128,-1,21
 185 456 185 456 278 456 c 128,-1,22
 371 456 371 456 421 417 c 1,23,24
 380 504 380 504 299 546 c 1,25,-1
 249 499 l 2,26,27
 237 487 237 487 226.5 487 c 128,-1,28
 216 487 216 487 206.5 494.5 c 128,-1,29
 197 502 197 502 197 512 c 128,-1,30
 197 522 197 522 211 536 c 2,31,-1
 245 568 l 1,0,1
417 94 m 128,-1,33
 459 152 459 152 459 224.5 c 128,-1,34
 459 297 459 297 418 350.5 c 128,-1,35
 377 404 377 404 291 404 c 128,-1,36
 205 404 205 404 152 352.5 c 128,-1,37
 99 301 99 301 99 220 c 128,-1,38
 99 139 99 139 152 87.5 c 128,-1,39
 205 36 205 36 290 36 c 128,-1,32
 375 36 375 36 417 94 c 128,-1,33
EndSplineSet
Validated: 1
EndChar

StartChar: ntilde
Encoding: 241 241 176
Width: 617
Flags: W
HStem: -7 21<87 113 509 535> 409 52<199.644 459.542> 520 54<365 393.203> 558 56<227.844 262>
VStem: 74 52<-6.79248 335.949 398 467.78> 170 282<558.297 573.531> 496 52<-6.79248 374.803>
CounterMasks: 1 0e
LayerCount: 2
Back
SplineSet
297 409 m 2xca
 183 409 126 346 126 231 c 2
 126 27 l 2
 126 5 119 -7 100 -7 c 0
 79 -7 74 9 74 27 c 2
 74 433 l 2
 74 453 79 468 98 468 c 0
 120 468 126 452 126 432 c 2
 126 398 l 1
 166 441 228 461 297 461 c 2
 326 461 l 2
 464 461 548 435 548 285 c 2
 548 27 l 2
 548 8 543 -7 523 -7 c 0
 512 -7 496 -3 496 27 c 2
 496 284 l 2
 496 399 446 409 326 409 c 2
 297 409 l 2xca
365 581 m 2x24
 367 581 369 582 373 585 c 2
 404 613 l 2
 411 618 417 622 426 622 c 0
 438 622 452 614 452 599 c 0
 452 591 448 581 438 572 c 2
 391 533 l 2
 386 528 380 525 372 525 c 0x24
 367 525 361 527 360 527 c 2
 262 563 l 2
 261 564 258 565 256 565 c 0
 254 565 252 564 248 561 c 2
 217 533 l 2
 210 528 204 524 195 524 c 0
 184 524 170 533 170 548 c 0
 170 558 175 567 184 574 c 2
 230 612 l 1
 235 618 242 621 249 621 c 0x14
 253 621 260 619 262 619 c 2
 360 583 l 2
 363 581 365 581 365 581 c 2x24
EndSplineSet
Fore
Refer: 328 771 N 1 0 0 1 595 28 2
Refer: 79 110 N 1 0 0 1 0 0 3
Validated: 1
EndChar

StartChar: ograve
Encoding: 242 242 177
Width: 598
Flags: W
HStem: 0 52<151.246 436.047> 409 52<162.468 447.542> 502 178
VStem: 62 52<88.375 372.625> 193 155 484 52<86.25 374.803>
LayerCount: 2
Back
SplineSet
314 0 m 2
 285 0 l 2
 146 0 62 26 62 176 c 2
 62 285 l 2
 62 435 146 461 285 461 c 2
 314 461 l 2
 452 461 536 435 536 285 c 2
 536 176 l 2
 536 26 452 0 314 0 c 2
285 52 m 2
 314 52 l 2
 434 52 484 62 484 177 c 2
 484 284 l 2
 484 399 434 409 314 409 c 2
 285 409 l 2
 164 409 114 399 114 284 c 2
 114 177 l 2
 114 62 164 52 285 52 c 2
218 683 m 0
 226 683 234 678 243 668 c 2
 339 553 l 2
 345 546 348 539 348 530 c 0
 348 514 333 505 323 505 c 0
 315 505 307 510 298 520 c 2
 202 635 l 2
 196 642 193 650 193 657 c 0
 193 673 207 683 218 683 c 0
EndSplineSet
Fore
Refer: 65 96 S 1 0 0 1 164 -3 2
Refer: 80 111 N 1 0 0 1 0 0 3
Validated: 1
EndChar

StartChar: oacute
Encoding: 243 243 178
Width: 598
Flags: W
HStem: 0 52<151.246 436.047> 409 52<162.468 447.542> 505 178
VStem: 62 52<88.375 372.625> 273 155 484 52<86.25 374.803>
LayerCount: 2
Back
SplineSet
314 0 m 2
 285 0 l 2
 146 0 62 26 62 176 c 2
 62 285 l 2
 62 435 146 461 285 461 c 2
 314 461 l 2
 452 461 536 435 536 285 c 2
 536 176 l 2
 536 26 452 0 314 0 c 2
285 52 m 2
 314 52 l 2
 434 52 484 62 484 177 c 2
 484 284 l 2
 484 399 434 409 314 409 c 2
 285 409 l 2
 164 409 114 399 114 284 c 2
 114 177 l 2
 114 62 164 52 285 52 c 2
419 635 m 2
 323 520 l 2
 314 510 306 505 298 505 c 0
 288 505 273 515 273 530 c 0
 273 539 276 546 282 553 c 2
 378 668 l 2
 387 678 395 683 403 683 c 0
 414 683 428 673 428 657 c 0
 428 650 425 642 419 635 c 2
EndSplineSet
Fore
Refer: 115 180 S 1 0 0 1 244 0 2
Refer: 80 111 N 1 0 0 1 0 0 3
Validated: 1
EndChar

StartChar: ocircumflex
Encoding: 244 244 179
Width: 598
Flags: W
HStem: 0 52<151.246 436.047> 409 52<162.468 447.542> 517 173
VStem: 62 52<88.375 372.625> 158 283<517 550> 484 52<86.25 374.803>
LayerCount: 2
Back
SplineSet
314 0 m 2
 285 0 l 2
 146 0 62 26 62 176 c 2
 62 285 l 2
 62 435 146 461 285 461 c 2
 314 461 l 2
 452 461 536 435 536 285 c 2
 536 176 l 2
 536 26 452 0 314 0 c 2
285 52 m 2
 314 52 l 2
 434 52 484 62 484 177 c 2
 484 284 l 2
 484 399 434 409 314 409 c 2
 285 409 l 2
 164 409 114 399 114 284 c 2
 114 177 l 2
 114 62 164 52 285 52 c 2
164 558 m 2
 269 690 l 1
 328 690 l 1
 435 558 l 2
 438 554 441 546 441 540 c 0
 441 533 439 517 418 517 c 0
 404 517 399 527 390 537 c 2
 299 633 l 1
 209 537 l 2
 200 527 195 517 181 517 c 0
 160 517 158 533 158 540 c 0
 158 546 161 554 164 558 c 2
EndSplineSet
Fore
Refer: 327 770 S 1 0 0 1 601 12 2
Refer: 80 111 N 1 0 0 1 0 0 3
Validated: 1
EndChar

StartChar: otilde
Encoding: 245 245 180
Width: 598
Flags: W
HStem: 0 52<151.246 436.047> 409 52<162.468 447.542> 520 54<353 381.203> 558 56<215.844 250>
VStem: 62 52<88.375 372.625> 158 282<558.297 573.531> 484 52<86.25 374.803>
CounterMasks: 1 0e
LayerCount: 2
Back
SplineSet
314 0 m 2xca
 285 0 l 2
 146 0 62 26 62 176 c 2
 62 285 l 2
 62 435 146 461 285 461 c 2
 314 461 l 2
 452 461 536 435 536 285 c 2
 536 176 l 2
 536 26 452 0 314 0 c 2xca
285 52 m 2
 314 52 l 2
 434 52 484 62 484 177 c 2
 484 284 l 2
 484 399 434 409 314 409 c 2
 285 409 l 2
 164 409 114 399 114 284 c 2
 114 177 l 2
 114 62 164 52 285 52 c 2
353 574 m 2x24
 355 574 357 575 361 578 c 2
 392 606 l 2
 399 611 405 615 414 615 c 0
 426 615 440 607 440 592 c 0
 440 584 436 574 426 565 c 2
 379 526 l 2
 374 521 368 518 360 518 c 0x24
 355 518 349 520 348 520 c 2
 250 556 l 2
 249 557 246 558 244 558 c 0
 242 558 240 557 236 554 c 2
 205 526 l 2
 198 521 192 517 183 517 c 0
 172 517 158 526 158 541 c 0
 158 551 163 560 172 567 c 2
 218 605 l 1
 223 611 230 614 237 614 c 0x14
 241 614 248 612 250 612 c 2
 348 576 l 2
 351 574 353 574 353 574 c 2x24
EndSplineSet
Fore
Refer: 328 771 N 1 0 0 1 583 28 2
Refer: 80 111 N 1 0 0 1 0 0 3
Validated: 1
EndChar

StartChar: odieresis
Encoding: 246 246 181
Width: 598
Flags: W
HStem: 0 52<151.246 436.047> 409 52<162.468 447.542> 517 82<182.313 271.502 328.313 417.502>
VStem: 62 52<88.375 372.625> 176 102<525.862 590.138> 322 102<525.862 590.138> 484 52<86.25 374.803>
LayerCount: 2
Back
SplineSet
314 0 m 2
 285 0 l 2
 146 0 62 26 62 176 c 2
 62 285 l 2
 62 435 146 461 285 461 c 2
 314 461 l 2
 452 461 536 435 536 285 c 2
 536 176 l 2
 536 26 452 0 314 0 c 2
285 52 m 2
 314 52 l 2
 434 52 484 62 484 177 c 2
 484 284 l 2
 484 399 434 409 314 409 c 2
 285 409 l 2
 164 409 114 399 114 284 c 2
 114 177 l 2
 114 62 164 52 285 52 c 2
227 599 m 0
 246 599 278 582 278 558 c 0
 278 533 246 517 227 517 c 0
 207 517 176 533 176 558 c 0
 176 582 207 599 227 599 c 0
373 599 m 0
 392 599 424 582 424 558 c 0
 424 533 392 517 373 517 c 0
 353 517 322 533 322 558 c 0
 322 582 353 599 373 599 c 0
EndSplineSet
Fore
Refer: 103 168 S 1 0 0 1 116 -72 2
Refer: 80 111 N 1 0 0 1 0 0 3
Validated: 1
EndChar

StartChar: divide
Encoding: 247 247 182
Width: 439
Flags: W
HStem: 87 82<170.313 259.502> 204 53<64.1892 373.792> 292 82<170.313 259.502>
VStem: 164 102<95.8623 160.138 300.862 365.138>
CounterMasks: 1 e0
LayerCount: 2
Fore
SplineSet
340 257 m 2,0,1
 374 257 374 257 374 230.5 c 128,-1,2
 374 204 374 204 340 204 c 2,3,-1
 95 204 l 2,4,5
 64 204 64 204 64 230.5 c 128,-1,6
 64 257 64 257 95 257 c 2,7,-1
 340 257 l 2,0,1
181 157 m 128,-1,9
 198 169 198 169 214.5 169 c 128,-1,10
 231 169 231 169 248.5 157 c 128,-1,11
 266 145 266 145 266 128 c 128,-1,12
 266 111 266 111 248.5 99 c 128,-1,13
 231 87 231 87 214.5 87 c 128,-1,14
 198 87 198 87 181 99 c 128,-1,15
 164 111 164 111 164 128 c 128,-1,8
 164 145 164 145 181 157 c 128,-1,9
181 362 m 128,-1,17
 198 374 198 374 214.5 374 c 128,-1,18
 231 374 231 374 248.5 362 c 128,-1,19
 266 350 266 350 266 333 c 128,-1,20
 266 316 266 316 248.5 304 c 128,-1,21
 231 292 231 292 214.5 292 c 128,-1,22
 198 292 198 292 181 304 c 128,-1,23
 164 316 164 316 164 333 c 128,-1,16
 164 350 164 350 181 362 c 128,-1,17
EndSplineSet
Validated: 1
EndChar

StartChar: oslash
Encoding: 248 248 183
Width: 598
Flags: W
HStem: -8 21G<103 113> 0 52<179.041 447.542> 409 52<151.2 419.959> 449 20G<484 504>
VStem: 62 52<81.6331 372.625> 484 52<88.375 378.916>
AnchorPoint: "top" 296 510 basechar 0
AnchorPoint: "bottom" 296 0 basechar 0
LayerCount: 2
Fore
SplineSet
457 440 m 1,0,1
 478 469 478 469 490 469 c 0,2,3
 518 469 518 469 518 444 c 0,4,5
 518 432 518 432 499 411 c 1,6,7
 536 369 536 369 536 285 c 2,8,-1
 536 176 l 2,9,10
 536 71 536 71 482.5 35.5 c 128,-1,11
 429 0 429 0 314 0 c 2,12,-1
 285 0 l 2,13,14
 189 0 189 0 143 19 c 1,15,16
 118 -8 118 -8 108 -8 c 128,-1,17
 98 -8 98 -8 89.5 -0.5 c 128,-1,18
 81 7 81 7 81 17.5 c 128,-1,19
 81 28 81 28 100 49 c 1,20,21
 62 92 62 92 62 176 c 2,22,-1
 62 285 l 2,23,24
 62 390 62 390 116 425.5 c 128,-1,25
 170 461 170 461 285 461 c 2,26,-1
 314 461 l 2,27,28
 413 461 413 461 457 440 c 1,0,1
285 52 m 2,29,-1
 314 52 l 2,30,31
 412 52 412 52 448 74.5 c 128,-1,32
 484 97 484 97 484 180 c 2,33,-1
 484 291 l 2,34,35
 484 352 484 352 465 380 c 1,36,-1
 178 61 l 1,37,38
 211 52 211 52 285 52 c 2,29,-1
114 170 m 2,39,40
 114 109 114 109 134 80 c 1,41,-1
 421 400 l 1,42,43
 388 409 388 409 314 409 c 2,44,-1
 285 409 l 2,45,46
 186 409 186 409 150 386.5 c 128,-1,47
 114 364 114 364 114 281 c 2,48,-1
 114 170 l 2,39,40
EndSplineSet
Validated: 1
EndChar

StartChar: ugrave
Encoding: 249 249 184
Width: 618
Flags: W
HStem: 0 52<158.458 418.356> 448 20<83 109 505 531> 502 178
VStem: 70 52<88.375 467.792> 200 155 492 52<-6.78027 63 125.051 467.792>
LayerCount: 2
Back
SplineSet
321 52 m 2
 435 52 492 115 492 230 c 2
 492 434 l 2
 492 456 499 468 518 468 c 0
 539 468 544 452 544 434 c 2
 544 28 l 2
 544 8 539 -7 520 -7 c 0
 498 -7 492 9 492 29 c 2
 492 63 l 1
 452 20 390 0 321 0 c 2
 292 0 l 2
 154 0 70 26 70 176 c 2
 70 434 l 2
 70 453 75 468 95 468 c 0
 106 468 122 464 122 434 c 2
 122 177 l 2
 122 62 172 52 292 52 c 2
 321 52 l 2
225 683 m 0
 233 683 241 678 250 668 c 2
 346 553 l 2
 352 546 355 539 355 530 c 0
 355 514 340 505 330 505 c 0
 322 505 314 510 305 520 c 2
 209 635 l 2
 203 642 200 650 200 657 c 0
 200 673 214 683 225 683 c 0
EndSplineSet
Fore
Refer: 65 96 S 1 0 0 1 171 -3 2
Refer: 86 117 N 1 0 0 1 0 0 3
Validated: 1
EndChar

StartChar: uacute
Encoding: 250 250 185
Width: 618
Flags: W
HStem: 0 52<158.458 418.356> 448 20<83 109 505 531> 505 178
VStem: 70 52<88.375 467.792> 282 155 492 52<-6.78027 63 125.051 467.792>
LayerCount: 2
Back
SplineSet
321 52 m 2
 435 52 492 115 492 230 c 2
 492 434 l 2
 492 456 499 468 518 468 c 0
 539 468 544 452 544 434 c 2
 544 28 l 2
 544 8 539 -7 520 -7 c 0
 498 -7 492 9 492 29 c 2
 492 63 l 1
 452 20 390 0 321 0 c 2
 292 0 l 2
 154 0 70 26 70 176 c 2
 70 434 l 2
 70 453 75 468 95 468 c 0
 106 468 122 464 122 434 c 2
 122 177 l 2
 122 62 172 52 292 52 c 2
 321 52 l 2
428 635 m 2
 332 520 l 2
 323 510 315 505 307 505 c 0
 297 505 282 515 282 530 c 0
 282 539 285 546 291 553 c 2
 387 668 l 2
 396 678 404 683 412 683 c 0
 423 683 437 673 437 657 c 0
 437 650 434 642 428 635 c 2
EndSplineSet
Fore
Refer: 115 180 S 1 0 0 1 253 0 2
Refer: 86 117 N 1 0 0 1 0 0 3
Validated: 1
EndChar

StartChar: ucircumflex
Encoding: 251 251 186
Width: 618
Flags: W
HStem: 0 52<158.458 418.356> 448 20<83 109 505 531> 517 173
VStem: 70 52<88.375 467.792> 165 283<517 550> 492 52<-6.78027 63 125.051 467.792>
LayerCount: 2
Back
SplineSet
321 52 m 2
 435 52 492 115 492 230 c 2
 492 434 l 2
 492 456 499 468 518 468 c 0
 539 468 544 452 544 434 c 2
 544 28 l 2
 544 8 539 -7 520 -7 c 0
 498 -7 492 9 492 29 c 2
 492 63 l 1
 452 20 390 0 321 0 c 2
 292 0 l 2
 154 0 70 26 70 176 c 2
 70 434 l 2
 70 453 75 468 95 468 c 0
 106 468 122 464 122 434 c 2
 122 177 l 2
 122 62 172 52 292 52 c 2
 321 52 l 2
171 565 m 2
 276 697 l 1
 335 697 l 1
 442 565 l 2
 445 561 448 553 448 547 c 0
 448 540 446 524 425 524 c 0
 411 524 406 534 397 544 c 2
 306 640 l 1
 216 544 l 2
 207 534 202 524 188 524 c 0
 167 524 165 540 165 547 c 0
 165 553 168 561 171 565 c 2
EndSplineSet
Fore
Refer: 327 770 S 1 0 0 1 608 12 2
Refer: 86 117 N 1 0 0 1 0 0 3
Validated: 1
EndChar

StartChar: udieresis
Encoding: 252 252 187
Width: 618
Flags: W
HStem: 0 52<158.458 418.356> 448 20<83 109 505 531> 517 82<189.313 278.502 335.313 424.502>
VStem: 70 52<88.375 467.792> 183 102<525.862 590.138> 329 102<525.862 590.138> 492 52<-6.78027 63 125.051 467.792>
LayerCount: 2
Back
SplineSet
321 52 m 2
 435 52 492 115 492 230 c 2
 492 434 l 2
 492 456 499 468 518 468 c 0
 539 468 544 452 544 434 c 2
 544 28 l 2
 544 8 539 -7 520 -7 c 0
 498 -7 492 9 492 29 c 2
 492 63 l 1
 452 20 390 0 321 0 c 2
 292 0 l 2
 154 0 70 26 70 176 c 2
 70 434 l 2
 70 453 75 468 95 468 c 0
 106 468 122 464 122 434 c 2
 122 177 l 2
 122 62 172 52 292 52 c 2
 321 52 l 2
234 606 m 0
 253 606 285 589 285 565 c 0
 285 540 253 524 234 524 c 0
 214 524 183 540 183 565 c 0
 183 589 214 606 234 606 c 0
380 606 m 0
 399 606 431 589 431 565 c 0
 431 540 399 524 380 524 c 0
 360 524 329 540 329 565 c 0
 329 589 360 606 380 606 c 0
EndSplineSet
Fore
Refer: 103 168 S 1 0 0 1 123 -72 2
Refer: 86 117 N 1 0 0 1 0 0 3
Validated: 1
EndChar

StartChar: yacute
Encoding: 253 253 188
Width: 619
Flags: W
HStem: -205 52<134.38 483.229> 0 52<158.458 418.356> 448 20<83 109 505 531> 505 178
VStem: 70 52<-139.073 -58.2075 88.375 467.792> 282 155 492 52<-142.683 63 125.051 467.792>
LayerCount: 2
Back
SplineSet
544 -87 m 2
 544 -170 526 -205 453 -205 c 2
 170 -205 l 2
 80 -205 70 -146 70 -93 c 0
 70 -75 75 -58 96 -58 c 0
 114 -58 122 -69 122 -91 c 0
 122 -139 137 -153 177 -153 c 2
 446 -153 l 2
 485 -153 492 -142 492 -103 c 2
 492 63 l 1
 452 20 390 0 321 0 c 2
 292 0 l 2
 154 0 70 26 70 176 c 2
 70 434 l 2
 70 453 75 468 95 468 c 0
 106 468 122 464 122 434 c 2
 122 177 l 2
 122 62 172 52 292 52 c 2
 321 52 l 2
 435 52 492 115 492 230 c 2
 492 434 l 2
 492 456 499 468 518 468 c 0
 539 468 544 452 544 434 c 2
 544 -87 l 2
429 635 m 2
 333 520 l 2
 324 510 316 505 308 505 c 0
 298 505 283 515 283 530 c 0
 283 539 286 546 292 553 c 2
 388 668 l 2
 397 678 405 683 413 683 c 0
 424 683 438 673 438 657 c 0
 438 650 435 642 429 635 c 2
EndSplineSet
Fore
Refer: 115 180 S 1 0 0 1 253 0 2
Refer: 90 121 N 1 0 0 1 0 0 3
Validated: 1
EndChar

StartChar: thorn
Encoding: 254 254 189
Width: 611
Flags: W
HStem: -182 21G<88 114> 0 52<127 460.621> 409 52<200.644 460.542> 623 20G<88 114>
VStem: 75 52<-181.786 0 52 336.359 398 642.786> 497 52<86.4482 372.625>
LayerCount: 2
Fore
SplineSet
497 284 m 2,0,1
 496 368 496 368 456 390 c 0,2,3
 421 409 421 409 336 409 c 0,4,5
 332 409 332 409 327 409 c 2,6,-1
 298 409 l 2,7,8
 127 409 127 409 127 232 c 2,9,-1
 127 52 l 1,10,-1
 328 52 l 2,11,12
 426 52 426 52 461.5 74 c 128,-1,13
 497 96 497 96 497 177 c 2,14,-1
 497 284 l 2,0,1
549 176 m 2,15,16
 549 71 549 71 495.5 35.5 c 128,-1,17
 442 0 442 0 328 0 c 2,18,-1
 127 0 l 1,19,-1
 127 -147 l 2,20,21
 127 -182 127 -182 101 -182 c 128,-1,22
 75 -182 75 -182 75 -147 c 2,23,-1
 75 608 l 2,24,25
 75 643 75 643 101 643 c 128,-1,26
 127 643 127 643 127 608 c 2,27,-1
 127 398 l 1,28,29
 186 461 186 461 298 461 c 2,30,-1
 327 461 l 2,31,32
 442 461 442 461 495.5 425.5 c 128,-1,33
 549 390 549 390 549 285 c 2,34,-1
 549 176 l 2,15,16
EndSplineSet
Validated: 1
EndChar

StartChar: ydieresis
Encoding: 255 255 190
Width: 619
Flags: W
HStem: -205 52<134.38 483.229> 0 52<158.458 418.356> 448 20<83 109 505 531> 517 82<189.313 278.502 335.313 424.502>
VStem: 70 52<-139.073 -58.2075 88.375 467.792> 183 102<525.862 590.138> 329 102<525.862 590.138> 492 52<-142.683 63 125.051 467.792>
LayerCount: 2
Back
SplineSet
234 611 m 0
 253 611 285 594 285 570 c 0
 285 545 253 529 234 529 c 0
 214 529 183 545 183 570 c 0
 183 594 214 611 234 611 c 0
380 611 m 0
 399 611 431 594 431 570 c 0
 431 545 399 529 380 529 c 0
 360 529 329 545 329 570 c 0
 329 594 360 611 380 611 c 0
544 -87 m 2
 544 -170 526 -205 453 -205 c 2
 170 -205 l 2
 80 -205 70 -146 70 -93 c 0
 70 -75 75 -58 96 -58 c 0
 114 -58 122 -69 122 -91 c 0
 122 -139 137 -153 177 -153 c 2
 446 -153 l 2
 485 -153 492 -142 492 -103 c 2
 492 63 l 1
 452 20 390 0 321 0 c 2
 292 0 l 2
 154 0 70 26 70 176 c 2
 70 434 l 2
 70 453 75 468 95 468 c 0
 106 468 122 464 122 434 c 2
 122 177 l 2
 122 62 172 52 292 52 c 2
 321 52 l 2
 435 52 492 115 492 230 c 2
 492 434 l 2
 492 456 499 468 518 468 c 0
 539 468 544 452 544 434 c 2
 544 -87 l 2
EndSplineSet
Fore
Refer: 103 168 N 1 0 0 1 123 -72 2
Refer: 90 121 N 1 0 0 1 0 0 3
Validated: 1
EndChar

StartChar: Amacron
Encoding: 256 256 191
Width: 570
Flags: W
HStem: 199 52<168 402> 616 20<246.57 323.43> 707 53<130.189 439.792>
VStem: 24 53<-15.5056 7> 130 310<707.932 759.068> 493 53<-15.5056 7>
CounterMasks: 1 1c
LayerCount: 2
Back
SplineSet
130 734 m 0
 130 744 135 760 161 760 c 2
 406 760 l 2
 427 760 440 750 440 732 c 0
 440 717 426 707 406 707 c 2
 161 707 l 2
 138 707 130 720 130 734 c 0
316 636 m 1
 543 25 l 2
 545 19 546 14 546 9 c 0
 546 -11 527 -16 520 -16 c 0
 508 -16 499 -7 493 7 c 2
 422 199 l 1
 148 199 l 1
 77 7 l 2
 72 -5 62 -16 50 -16 c 0
 43 -16 24 -11 24 9 c 0
 24 14 25 19 27 25 c 2
 254 636 l 1
 316 636 l 1
284 560 m 1
 168 251 l 1
 402 251 l 1
 284 560 l 1
EndSplineSet
Fore
Refer: 329 772 N 1 0 0 1 573 195 2
Refer: 34 65 N 1 0 0 1 0 0 3
Validated: 1
EndChar

StartChar: amacron
Encoding: 257 257 192
Width: 554
Flags: W
HStem: 0 52<129.532 356.787> 243 52<160.468 430> 409 52<131.921 418.136> 522 53<116.189 425.792>
VStem: 60 52<69.8738 208.188 314.214 387.062> 116 310<522.932 574.068> 430 52<-6.78638 63 124.23 243 295 395.589>
CounterMasks: 1 0e
LayerCount: 2
Back
SplineSet
116 549 m 0
 116 559 121 575 147 575 c 2
 392 575 l 2
 413 575 426 565 426 547 c 0
 426 532 412 522 392 522 c 2
 147 522 l 2
 124 522 116 535 116 549 c 0
283 243 m 2
 162 243 112 233 112 118 c 0
 112 83 140 52 167 52 c 2
 260 52 l 2
 373 52 430 115 430 228 c 2
 430 243 l 1
 283 243 l 2
283 295 m 2
 430 295 l 1
 430 352 l 2
 430 392 419 409 375 409 c 2
 234 409 l 2
 161 409 112 394 112 349 c 0
 112 328 107 314 85 314 c 0
 70 314 60 324 60 349 c 0
 60 430 134 461 227 461 c 2
 382 461 l 2
 462 461 482 425 482 335 c 2
 482 27 l 2
 482 9 477 -7 456 -7 c 0
 435 -7 430 10 430 28 c 2
 430 63 l 1
 391 20 328 0 260 0 c 2
 167 0 l 2
 106 0 60 47 60 123 c 0
 60 267 145 295 283 295 c 2
EndSplineSet
Fore
Refer: 329 772 S 1 0 0 1 559 10 2
Refer: 66 97 N 1 0 0 1 0 0 3
Validated: 1
EndChar

StartChar: Abreve
Encoding: 258 258 193
Width: 570
Flags: W
HStem: 199 52<168 402> 616 20<246.57 323.43> 688 54<235.304 332.92>
VStem: 24 53<-15.5056 7> 164 53<759.538 819> 351 53<759.538 819> 493 53<-15.5056 7>
LayerCount: 2
Back
SplineSet
316 636 m 1
 543 25 l 2
 545 19 546 14 546 9 c 0
 546 -11 527 -16 520 -16 c 0
 508 -16 499 -7 493 7 c 2
 422 199 l 1
 148 199 l 1
 77 7 l 2
 72 -5 62 -16 50 -16 c 0
 43 -16 24 -11 24 9 c 0
 24 14 25 19 27 25 c 2
 254 636 l 1
 316 636 l 1
284 560 m 1
 168 251 l 1
 402 251 l 1
 284 560 l 1
284 688 m 0
 229 688 164 733 164 819 c 1
 217 819 l 1
 217 754 258 742 284 742 c 0
 310 742 351 754 351 819 c 1
 404 819 l 1
 404 732 337 688 284 688 c 0
EndSplineSet
Fore
Refer: 319 728 S 1 0 0 1 71 87 2
Refer: 34 65 N 1 0 0 1 0 0 3
Validated: 1
EndChar

StartChar: abreve
Encoding: 259 259 194
Width: 554
Flags: W
HStem: 0 52<129.532 356.787> 243 52<160.468 430> 409 52<131.921 418.136> 522 54<223.304 320.92>
VStem: 60 52<69.8738 208.188 314.214 387.062> 152 53<593.538 653> 339 53<593.538 653> 430 52<-6.78638 63 124.23 243 295 395.589>
LayerCount: 2
Back
SplineSet
272 522 m 0
 217 522 152 567 152 653 c 1
 205 653 l 1
 205 588 246 576 272 576 c 0
 298 576 339 588 339 653 c 1
 392 653 l 1
 392 566 325 522 272 522 c 0
283 243 m 2
 162 243 112 233 112 118 c 0
 112 83 140 52 167 52 c 2
 260 52 l 2
 373 52 430 115 430 228 c 2
 430 243 l 1
 283 243 l 2
283 295 m 2
 430 295 l 1
 430 352 l 2
 430 392 419 409 375 409 c 2
 234 409 l 2
 161 409 112 394 112 349 c 0
 112 328 107 314 85 314 c 0
 70 314 60 324 60 349 c 0
 60 430 134 461 227 461 c 2
 382 461 l 2
 462 461 482 425 482 335 c 2
 482 27 l 2
 482 9 477 -7 456 -7 c 0
 435 -7 430 10 430 28 c 2
 430 63 l 1
 391 20 328 0 260 0 c 2
 167 0 l 2
 106 0 60 47 60 123 c 0
 60 267 145 295 283 295 c 2
EndSplineSet
Fore
Refer: 319 728 S 1 0 0 1 59 -79 2
Refer: 66 97 N 1 0 0 1 0 0 3
Validated: 1
EndChar

StartChar: Aogonek
Encoding: 260 260 195
Width: 569
Flags: W
HStem: -205 50<490.373 595.131> 199 52<168 402> 626 20G<250.56 319.44>
VStem: 24 53<-15.5056 7> 433 52<-150.854 -47.4575>
AnchorPoint: "top" 284 678 basechar 0
AnchorPoint: "bottom" 285 0 basechar 0
LayerCount: 2
Fore
SplineSet
284 560 m 1,0,-1
 168 251 l 1,1,-1
 402 251 l 1,2,-1
 284 560 l 1,0,-1
50 -16 m 0,3,4
 24 -16 24 -16 24 9 c 0,5,6
 24 16 24 16 27 25 c 2,7,-1
 258 646 l 1,8,-1
 312 646 l 1,9,-1
 543 25 l 2,10,11
 546 16 546 16 546 7.5 c 128,-1,12
 546 -1 546 -1 530.5 -16 c 128,-1,13
 515 -31 515 -31 500 -60 c 128,-1,14
 485 -89 485 -89 485 -101 c 0,15,16
 485 -155 485 -155 527 -155 c 0,17,18
 543 -155 543 -155 565 -146.5 c 128,-1,19
 587 -138 587 -138 593 -138 c 0,20,21
 608 -138 608 -138 608 -159.5 c 128,-1,22
 608 -181 608 -181 581 -193 c 128,-1,23
 554 -205 554 -205 521 -205 c 128,-1,24
 488 -205 488 -205 460.5 -176 c 128,-1,25
 433 -147 433 -147 433 -102.5 c 128,-1,26
 433 -58 433 -58 491 13 c 1,27,-1
 422 199 l 1,28,-1
 148 199 l 1,29,-1
 77 7 l 1,30,31
 67 -16 67 -16 50 -16 c 0,3,4
EndSplineSet
Validated: 1
EndChar

StartChar: aogonek
Encoding: 261 261 196
Width: 554
Flags: W
HStem: -204 50<417.373 522.131> 0 52<129.532 356.787> 243 52<160.468 430> 409 52<131.921 418.136>
VStem: 60 52<69.8738 208.188 314.214 387.062> 360 52<-149.663 -41.3582> 430 52<2.16064 63 124.23 243 295 395.589>
AnchorPoint: "bottom" 252 0 basechar 0
AnchorPoint: "top" 277 510 basechar 0
LayerCount: 2
Fore
SplineSet
387.5 -175 m 128,-1,1
 360 -146 360 -146 360 -99 c 128,-1,2
 360 -52 360 -52 430 29 c 1,3,-1
 430 63 l 1,4,5
 373 0 373 0 260 0 c 2,6,-1
 167 0 l 2,7,8
 120 0 120 0 90 33.5 c 128,-1,9
 60 67 60 67 60 123 c 0,10,11
 60 224 60 224 114.5 259.5 c 128,-1,12
 169 295 169 295 283 295 c 2,13,-1
 430 295 l 1,14,-1
 430 352 l 2,15,16
 430 383 430 383 418.5 396 c 128,-1,17
 407 409 407 409 375 409 c 2,18,-1
 234 409 l 2,19,20
 112 409 112 409 112 349 c 0,21,22
 112 314 112 314 86 314 c 128,-1,23
 60 314 60 314 60 349 c 0,24,25
 60 461 60 461 227 461 c 2,26,-1
 382 461 l 2,27,28
 440 461 440 461 461 433 c 128,-1,29
 482 405 482 405 482 335 c 2,30,-1
 482 27 l 2,31,32
 482 4 482 4 464 -7 c 128,-1,33
 446 -18 446 -18 429 -51 c 128,-1,34
 412 -84 412 -84 412 -100 c 0,35,36
 412 -154 412 -154 454 -154 c 0,37,38
 470 -154 470 -154 492 -145.5 c 128,-1,39
 514 -137 514 -137 520 -137 c 0,40,41
 535 -137 535 -137 535 -158.5 c 128,-1,42
 535 -180 535 -180 508 -192 c 128,-1,43
 481 -204 481 -204 448 -204 c 128,-1,0
 415 -204 415 -204 387.5 -175 c 128,-1,1
260 52 m 2,44,45
 430 52 430 52 430 228 c 2,46,-1
 430 243 l 1,47,-1
 283 243 l 2,48,49
 190 243 190 243 159.5 227 c 128,-1,50
 129 211 129 211 120.5 186 c 128,-1,51
 112 161 112 161 112 126.5 c 128,-1,52
 112 92 112 92 129 72 c 128,-1,53
 146 52 146 52 167 52 c 2,54,-1
 260 52 l 2,44,45
EndSplineSet
Validated: 1
EndChar

StartChar: Cacute
Encoding: 262 262 197
Width: 592
Flags: W
HStem: 0 52<160.538 472.136> 584 52<170.921 471.62> 689 131
VStem: 72 52<87.7676 548.232> 286 132 484 52<66.4423 146.796 489.208 570.073>
LayerCount: 2
Back
SplineSet
436 0 m 2
 295 0 l 2
 156 0 72 26 72 180 c 2
 72 456 l 2
 72 610 156 636 289 636 c 2
 436 636 l 2
 526 636 536 578 536 524 c 0
 536 506 531 489 510 489 c 0
 500 489 484 493 484 522 c 0
 484 570 469 584 429 584 c 2
 289 584 l 2
 174 584 124 573 124 456 c 2
 124 180 l 2
 124 63 174 52 295 52 c 2
 429 52 l 2
 473 52 484 70 484 114 c 0
 484 143 500 147 510 147 c 0
 528 147 536 135 536 111 c 0
 536 58 526 0 436 0 c 2
406 771 m 2
 336 702 l 2
 328 693 320 689 312 689 c 0
 298 689 286 702 286 713 c 0
 286 723 292 731 299 739 c 2
 368 807 l 2
 376 816 385 820 393 820 c 0
 409 820 418 804 418 795 c 0
 418 786 413 779 406 771 c 2
EndSplineSet
Fore
Refer: 326 769 S 1 0 0 1 661 184 2
Refer: 36 67 N 1 0 0 1 0 0 3
Validated: 1
EndChar

StartChar: cacute
Encoding: 263 263 198
Width: 584
Flags: W
HStem: 0 52<151.246 462.136> 409 52<162.468 461.62> 505 178
VStem: 62 52<88.375 372.625> 258 155 474 52<66.4423 146.796 314.208 395.073>
LayerCount: 2
Back
SplineSet
426 0 m 2
 285 0 l 2
 146 0 62 26 62 176 c 2
 62 285 l 2
 62 435 146 461 285 461 c 2
 426 461 l 2
 516 461 526 402 526 349 c 0
 526 331 521 314 500 314 c 0
 490 314 474 318 474 347 c 0
 474 395 459 409 419 409 c 2
 285 409 l 2
 164 409 114 399 114 284 c 2
 114 177 l 2
 114 62 164 52 285 52 c 2
 419 52 l 2
 463 52 474 70 474 114 c 0
 474 143 490 147 500 147 c 0
 518 147 526 135 526 111 c 0
 526 58 516 0 426 0 c 2
404 635 m 2
 308 520 l 2
 299 510 291 505 283 505 c 0
 273 505 258 515 258 530 c 0
 258 539 261 546 267 553 c 2
 363 668 l 2
 372 678 380 683 388 683 c 0
 399 683 413 673 413 657 c 0
 413 650 410 642 404 635 c 2
EndSplineSet
Fore
Refer: 115 180 N 1 0 0 1 229 0 2
Refer: 68 99 N 1 0 0 1 0 0 3
Validated: 1
EndChar

StartChar: Ccircumflex
Encoding: 264 264 199
Width: 592
Flags: W
HStem: 0 52<160.538 472.136> 584 52<170.921 471.62> 646 173
VStem: 72 52<87.7676 548.232> 169 283<646 679> 484 52<66.4423 146.796 489.208 570.073>
LayerCount: 2
Back
SplineSet
175 687 m 2
 280 819 l 1
 339 819 l 1
 446 687 l 2
 449 683 452 675 452 669 c 0
 452 662 450 646 429 646 c 0
 415 646 410 656 401 666 c 2
 310 762 l 1
 220 666 l 2
 211 656 206 646 192 646 c 0
 171 646 169 662 169 669 c 0
 169 675 172 683 175 687 c 2
436 0 m 2
 295 0 l 2
 156 0 72 26 72 180 c 2
 72 456 l 2
 72 610 156 636 289 636 c 2
 436 636 l 2
 526 636 536 578 536 524 c 0
 536 506 531 489 510 489 c 0
 500 489 484 493 484 522 c 0
 484 570 469 584 429 584 c 2
 289 584 l 2
 174 584 124 573 124 456 c 2
 124 180 l 2
 124 63 174 52 295 52 c 2
 429 52 l 2
 473 52 484 70 484 114 c 0
 484 143 500 147 510 147 c 0
 528 147 536 135 536 111 c 0
 536 58 526 0 436 0 c 2
EndSplineSet
Fore
Refer: 327 770 S 1 0 0 1 612 141 2
Refer: 36 67 N 1 0 0 1 0 0 3
Validated: 1
EndChar

StartChar: ccircumflex
Encoding: 265 265 200
Width: 584
Flags: W
HStem: 0 52<151.246 462.136> 409 52<162.468 461.62> 517 173
VStem: 62 52<88.375 372.625> 147 283<517 550> 474 52<66.4423 146.796 314.208 395.073>
LayerCount: 2
Back
SplineSet
426 0 m 2
 285 0 l 2
 146 0 62 26 62 176 c 2
 62 285 l 2
 62 435 146 461 285 461 c 2
 426 461 l 2
 516 461 526 402 526 349 c 0
 526 331 521 314 500 314 c 0
 490 314 474 318 474 347 c 0
 474 395 459 409 419 409 c 2
 285 409 l 2
 164 409 114 399 114 284 c 2
 114 177 l 2
 114 62 164 52 285 52 c 2
 419 52 l 2
 463 52 474 70 474 114 c 0
 474 143 490 147 500 147 c 0
 518 147 526 135 526 111 c 0
 526 58 516 0 426 0 c 2
153 558 m 2
 258 690 l 1
 317 690 l 1
 424 558 l 2
 427 554 430 546 430 540 c 0
 430 533 428 517 407 517 c 0
 393 517 388 527 379 537 c 2
 288 633 l 1
 198 537 l 2
 189 527 184 517 170 517 c 0
 149 517 147 533 147 540 c 0
 147 546 150 554 153 558 c 2
EndSplineSet
Fore
Refer: 327 770 S 1 0 0 1 590 12 2
Refer: 68 99 N 1 0 0 1 0 0 3
Validated: 1
EndChar

StartChar: Cdotaccent
Encoding: 266 266 201
Width: 592
Flags: W
HStem: 0 52<160.538 472.136> 584 52<170.921 471.62> 701 82<246.313 335.502>
VStem: 72 52<87.7676 548.232> 240 102<709.862 774.138> 484 52<66.4423 146.796 489.208 570.073>
LayerCount: 2
Back
SplineSet
436 0 m 2
 295 0 l 2
 156 0 72 26 72 180 c 2
 72 456 l 2
 72 610 156 636 289 636 c 2
 436 636 l 2
 526 636 536 578 536 524 c 0
 536 506 531 489 510 489 c 0
 500 489 484 493 484 522 c 0
 484 570 469 584 429 584 c 2
 289 584 l 2
 174 584 124 573 124 456 c 2
 124 180 l 2
 124 63 174 52 295 52 c 2
 429 52 l 2
 473 52 484 70 484 114 c 0
 484 143 500 147 510 147 c 0
 528 147 536 135 536 111 c 0
 536 58 526 0 436 0 c 2
291 783 m 0
 310 783 342 766 342 742 c 0
 342 717 310 701 291 701 c 0
 271 701 240 717 240 742 c 0
 240 766 271 783 291 783 c 0
EndSplineSet
Fore
Refer: 320 729 S 1 0 0 1 180 112 2
Refer: 36 67 N 1 0 0 1 0 0 3
Validated: 1
EndChar

StartChar: cdotaccent
Encoding: 267 267 202
Width: 584
Flags: W
HStem: 0 52<151.246 462.136> 409 52<162.468 461.62> 517 82<240.313 329.502>
VStem: 62 52<88.375 372.625> 234 102<525.862 590.138> 474 52<66.4423 146.796 314.208 395.073>
LayerCount: 2
Back
SplineSet
426 0 m 2
 285 0 l 2
 146 0 62 26 62 176 c 2
 62 285 l 2
 62 435 146 461 285 461 c 2
 426 461 l 2
 516 461 526 402 526 349 c 0
 526 331 521 314 500 314 c 0
 490 314 474 318 474 347 c 0
 474 395 459 409 419 409 c 2
 285 409 l 2
 164 409 114 399 114 284 c 2
 114 177 l 2
 114 62 164 52 285 52 c 2
 419 52 l 2
 463 52 474 70 474 114 c 0
 474 143 490 147 500 147 c 0
 518 147 526 135 526 111 c 0
 526 58 516 0 426 0 c 2
285 599 m 0
 304 599 336 582 336 558 c 0
 336 533 304 517 285 517 c 0
 265 517 234 533 234 558 c 0
 234 582 265 599 285 599 c 0
EndSplineSet
Fore
Refer: 320 729 S 1 0 0 1 174 -72 2
Refer: 68 99 N 1 0 0 1 0 0 3
Validated: 1
EndChar

StartChar: Ccaron
Encoding: 268 268 203
Width: 592
Flags: W
HStem: 0 52<160.538 472.136> 584 52<170.921 471.62> 675 144
VStem: 72 52<87.7676 548.232> 172 278<791 819> 484 52<66.4423 146.796 489.208 570.073>
LayerCount: 2
Back
SplineSet
436 0 m 2
 295 0 l 2
 156 0 72 26 72 180 c 2
 72 456 l 2
 72 610 156 636 289 636 c 2
 436 636 l 2
 526 636 536 578 536 524 c 0
 536 506 531 489 510 489 c 0
 500 489 484 493 484 522 c 0
 484 570 469 584 429 584 c 2
 289 584 l 2
 174 584 124 573 124 456 c 2
 124 180 l 2
 124 63 174 52 295 52 c 2
 429 52 l 2
 473 52 484 70 484 114 c 0
 484 143 500 147 510 147 c 0
 528 147 536 135 536 111 c 0
 536 58 526 0 436 0 c 2
325 678 m 1
 269 678 l 1
 165 787 l 2
 161 791 158 795 158 802 c 0
 158 810 163 822 181 822 c 0
 188 822 195 820 213 805 c 2
 297 735 l 1
 381 805 l 2
 399 820 406 822 413 822 c 0
 431 822 436 810 436 802 c 0
 436 795 433 791 429 787 c 2
 325 678 l 1
EndSplineSet
Fore
Refer: 318 711 S 1 0 0 1 122 153 2
Refer: 36 67 N 1 0 0 1 0 0 3
Validated: 1
EndChar

StartChar: ccaron
Encoding: 269 269 204
Width: 584
Flags: W
HStem: 0 52<151.246 462.136> 409 52<162.468 461.62> 522 144
VStem: 62 52<88.375 372.625> 157 278<638 666> 474 52<66.4423 146.796 314.208 395.073>
LayerCount: 2
Back
SplineSet
324 522 m 1
 268 522 l 1
 164 631 l 2
 160 635 157 639 157 646 c 0
 157 654 162 666 180 666 c 0
 187 666 194 664 212 649 c 2
 296 579 l 1
 380 649 l 2
 398 664 405 666 412 666 c 0
 430 666 435 654 435 646 c 0
 435 639 432 635 428 631 c 2
 324 522 l 1
426 0 m 2
 285 0 l 2
 146 0 62 26 62 176 c 2
 62 285 l 2
 62 435 146 461 285 461 c 2
 426 461 l 2
 516 461 526 402 526 349 c 0
 526 331 521 314 500 314 c 0
 490 314 474 318 474 347 c 0
 474 395 459 409 419 409 c 2
 285 409 l 2
 164 409 114 399 114 284 c 2
 114 177 l 2
 114 62 164 52 285 52 c 2
 419 52 l 2
 463 52 474 70 474 114 c 0
 474 143 490 147 500 147 c 0
 518 147 526 135 526 111 c 0
 526 58 516 0 426 0 c 2
EndSplineSet
Fore
Refer: 318 711 S 1 0 0 1 107 0 2
Refer: 68 99 N 1 0 0 1 0 0 3
Validated: 1
EndChar

StartChar: Dcaron
Encoding: 270 270 205
Width: 620
Flags: W
HStem: 0 52<136 459.542> 584 52<136 458.703> 675 144
VStem: 84 52<52 584> 151 278<791 819> 496 52<87.7676 548.493>
LayerCount: 2
Back
SplineSet
548 456 m 2
 548 180 l 2
 548 26 464 0 326 0 c 2
 108 0 l 2
 89 0 84 16 84 36 c 2
 84 600 l 2
 84 620 89 636 108 636 c 2
 332 636 l 2
 464 636 548 610 548 456 c 2
496 180 m 2
 496 456 l 2
 496 573 446 584 332 584 c 2
 136 584 l 1
 136 52 l 1
 326 52 l 2
 446 52 496 63 496 180 c 2
318 675 m 1
 262 675 l 1
 158 784 l 2
 154 788 151 792 151 799 c 0
 151 807 156 819 174 819 c 0
 181 819 188 817 206 802 c 2
 290 732 l 1
 374 802 l 2
 392 817 399 819 406 819 c 0
 424 819 429 807 429 799 c 0
 429 792 426 788 422 784 c 2
 318 675 l 1
EndSplineSet
Fore
Refer: 318 711 S 1 0 0 1 101 153 2
Refer: 37 68 N 1 0 0 1 0 0 3
Validated: 1
EndChar

StartChar: dcaron
Encoding: 271 271 206
Width: 611
Flags: W
HStem: 0 52<150.458 410.356> 409 52<161.953 484> 497 151<590.221 609.37> 623 20<497 523>
VStem: 62 52<88.375 374.75> 484 52<-6.78638 63 124.23 409 461 642.78> 563 47<497.22 521> 563 93<522 624.5>
LayerCount: 2
Back
SplineSet
484 461 m 1xdc
 484 607 l 2
 484 627 490 643 512 643 c 0
 531 643 536 627 536 607 c 2
 536 27 l 2
 536 9 531 -7 510 -7 c 0
 491 -7 484 5 484 28 c 2
 484 63 l 1
 444 20 382 0 313 0 c 2
 284 0 l 2
 146 0 62 26 62 176 c 2
 62 285 l 2
 62 435 146 461 284 461 c 2
 484 461 l 1xdc
484 409 m 1
 284 409 l 2
 164 409 114 399 114 284 c 2
 114 177 l 2
 114 62 164 52 284 52 c 2
 313 52 l 2
 427 52 484 114 484 228 c 2
 484 409 l 1
656 623 m 0x21
 656 618 655 611 651 604 c 2
 610 521 l 2x22
 604 507 597 497 585 497 c 0
 575 497 563 502 563 522 c 0
 563 525 564 530 566 538 c 2
 590 625 l 2
 595 642 605 648 615 648 c 0
 623 648 656 643 656 623 c 0x21
EndSplineSet
Fore
Refer: 13 44 N 1 0 0 1 514 582 2
Refer: 69 100 N 1 0 0 1 0 0 2
Validated: 1
EndChar

